<?xml version="1.0" encoding="utf-8"?>
<!-- Generator: Adobe Illustrator 22.0.1, SVG Export Plug-In . SVG Version: 6.00 Build 0)  -->
<svg version="1.1" id="Layer_1" xmlns="http://www.w3.org/2000/svg" xmlns:xlink="http://www.w3.org/1999/xlink" x="0px" y="0px"
	 viewBox="0 0 30 30" style="enable-background:new 0 0 30 30;" xml:space="preserve">
<path d="M7.69,13.2c0-0.99,0.19-1.94,0.58-2.85c0.39-0.91,0.91-1.68,1.57-2.33s1.44-1.17,2.34-1.56c0.9-0.39,1.85-0.58,2.84-0.58
	c0.99,0,1.94,0.19,2.85,0.58c0.9,0.39,1.68,0.91,2.33,1.56c0.65,0.65,1.17,1.43,1.56,2.33s0.58,1.85,0.58,2.85
	c0,1.62-0.48,3.06-1.44,4.34c-0.96,1.27-2.2,2.14-3.71,2.61v3.29h-4.24v-3.25c-1.54-0.45-2.81-1.32-3.79-2.61S7.69,14.83,7.69,13.2z
	 M9.3,13.2c0,1.55,0.56,2.88,1.69,3.99c1.11,1.12,2.45,1.68,4.02,1.68c1.03,0,1.99-0.25,2.86-0.76c0.88-0.51,1.57-1.2,2.09-2.07
	c0.51-0.87,0.77-1.82,0.77-2.85c0-0.77-0.15-1.5-0.45-2.21s-0.71-1.31-1.22-1.82c-0.51-0.51-1.12-0.92-1.83-1.22
	c-0.71-0.3-1.44-0.45-2.21-0.45c-0.77,0-1.5,0.15-2.21,0.45s-1.31,0.71-1.82,1.22c-0.51,0.51-0.92,1.12-1.22,1.82
	C9.45,11.7,9.3,12.43,9.3,13.2z M9.88,13.56v-0.72h2.17v0.72H9.88z M10.97,10.02l0.52-0.52l1.52,1.52l-0.52,0.53L10.97,10.02z
	 M13.5,14.95c0-0.42,0.15-0.78,0.44-1.09c0.29-0.31,0.65-0.47,1.06-0.48l2.73-4.49l0.66,0.35l-2.02,4.83
	c0.18,0.25,0.26,0.54,0.26,0.88c0,0.44-0.15,0.81-0.46,1.11c-0.31,0.3-0.68,0.45-1.12,0.45c-0.43,0-0.8-0.15-1.1-0.45
	C13.65,15.76,13.5,15.39,13.5,14.95z M14.81,10.28V8.12h0.69v2.17H14.81z M17.75,13.55v-0.74h2.17v0.74H17.75z"/>
</svg>
