<?xml version="1.0" encoding="UTF-8" standalone="no"?>
<svg
   xmlns:dc="http://purl.org/dc/elements/1.1/"
   xmlns:cc="http://creativecommons.org/ns#"
   xmlns:rdf="http://www.w3.org/1999/02/22-rdf-syntax-ns#"
   xmlns:svg="http://www.w3.org/2000/svg"
   xmlns="http://www.w3.org/2000/svg"
   xml:space="preserve"
   style="enable-background:new 0 0 30 30;"
   viewBox="0 0 30 30"
   y="0px"
   x="0px"
   id="Layer_1"
   version="1.1"><metadata
     id="metadata9"><rdf:RDF><cc:Work
         rdf:about=""><dc:format>image/svg+xml</dc:format><dc:type
           rdf:resource="http://purl.org/dc/dcmitype/StillImage" /><dc:title></dc:title></cc:Work></rdf:RDF></metadata><defs
     id="defs7" /><path
     id="path2"
     d="m 15.019531,3.930628 c -0.99,0 -1.939844,0.1900781 -2.839843,0.5800781 -0.900002,0.39 -1.679844,0.9085938 -2.3398442,1.5585937 C 9.1798435,6.7192999 8.6595312,7.489378 8.2695311,8.399378 c -0.3899998,0.91 -0.5800781,1.85961 -0.5800781,2.84961 0,1.63 0.4907032,3.090859 1.4707031,4.380859 0.9799999,1.29 2.2490629,2.159375 3.7890629,2.609375 v 1.291016 c 0.14172,0.123517 0.28985,0.240637 0.455078,0.341797 0.49,0.3 1.031094,0.449218 1.621094,0.449218 0.58,0 1.119375,-0.149218 1.609375,-0.449218 0.205382,-0.125745 0.387219,-0.2728 0.554687,-0.431641 V 18.20016 c 1.51,-0.47 2.750938,-1.341328 3.710938,-2.611329 0.96,-1.279999 1.439453,-2.719843 1.439453,-4.339843 0,-1 -0.190078,-1.94961 -0.580078,-2.84961 -0.39,-0.9 -0.910547,-1.680078 -1.560547,-2.3300782 -0.65,-0.65 -1.430078,-1.1685937 -2.330078,-1.5585937 -0.91,-0.39 -1.85961,-0.5800781 -2.84961,-0.5800781 z m 0,1.609375 c 0.77,0 1.500938,0.1492187 2.210938,0.4492187 0.71,0.3 1.320078,0.7107032 1.830078,1.2207031 0.51,0.5100002 0.91875,1.1103125 1.21875,1.8203126 0.3,0.7099998 0.451172,1.4389846 0.451172,2.2089846 0,1.03 -0.259531,1.97961 -0.769531,2.849609 -0.520001,0.870001 -1.211797,1.560313 -2.091797,2.070313 -0.87,0.51 -1.829375,0.759766 -2.859375,0.759766 -1.57,0 -2.909532,-0.559688 -4.019532,-1.679688 -1.1299992,-1.11 -1.6894529,-2.440234 -1.6894529,-3.990234 0,-0.77 0.14875,-1.4987507 0.46875,-2.2187506 0.2999999,-0.7000001 0.7107029,-1.3103126 1.2207029,-1.8203126 0.51,-0.51 1.110313,-0.9207031 1.820313,-1.2207031 0.71,-0.3 1.438984,-0.4492187 2.208984,-0.4492187 z m -0.208984,0.6289062 v 2.1601563 0.00977 H 15.5 V 6.1689092 Z M 17.730469,6.9403936 15,11.430628 c -0.41,0.01 -0.770547,0.168516 -1.060547,0.478516 -0.29,0.31 -0.439453,0.669844 -0.439453,1.089844 0,0.44 0.149219,0.811328 0.449219,1.111328 0.3,0.3 0.671562,0.449219 1.101562,0.449219 0.44,0 0.809141,-0.149219 1.119141,-0.449219 0.31,-0.3 0.460937,-0.671328 0.460937,-1.111328 0,-0.34 -0.08172,-0.628906 -0.261718,-0.878907 l 2.021484,-4.830078 z m -6.240235,0.609375 -0.519531,0.5195312 1.519531,1.53125 0.519532,-0.53125 z M 17.75,10.860316 v 0.740234 h 2.169922 v -0.740234 z m -7.8691406,0.0293 v 0.720703 h 2.1699216 v -0.720703 z m -3.1562501,9.140625 v 4.759765 c -0.01,0.09 -0.019531,0.158985 -0.019531,0.208985 0,0.05 0.00953,0.120937 0.019531,0.210937 0.05,0.22 0.1603125,0.400547 0.3203125,0.560547 0.16,0.16 0.3600781,0.249297 0.5800781,0.279297 0.01,0 0.040313,-2.34e-4 0.070312,0.0098 0.03,0.01 0.060078,0.0098 0.080078,0.0098 0.01,0 0.040312,2.35e-4 0.070312,-0.0098 0.04,-0.01 0.060078,-0.0098 0.080078,-0.0098 H 22.085938 c 0.02,0 0.04813,-2.34e-4 0.07812,0.0098 0.03,0.01 0.06031,0.0098 0.07031,0.0098 0.02,0 0.05008,2.35e-4 0.08008,-0.0098 0.03,-0.01 0.06008,-0.0098 0.08008,-0.0098 0.23,-0.03 0.42961,-0.130781 0.59961,-0.300781 0.17,-0.17 0.270781,-0.36961 0.300781,-0.59961 v -0.08008 -0.07031 -0.08008 -0.08008 -4.808593 c -0.27,0.5 -0.660391,0.889453 -1.150391,1.189453 -0.49,0.3 -1.029375,0.449219 -1.609375,0.449219 -0.58,0 -1.109609,-0.149219 -1.599609,-0.449219 -0.48,-0.3 -0.870391,-0.699453 -1.150391,-1.189453 -0.28,0.5 -0.66039,0.889453 -1.15039,1.189453 -0.49,0.3 -1.029375,0.449219 -1.609375,0.449219 -0.59,0 -1.131094,-0.149219 -1.621094,-0.449219 -0.49,-0.3 -0.878438,-0.699453 -1.148438,-1.189453 -0.28,0.5 -0.66039,0.889453 -1.15039,1.189453 -0.49,0.3 -1.031094,0.449219 -1.621094,0.449219 -0.5800001,0 -1.119375,-0.149219 -1.6093751,-0.449219 -0.49,-0.3 -0.8703906,-0.699453 -1.1503906,-1.189453 z" /></svg>