<?xml version="1.0" encoding="utf-8"?>
<!-- Generator: Adobe Illustrator 22.0.1, SVG Export Plug-In . SVG Version: 6.00 Build 0)  -->
<svg version="1.1" id="Layer_1" xmlns="http://www.w3.org/2000/svg" xmlns:xlink="http://www.w3.org/1999/xlink" x="0px" y="0px"
	 viewBox="0 0 30 30" style="enable-background:new 0 0 30 30;" xml:space="preserve">
<path d="M4.63,16.91c0,0.66,0.12,1.28,0.38,1.88c0.25,0.6,0.59,1.11,1.02,1.55c0.43,0.43,0.94,0.79,1.53,1.05
	c0.59,0.27,1.21,0.42,1.87,0.45c0.11,0,0.17-0.06,0.17-0.17v-1.33c0-0.12-0.06-0.19-0.17-0.19c-0.87-0.06-1.6-0.41-2.19-1.03
	s-0.89-1.36-0.89-2.21c0-0.84,0.28-1.57,0.85-2.19c0.57-0.62,1.26-0.97,2.1-1.04l0.52-0.07c0.13,0,0.2-0.06,0.2-0.17l0.07-0.52
	c0.07-0.71,0.3-1.36,0.69-1.95c0.39-0.58,0.9-1.04,1.52-1.37s1.29-0.49,2.01-0.49c1.09,0,2.05,0.36,2.86,1.08
	c0.82,0.72,1.28,1.62,1.39,2.7l0.06,0.57c0,0.12,0.06,0.18,0.19,0.18h1.61c0.9,0,1.67,0.32,2.32,0.97c0.64,0.64,0.97,1.41,0.97,2.3
	c0,0.85-0.3,1.59-0.89,2.21c-0.59,0.62-1.32,0.97-2.19,1.03c-0.13,0-0.2,0.06-0.2,0.19v1.33c0,0.11,0.07,0.17,0.2,0.17
	c1.34-0.06,2.47-0.57,3.39-1.51s1.38-2.09,1.38-3.42c0-0.89-0.22-1.72-0.67-2.48c-0.45-0.76-1.05-1.36-1.81-1.8
	c-0.76-0.44-1.59-0.67-2.48-0.67h-0.32c-0.33-1.33-1.04-2.42-2.11-3.28C16.9,7.82,15.67,7.4,14.3,7.4c-1.41,0-2.66,0.44-3.75,1.33
	s-1.8,2.01-2.11,3.38c-1.11,0.26-2.02,0.84-2.73,1.74C4.99,14.74,4.63,15.76,4.63,16.91z M10.86,18.18c0,0.74,0.19,1.43,0.56,2.07
	s0.88,1.14,1.51,1.51c0.63,0.38,1.32,0.56,2.06,0.56c1.15,0,2.13-0.41,2.95-1.22c0.82-0.82,1.23-1.79,1.23-2.92
	c0-0.23-0.08-0.43-0.25-0.6c-0.17-0.17-0.37-0.25-0.61-0.25c-0.24,0-0.44,0.08-0.61,0.25s-0.26,0.37-0.26,0.6
	c0,0.67-0.24,1.24-0.72,1.73c-0.48,0.48-1.05,0.72-1.73,0.72c-0.66,0-1.23-0.24-1.71-0.72c-0.48-0.48-0.72-1.06-0.72-1.73
	c0-0.6,0.18-1.13,0.53-1.6c0.36-0.47,0.79-0.73,1.31-0.77l-0.41,0.39c-0.15,0.15-0.23,0.34-0.23,0.57c0,0.25,0.07,0.47,0.23,0.66
	c0.14,0.15,0.31,0.23,0.53,0.23c0.22,0.01,0.45-0.07,0.7-0.23l1.82-1.87c0.17-0.17,0.25-0.36,0.25-0.58c0-0.25-0.08-0.45-0.25-0.61
	l-1.82-1.83c-0.19-0.18-0.39-0.26-0.62-0.26c-0.23,0-0.43,0.08-0.59,0.25c-0.16,0.17-0.24,0.37-0.24,0.61
	c0,0.24,0.07,0.43,0.23,0.58l0.35,0.36c-1,0.17-1.83,0.63-2.49,1.4C11.19,16.24,10.86,17.14,10.86,18.18z"/>
</svg>
