<?xml version="1.0" encoding="utf-8"?>
<!-- Generator: Adobe Illustrator 22.0.1, SVG Export Plug-In . SVG Version: 6.00 Build 0)  -->
<svg version="1.1" id="Layer_1" xmlns="http://www.w3.org/2000/svg" xmlns:xlink="http://www.w3.org/1999/xlink" x="0px" y="0px"
	 viewBox="0 0 30 30" style="enable-background:new 0 0 30 30;" xml:space="preserve">
<path d="M10.04,10.08c0-0.3,0.09-0.55,0.26-0.73c0.2-0.19,0.46-0.28,0.79-0.28c0.3,0,0.55,0.09,0.73,0.28l6.05,6.05v-1.95
	c0-0.3,0.1-0.55,0.3-0.75s0.45-0.3,0.75-0.3c0.29,0,0.54,0.1,0.74,0.31s0.3,0.45,0.3,0.75v4.48c0,0.3-0.1,0.55-0.3,0.75
	s-0.45,0.3-0.74,0.3h-4.48c-0.29,0-0.54-0.1-0.74-0.3s-0.3-0.45-0.3-0.75c0-0.29,0.1-0.54,0.3-0.73s0.45-0.29,0.74-0.29h1.93
	l-6.08-6.06C10.13,10.63,10.04,10.38,10.04,10.08z"/>
</svg>
