<?xml version="1.0" encoding="utf-8"?>
<!-- Generator: Adobe Illustrator 22.0.1, SVG Export Plug-In . SVG Version: 6.00 Build 0)  -->
<svg version="1.1" id="Layer_1" xmlns="http://www.w3.org/2000/svg" xmlns:xlink="http://www.w3.org/1999/xlink" x="0px" y="0px"
	 viewBox="0 0 30 30" style="enable-background:new 0 0 30 30;" xml:space="preserve">
<path d="M1.48,16.88c0,1.34,0.47,2.49,1.4,3.45s2.07,1.47,3.4,1.53c0.12,0,0.18-0.06,0.18-0.17v-1.34c0-0.12-0.06-0.18-0.18-0.18
	c-0.86-0.04-1.59-0.39-2.19-1.03s-0.9-1.4-0.9-2.26c0-0.83,0.28-1.55,0.85-2.17s1.27-0.97,2.1-1.07l0.53-0.04
	c0.13,0,0.2-0.06,0.2-0.18l0.07-0.55c0.11-1.08,0.56-1.99,1.37-2.71c0.81-0.73,1.76-1.09,2.86-1.09c1.09,0,2.04,0.36,2.86,1.09
	c0.82,0.73,1.29,1.63,1.4,2.71l0.07,0.58c0,0.12,0.06,0.19,0.17,0.19h1.62c0.89,0,1.67,0.32,2.32,0.96c0.65,0.64,0.98,1.4,0.98,2.27
	c0,0.87-0.3,1.62-0.91,2.26c-0.61,0.64-1.34,0.98-2.19,1.03c-0.13,0-0.2,0.06-0.2,0.18v1.34c0,0.11,0.07,0.17,0.2,0.17
	c1.34-0.04,2.47-0.55,3.39-1.51c0.93-0.97,1.39-2.12,1.39-3.46c0-0.74-0.14-1.41-0.41-2.01c0.79-0.96,1.18-2.07,1.18-3.33
	c0-0.94-0.24-1.82-0.71-2.63c-0.48-0.81-1.12-1.45-1.93-1.93c-0.81-0.47-1.69-0.71-2.63-0.71c-1.56,0-2.86,0.58-3.9,1.75
	c-0.8-0.44-1.7-0.66-2.71-0.66c-1.41,0-2.67,0.44-3.76,1.31s-1.8,2-2.11,3.37c-1.11,0.26-2.02,0.84-2.74,1.74
	C1.84,14.7,1.48,15.73,1.48,16.88z M6.82,23.94c0.1,0.22,0.25,0.37,0.46,0.45c0.2,0.1,0.41,0.11,0.63,0.02
	c0.22-0.08,0.37-0.23,0.45-0.45c0.1-0.22,0.11-0.43,0.02-0.65c-0.08-0.21-0.23-0.36-0.45-0.44c-0.2-0.11-0.41-0.12-0.62-0.03
	c-0.22,0.09-0.37,0.24-0.47,0.47C6.74,23.49,6.73,23.7,6.82,23.94z M7.46,21.1c0,0.14,0.03,0.27,0.09,0.38
	c0.19,0.31,0.49,0.46,0.89,0.46c0.32,0,0.55-0.22,0.69-0.65l1.04-3.22c0.08-0.24,0.06-0.47-0.07-0.67s-0.31-0.33-0.55-0.37
	C9.34,16.98,9.13,17,8.93,17.1c-0.2,0.11-0.34,0.28-0.41,0.5l-1.03,3.22C7.47,20.92,7.46,21.02,7.46,21.1z M9.33,26.72
	c0,0.13,0.02,0.23,0.05,0.29c0.09,0.22,0.24,0.37,0.45,0.45c0.09,0.05,0.21,0.07,0.35,0.07c0.06,0,0.16-0.02,0.3-0.06
	c0.22-0.08,0.38-0.23,0.47-0.45s0.1-0.44,0-0.66c-0.1-0.22-0.25-0.37-0.45-0.45s-0.41-0.08-0.62,0c-0.19,0.07-0.33,0.19-0.42,0.35
	C9.37,26.42,9.33,26.58,9.33,26.72z M9.94,4.57c0,0.25,0.08,0.45,0.24,0.6l0.65,0.65c0.16,0.16,0.34,0.25,0.54,0.27
	c0.21,0.03,0.41-0.05,0.61-0.23c0.2-0.18,0.3-0.4,0.3-0.64c0-0.24-0.08-0.44-0.24-0.6l-0.64-0.64c-0.19-0.17-0.39-0.25-0.62-0.25
	c-0.24,0-0.45,0.08-0.61,0.24C10.02,4.14,9.94,4.34,9.94,4.57z M10.06,24.03c0,0.16,0.05,0.32,0.16,0.48s0.27,0.27,0.48,0.33
	c0.11,0.02,0.19,0.04,0.24,0.04c0.15,0,0.28-0.03,0.38-0.08c0.2-0.08,0.34-0.27,0.43-0.57l1.8-6.14c0.07-0.24,0.05-0.45-0.06-0.65
	c-0.11-0.2-0.27-0.33-0.5-0.39c-0.24-0.07-0.46-0.05-0.66,0.06c-0.2,0.11-0.34,0.27-0.41,0.51l-1.84,6.19
	C10.07,23.92,10.06,24,10.06,24.03z M13.51,23.64c0,0.13,0.02,0.23,0.07,0.31c0.09,0.21,0.24,0.35,0.45,0.44
	c0.11,0.05,0.22,0.08,0.35,0.08c0.06,0,0.16-0.02,0.3-0.06c0.23-0.09,0.38-0.23,0.46-0.44c0.08-0.22,0.08-0.43,0-0.63
	c-0.08-0.2-0.22-0.35-0.42-0.45c-0.23-0.11-0.44-0.12-0.66-0.03c-0.21,0.09-0.37,0.24-0.48,0.47
	C13.53,23.41,13.51,23.51,13.51,23.64z M14.23,21.08c0,0.16,0.05,0.31,0.15,0.45c0.1,0.15,0.26,0.25,0.46,0.31
	c0.09,0.02,0.17,0.03,0.25,0.03c0.39,0,0.65-0.2,0.79-0.61l1.03-3.18c0.08-0.23,0.05-0.45-0.07-0.65s-0.29-0.33-0.52-0.39
	c-0.24-0.07-0.45-0.05-0.64,0.06s-0.32,0.27-0.4,0.51l-1.02,3.2C14.25,20.94,14.23,21.03,14.23,21.08z M15.3,9
	c0.67-0.64,1.5-0.97,2.48-0.97c0.98,0,1.81,0.34,2.5,1.03c0.69,0.68,1.04,1.51,1.04,2.49c0,0.62-0.17,1.24-0.52,1.85
	c-0.96-0.96-2.12-1.44-3.51-1.44H17C16.7,10.8,16.14,9.81,15.3,9z M16.92,3.73c0,0.24,0.08,0.44,0.25,0.61
	c0.17,0.17,0.37,0.25,0.61,0.25c0.23,0,0.43-0.08,0.59-0.25c0.16-0.17,0.24-0.37,0.24-0.61V1.67c0-0.24-0.08-0.44-0.24-0.61
	c-0.16-0.17-0.35-0.25-0.59-0.25c-0.24,0-0.44,0.08-0.61,0.25c-0.17,0.17-0.25,0.37-0.25,0.61V3.73z M22.47,6.02
	c0,0.24,0.08,0.44,0.25,0.6c0.15,0.17,0.34,0.26,0.58,0.26c0.23,0,0.44-0.09,0.6-0.26l1.44-1.44c0.18-0.15,0.27-0.35,0.27-0.6
	c0-0.24-0.09-0.44-0.26-0.61c-0.17-0.17-0.38-0.25-0.61-0.25c-0.22,0-0.41,0.09-0.57,0.27l-1.45,1.43
	C22.56,5.57,22.47,5.78,22.47,6.02z M23.28,17.92c0,0.23,0.08,0.43,0.24,0.6l0.66,0.63c0.14,0.18,0.34,0.27,0.6,0.27
	c0.24,0,0.43-0.09,0.57-0.27c0.18-0.16,0.27-0.36,0.27-0.6c0-0.24-0.09-0.44-0.27-0.61l-0.65-0.62c-0.16-0.18-0.35-0.26-0.58-0.26
	s-0.43,0.08-0.6,0.25C23.36,17.48,23.28,17.69,23.28,17.92z M24.74,11.55c0,0.24,0.09,0.44,0.26,0.6c0.18,0.18,0.38,0.26,0.62,0.26
	h2.03c0.24,0,0.44-0.08,0.61-0.25c0.17-0.17,0.26-0.37,0.26-0.61c0-0.23-0.08-0.43-0.25-0.59c-0.17-0.16-0.38-0.24-0.62-0.24h-2.03
	c-0.25,0-0.46,0.08-0.63,0.24C24.83,11.12,24.74,11.32,24.74,11.55z"/>
</svg>
