<?xml version="1.0" encoding="utf-8"?>
<!-- Generator: Adobe Illustrator 22.0.1, SVG Export Plug-In . SVG Version: 6.00 Build 0)  -->
<svg version="1.1" id="Layer_1" xmlns="http://www.w3.org/2000/svg" xmlns:xlink="http://www.w3.org/1999/xlink" x="0px" y="0px"
	 viewBox="0 0 30 30" style="enable-background:new 0 0 30 30;" xml:space="preserve">
<path d="M10.03,14.31V9.84c0-0.3,0.1-0.55,0.3-0.75s0.45-0.3,0.74-0.3h4.48c0.29,0,0.54,0.1,0.74,0.3s0.3,0.45,0.3,0.75
	c0,0.29-0.1,0.53-0.3,0.73s-0.45,0.29-0.74,0.29h-1.95l6.06,6.06c0.18,0.21,0.26,0.46,0.26,0.78c0,0.29-0.09,0.53-0.26,0.72
	c-0.2,0.19-0.46,0.28-0.79,0.28c-0.3,0-0.55-0.09-0.73-0.28l-6.02-6.05v1.95c0,0.3-0.1,0.55-0.3,0.75c-0.2,0.2-0.45,0.3-0.75,0.3
	c-0.29,0-0.54-0.1-0.74-0.31S10.03,14.6,10.03,14.31z"/>
</svg>
