<?xml version="1.0" encoding="utf-8"?>
<!-- Generator: Adobe Illustrator 22.0.1, SVG Export Plug-In . SVG Version: 6.00 Build 0)  -->
<svg version="1.1" id="Layer_1" xmlns="http://www.w3.org/2000/svg" xmlns:xlink="http://www.w3.org/1999/xlink" x="0px" y="0px"
	 viewBox="0 0 30 30" style="enable-background:new 0 0 30 30;" xml:space="preserve">
<path d="M13.19,9.21c0-0.5,0.18-0.93,0.53-1.28c0.36-0.36,0.78-0.53,1.28-0.53c0.49,0,0.92,0.18,1.27,0.53
	c0.35,0.36,0.53,0.78,0.53,1.28s-0.18,0.93-0.53,1.29c-0.35,0.36-0.78,0.54-1.27,0.54c-0.49,0-0.92-0.18-1.28-0.54
	S13.19,9.71,13.19,9.21z M14.07,9.21c0,0.26,0.09,0.48,0.27,0.67c0.19,0.19,0.41,0.28,0.67,0.28c0.26,0,0.48-0.09,0.67-0.28
	s0.28-0.41,0.28-0.67c0-0.26-0.09-0.48-0.28-0.66c-0.19-0.18-0.41-0.28-0.67-0.28c-0.26,0-0.48,0.09-0.67,0.27
	C14.16,8.72,14.07,8.94,14.07,9.21z"/>
</svg>
