<?xml version="1.0" encoding="utf-8"?>
<!-- Generator: Adobe Illustrator 22.0.1, SVG Export Plug-In . SVG Version: 6.00 Build 0)  -->
<svg version="1.1" id="Layer_1" xmlns="http://www.w3.org/2000/svg" xmlns:xlink="http://www.w3.org/1999/xlink" x="0px" y="0px"
	 viewBox="0 0 30 30" style="enable-background:new 0 0 30 30;" xml:space="preserve">
<path d="M1.56,16.9c0,1.33,0.46,2.47,1.39,3.43c0.93,0.96,2.06,1.47,3.4,1.53c0.11,0,0.17-0.06,0.17-0.17v-1.37
	c0-0.12-0.06-0.18-0.17-0.18c-0.87-0.07-1.6-0.41-2.19-1.04c-0.59-0.62-0.89-1.36-0.89-2.21c0-0.84,0.28-1.57,0.85-2.19
	s1.26-0.97,2.1-1.04l0.52-0.08c0.13,0,0.2-0.06,0.2-0.17l0.06-0.51c0.11-1.08,0.56-1.99,1.37-2.71c0.81-0.73,1.76-1.09,2.86-1.09
	c1.09,0,2.04,0.36,2.85,1.09c0.81,0.72,1.27,1.63,1.39,2.72l0.07,0.58c0,0.11,0.06,0.17,0.19,0.17h1.6c0.91,0,1.68,0.32,2.32,0.95
	c0.64,0.63,0.96,1.39,0.96,2.28c0,0.85-0.3,1.59-0.89,2.21c-0.59,0.62-1.32,0.97-2.19,1.04c-0.13,0-0.2,0.06-0.2,0.18v1.37
	c0,0.11,0.07,0.17,0.2,0.17c1.33-0.04,2.46-0.55,3.38-1.51s1.38-2.11,1.38-3.45c0-0.68-0.16-1.37-0.47-2.07
	C22.6,13.89,23,12.8,23,11.56c0-0.71-0.14-1.39-0.42-2.04c-0.28-0.65-0.65-1.2-1.12-1.67s-1.03-0.84-1.67-1.12
	c-0.65-0.27-1.32-0.41-2.03-0.41c-1.54,0-2.84,0.58-3.88,1.73c-0.86-0.41-1.74-0.62-2.65-0.62c-1.42,0-2.67,0.43-3.76,1.3
	s-1.79,1.99-2.1,3.37c-1.1,0.26-2.01,0.83-2.73,1.73S1.56,15.75,1.56,16.9z M9.06,28.17h0.3l5.32-7.85
	c0.04-0.04,0.05-0.09,0.02-0.14s-0.07-0.07-0.14-0.07h-2.18l2.3-4.21c0.07-0.14,0.03-0.22-0.14-0.22h-2.94
	c-0.08,0-0.15,0.05-0.22,0.14l-2.16,5.72c-0.02,0.14,0.02,0.21,0.14,0.21h2.17L9.06,28.17z M9.94,4.59c0,0.25,0.08,0.46,0.24,0.62
	l0.66,0.65c0.42,0.32,0.82,0.32,1.21,0c0.16-0.18,0.24-0.39,0.24-0.64c0-0.23-0.08-0.43-0.24-0.59l-0.64-0.65
	c-0.19-0.17-0.39-0.25-0.62-0.25c-0.23,0-0.43,0.08-0.6,0.25C10.02,4.15,9.94,4.36,9.94,4.59z M15.28,9.02
	C15.96,8.34,16.79,8,17.76,8c0.98,0,1.81,0.35,2.49,1.04c0.69,0.69,1.03,1.53,1.03,2.52c0,0.61-0.17,1.21-0.51,1.81
	c-0.98-0.94-2.13-1.41-3.46-1.41h-0.31C16.74,10.82,16.16,9.84,15.28,9.02z M16.9,3.73c0,0.25,0.08,0.46,0.24,0.62
	c0.16,0.16,0.36,0.24,0.61,0.24c0.24,0,0.43-0.08,0.59-0.24c0.16-0.16,0.23-0.37,0.23-0.62V1.69c0-0.24-0.08-0.43-0.23-0.59
	c-0.16-0.16-0.35-0.23-0.59-0.23c-0.24,0-0.44,0.08-0.6,0.23S16.9,1.45,16.9,1.69V3.73z M22.42,6.05c0,0.23,0.09,0.43,0.27,0.6
	c0.18,0.17,0.37,0.25,0.55,0.25c0.16,0,0.37-0.08,0.62-0.25l1.44-1.43c0.17-0.18,0.25-0.39,0.25-0.63c0-0.24-0.08-0.45-0.25-0.61
	c-0.17-0.16-0.37-0.24-0.6-0.24c-0.22,0-0.41,0.08-0.58,0.25l-1.43,1.43C22.51,5.61,22.42,5.82,22.42,6.05z M23.23,17.87
	c0,0.23,0.08,0.43,0.24,0.61l0.65,0.66c0.16,0.16,0.36,0.24,0.58,0.24c0.24,0,0.44-0.08,0.6-0.25c0.17-0.17,0.25-0.38,0.25-0.63
	c0-0.23-0.08-0.42-0.25-0.57l-0.62-0.66c-0.19-0.16-0.39-0.23-0.62-0.23c-0.23,0-0.43,0.08-0.59,0.24
	C23.31,17.44,23.23,17.64,23.23,17.87z M24.68,11.56c0,0.22,0.09,0.41,0.26,0.57c0.17,0.17,0.37,0.25,0.6,0.25h2.04
	c0.24,0,0.44-0.08,0.61-0.24c0.17-0.16,0.25-0.35,0.25-0.59c0-0.24-0.09-0.44-0.26-0.61s-0.37-0.25-0.6-0.25h-2.04
	c-0.23,0-0.43,0.08-0.6,0.25C24.77,11.12,24.68,11.32,24.68,11.56z"/>
</svg>
