<?xml version="1.0" encoding="utf-8"?>
<!-- Generator: Adobe Illustrator 22.0.1, SVG Export Plug-In . SVG Version: 6.00 Build 0)  -->
<svg version="1.1" id="Layer_1" xmlns="http://www.w3.org/2000/svg" xmlns:xlink="http://www.w3.org/1999/xlink" x="0px" y="0px"
	 viewBox="0 0 30 30" style="enable-background:new 0 0 30 30;" xml:space="preserve">
<path d="M1.51,16.89c0,1.33,0.46,2.48,1.39,3.44s2.06,1.47,3.41,1.53c0.11,0,0.17-0.06,0.17-0.17v-1.34c0-0.11-0.06-0.17-0.17-0.17
	c-0.86-0.04-1.59-0.39-2.19-1.03s-0.9-1.4-0.9-2.26c0-0.82,0.28-1.54,0.85-2.16s1.27-0.97,2.1-1.07l0.53-0.05
	c0.13,0,0.2-0.06,0.2-0.17l0.07-0.54c0.11-1.08,0.56-1.99,1.37-2.72s1.76-1.1,2.85-1.1c1.09,0,2.04,0.37,2.86,1.1
	s1.28,1.64,1.4,2.72l0.07,0.57c0,0.12,0.06,0.19,0.17,0.19h1.62c0.89,0,1.65,0.32,2.3,0.96c0.65,0.64,0.97,1.39,0.97,2.27
	c0,0.87-0.3,1.62-0.9,2.26c-0.6,0.64-1.33,0.98-2.18,1.03c-0.12,0-0.19,0.06-0.19,0.17v1.34c0,0.11,0.06,0.17,0.19,0.17
	c1.33-0.04,2.46-0.55,3.39-1.51c0.93-0.97,1.39-2.12,1.39-3.45c0-0.72-0.14-1.39-0.42-2.01c0.78-0.97,1.17-2.07,1.17-3.31
	c0-0.95-0.24-1.83-0.71-2.64c-0.47-0.81-1.11-1.45-1.92-1.92s-1.68-0.7-2.62-0.7c-1.56,0-2.85,0.58-3.88,1.74
	c-0.82-0.44-1.72-0.66-2.71-0.66c-1.41,0-2.67,0.44-3.76,1.32s-1.79,2-2.1,3.36c-1.11,0.26-2.02,0.84-2.74,1.74
	S1.51,15.74,1.51,16.89z M6.91,23.75c0,0.17,0.05,0.33,0.16,0.49c0.11,0.16,0.27,0.27,0.49,0.33c0.11,0.02,0.2,0.04,0.27,0.04
	c0.39,0,0.65-0.21,0.77-0.64l1.58-5.88c0.07-0.24,0.04-0.46-0.08-0.67c-0.12-0.21-0.3-0.33-0.53-0.38
	c-0.22-0.07-0.43-0.05-0.63,0.07c-0.2,0.11-0.34,0.28-0.41,0.51l-1.58,5.91C6.93,23.66,6.91,23.73,6.91,23.75z M9.52,26.83
	c0,0.19,0.05,0.36,0.15,0.52c0.1,0.16,0.27,0.26,0.52,0.3c0.11,0.02,0.2,0.04,0.26,0.04c0.16,0,0.31-0.06,0.45-0.17
	c0.14-0.12,0.23-0.28,0.27-0.48l2.4-8.93c0.06-0.23,0.04-0.45-0.07-0.64s-0.28-0.33-0.5-0.4c-0.23-0.07-0.45-0.05-0.65,0.07
	c-0.2,0.11-0.34,0.28-0.4,0.51l-2.4,8.93C9.53,26.73,9.52,26.82,9.52,26.83z M9.94,4.6c0,0.24,0.08,0.44,0.25,0.61l0.65,0.66
	c0.19,0.15,0.4,0.22,0.62,0.22c0.21,0,0.41-0.08,0.58-0.23c0.17-0.16,0.26-0.35,0.26-0.59c0-0.24-0.08-0.46-0.24-0.64l-0.64-0.65
	c-0.18-0.17-0.38-0.25-0.6-0.25c-0.24,0-0.45,0.09-0.62,0.26C10.03,4.16,9.94,4.37,9.94,4.6z M13.67,23.77
	c0,0.16,0.05,0.32,0.15,0.47s0.26,0.26,0.46,0.32c0.11,0.02,0.2,0.04,0.25,0.04c0.17,0,0.34-0.05,0.49-0.15
	c0.15-0.1,0.25-0.26,0.3-0.49l1.58-5.88c0.06-0.23,0.04-0.45-0.07-0.64c-0.11-0.2-0.28-0.33-0.5-0.4c-0.24-0.07-0.45-0.05-0.65,0.07
	c-0.2,0.11-0.33,0.28-0.39,0.51l-1.58,5.91C13.69,23.68,13.67,23.76,13.67,23.77z M15.3,9.03c0.71-0.67,1.53-1,2.48-1
	c0.98,0,1.82,0.35,2.5,1.04c0.69,0.69,1.03,1.53,1.03,2.52c0,0.62-0.17,1.24-0.52,1.85c-0.97-0.97-2.13-1.45-3.49-1.45h-0.33
	C16.7,10.81,16.14,9.83,15.3,9.03z M16.92,3.78c0,0.23,0.08,0.43,0.25,0.59c0.17,0.16,0.37,0.24,0.61,0.24
	c0.23,0,0.43-0.08,0.59-0.23c0.16-0.16,0.24-0.35,0.24-0.59V1.73c0-0.26-0.08-0.47-0.23-0.63c-0.16-0.16-0.35-0.24-0.59-0.24
	c-0.25,0-0.46,0.08-0.62,0.25s-0.24,0.37-0.24,0.62V3.78z M22.45,6.06c0,0.24,0.09,0.44,0.27,0.59c0.14,0.16,0.32,0.24,0.55,0.26
	c0.23,0.02,0.44-0.07,0.62-0.26l1.44-1.43c0.18-0.17,0.26-0.38,0.26-0.63c0-0.24-0.08-0.45-0.25-0.61
	c-0.17-0.16-0.37-0.24-0.61-0.24c-0.21,0-0.4,0.08-0.58,0.25l-1.43,1.44C22.54,5.6,22.45,5.81,22.45,6.06z M23.26,17.91
	c0,0.24,0.08,0.45,0.24,0.63l0.65,0.63c0.18,0.14,0.38,0.21,0.6,0.21l0.02,0.02c0.23,0,0.42-0.08,0.58-0.24
	c0.16-0.16,0.24-0.37,0.24-0.61c0-0.24-0.09-0.43-0.26-0.58l-0.62-0.66c-0.18-0.16-0.39-0.24-0.62-0.24s-0.43,0.08-0.59,0.25
	S23.26,17.67,23.26,17.91z M24.72,11.58c0,0.24,0.09,0.43,0.26,0.59c0.18,0.18,0.38,0.26,0.62,0.26h2.03c0.24,0,0.44-0.08,0.61-0.25
	c0.17-0.17,0.25-0.37,0.25-0.6c0-0.24-0.08-0.44-0.25-0.61s-0.37-0.26-0.61-0.26H25.6c-0.24,0-0.44,0.09-0.62,0.26
	C24.8,11.14,24.72,11.34,24.72,11.58z"/>
</svg>
