<?xml version="1.0" encoding="utf-8"?>
<!-- Generator: Adobe Illustrator 22.0.1, SVG Export Plug-In . SVG Version: 6.00 Build 0)  -->
<svg version="1.1" id="Layer_1" xmlns="http://www.w3.org/2000/svg" xmlns:xlink="http://www.w3.org/1999/xlink" x="0px" y="0px"
	 viewBox="0 0 30 30" style="enable-background:new 0 0 30 30;" xml:space="preserve">
<path d="M0.45,20.97c0,0.24,0.08,0.45,0.24,0.61c0.44,0.18,0.73,0.27,0.88,0.27h7.88c0.24,0,0.44-0.09,0.6-0.26
	c0.17-0.17,0.25-0.38,0.25-0.61c0-0.23-0.08-0.43-0.25-0.59c-0.17-0.16-0.37-0.24-0.6-0.24H1.57c-0.26,0-0.52,0.08-0.76,0.24
	C0.57,20.55,0.45,20.75,0.45,20.97z M1.84,17.97c0,0.24,0.08,0.43,0.25,0.59c0.15,0.17,0.34,0.26,0.58,0.26h9.4
	c0.24,0,0.44-0.08,0.61-0.25c0.17-0.17,0.25-0.37,0.25-0.6c0-0.24-0.08-0.44-0.25-0.61c-0.17-0.17-0.37-0.25-0.61-0.25h-9.4
	c-0.23,0-0.43,0.08-0.59,0.25C1.92,17.53,1.84,17.73,1.84,17.97z M2.89,15.6c0,0.09,0.06,0.13,0.17,0.13h1.39
	c0.12,0,0.19-0.04,0.22-0.13c0.26-0.53,0.62-0.97,1.09-1.32c0.47-0.35,1-0.55,1.58-0.62h0.54c0.11,0,0.16-0.06,0.16-0.19l0.07-0.56
	c0.07-0.71,0.3-1.36,0.69-1.95c0.39-0.58,0.9-1.04,1.53-1.37s1.3-0.5,2.02-0.5c1.09,0,2.04,0.37,2.85,1.1s1.27,1.64,1.39,2.72
	l0.07,0.56c0,0.12,0.06,0.19,0.18,0.19h1.6c0.89,0,1.65,0.32,2.3,0.96c0.65,0.64,0.97,1.39,0.97,2.27c0,0.9-0.32,1.67-0.97,2.31
	c-0.64,0.64-1.41,0.96-2.31,0.96h-6.89c-0.11,0-0.17,0.06-0.17,0.19v1.33c0,0.12,0.06,0.18,0.17,0.18h6.89
	c0.9,0,1.73-0.22,2.49-0.67c0.76-0.44,1.37-1.05,1.81-1.81c0.44-0.76,0.67-1.59,0.67-2.49c0-0.73-0.14-1.39-0.43-2.01
	c0.78-0.96,1.16-2.06,1.16-3.28c0-0.94-0.24-1.81-0.71-2.62c-0.47-0.81-1.11-1.45-1.92-1.92c-0.81-0.47-1.69-0.71-2.63-0.71
	c-0.73,0-1.43,0.15-2.1,0.45c-0.67,0.3-1.25,0.71-1.74,1.25c-0.83-0.43-1.73-0.65-2.7-0.65c-1.41,0-2.67,0.44-3.76,1.31
	s-1.79,1.99-2.09,3.36c-0.85,0.21-1.6,0.63-2.25,1.25s-1.1,1.36-1.35,2.21C2.9,15.55,2.89,15.57,2.89,15.6z M3.6,24.16
	c0,0.24,0.09,0.43,0.26,0.59C4.02,24.92,4.22,25,4.45,25h9.42c0.23,0,0.43-0.08,0.59-0.25s0.24-0.36,0.24-0.6
	c0-0.25-0.08-0.46-0.24-0.62s-0.36-0.25-0.6-0.25H4.45c-0.24,0-0.44,0.08-0.6,0.25S3.6,23.91,3.6,24.16z M11.09,4.65
	c0,0.25,0.08,0.45,0.24,0.6l0.64,0.66c0.16,0.16,0.36,0.24,0.6,0.24c0.26,0,0.46-0.08,0.62-0.24c0.16-0.16,0.24-0.36,0.24-0.61
	c0-0.23-0.08-0.43-0.24-0.59l-0.65-0.65c-0.17-0.17-0.36-0.25-0.57-0.25c-0.25,0-0.46,0.08-0.63,0.25S11.09,4.42,11.09,4.65z
	 M16.45,9.03c0.66-0.63,1.48-0.95,2.45-0.95c0.97,0,1.8,0.34,2.49,1.03c0.68,0.68,1.03,1.51,1.03,2.49c0,0.67-0.15,1.27-0.46,1.81
	c-0.94-0.95-2.11-1.43-3.5-1.43h-0.3C17.87,10.83,17.3,9.85,16.45,9.03z M18.05,3.81c0,0.24,0.08,0.43,0.25,0.59s0.36,0.23,0.6,0.23
	c0.25,0,0.45-0.08,0.6-0.23c0.15-0.15,0.23-0.35,0.23-0.6V1.76c0-0.24-0.08-0.45-0.23-0.61c-0.16-0.17-0.36-0.25-0.6-0.25
	c-0.23,0-0.43,0.08-0.6,0.25s-0.25,0.37-0.25,0.61V3.81z M23.57,6.09c0,0.24,0.08,0.44,0.25,0.6c0.12,0.16,0.33,0.24,0.6,0.24
	c0.27,0,0.47-0.08,0.59-0.24l1.46-1.44c0.16-0.15,0.24-0.36,0.24-0.62c0-0.23-0.08-0.43-0.25-0.6c-0.17-0.17-0.37-0.25-0.6-0.25
	s-0.44,0.08-0.61,0.23L23.83,5.5C23.66,5.67,23.57,5.86,23.57,6.09z M24.37,17.95c0,0.24,0.08,0.44,0.23,0.6l0.66,0.63
	c0.24,0.18,0.45,0.27,0.61,0.27c0.16,0,0.37-0.09,0.61-0.27c0.16-0.16,0.24-0.36,0.24-0.6c0-0.23-0.08-0.43-0.24-0.61l-0.64-0.61
	c-0.19-0.17-0.4-0.26-0.65-0.26c-0.24,0-0.43,0.08-0.59,0.24C24.45,17.51,24.37,17.71,24.37,17.95z M25.81,11.63
	c0,0.24,0.09,0.45,0.27,0.61c0.18,0.17,0.38,0.25,0.6,0.25h2.03c0.23,0,0.42-0.08,0.59-0.25c0.17-0.17,0.25-0.37,0.25-0.61
	c0-0.22-0.08-0.41-0.24-0.57c-0.16-0.15-0.36-0.23-0.59-0.23h-2.03c-0.24,0-0.45,0.08-0.62,0.23C25.9,11.22,25.81,11.41,25.81,11.63
	z"/>
</svg>
