<?xml version="1.0" encoding="utf-8"?>
<!-- Generator: Adobe Illustrator 22.0.1, SVG Export Plug-In . SVG Version: 6.00 Build 0)  -->
<svg version="1.1" id="Layer_1" xmlns="http://www.w3.org/2000/svg" xmlns:xlink="http://www.w3.org/1999/xlink" x="0px" y="0px"
	 viewBox="0 0 30 30" style="enable-background:new 0 0 30 30;" xml:space="preserve">
<path d="M4.64,16.9c0,1.33,0.46,2.47,1.39,3.43c0.93,0.96,2.06,1.47,3.4,1.53c0.11,0,0.17-0.06,0.17-0.17v-1.34
	c0-0.11-0.06-0.17-0.17-0.17c-0.86-0.04-1.58-0.38-2.18-1.02c-0.6-0.64-0.9-1.39-0.9-2.26c0-0.83,0.28-1.54,0.84-2.16
	c0.56-0.61,1.26-0.97,2.09-1.07l0.53-0.03c0.13,0,0.2-0.06,0.2-0.19l0.06-0.53c0.11-1.08,0.56-1.99,1.37-2.71
	c0.81-0.73,1.76-1.09,2.85-1.09c1.09,0,2.04,0.36,2.85,1.09c0.81,0.73,1.27,1.63,1.39,2.71l0.08,0.58c0,0.11,0.06,0.17,0.18,0.17
	h1.61c0.89,0,1.66,0.32,2.31,0.96c0.65,0.64,0.98,1.39,0.98,2.27c0,0.87-0.3,1.62-0.9,2.26c-0.6,0.64-1.33,0.98-2.18,1.02
	c-0.13,0-0.2,0.06-0.2,0.17v1.34c0,0.11,0.07,0.17,0.2,0.17c0.87-0.02,1.67-0.26,2.4-0.71c0.73-0.45,1.31-1.05,1.73-1.8
	c0.42-0.75,0.63-1.57,0.63-2.44c0-0.89-0.22-1.72-0.67-2.47c-0.44-0.75-1.05-1.35-1.81-1.78S21.29,12,20.4,12h-0.32
	c-0.32-1.34-1.03-2.43-2.1-3.28s-2.3-1.28-3.68-1.28c-1.41,0-2.66,0.44-3.75,1.31c-1.09,0.87-1.79,1.99-2.1,3.35
	c-1.11,0.26-2.02,0.83-2.73,1.73S4.64,15.75,4.64,16.9z M10.09,24.1c0.09,0.21,0.25,0.37,0.46,0.46c0.2,0.1,0.41,0.11,0.62,0.02
	c0.22-0.09,0.36-0.24,0.45-0.45c0.1-0.22,0.11-0.43,0.02-0.64c-0.08-0.21-0.24-0.35-0.45-0.44c-0.2-0.11-0.4-0.12-0.61-0.03
	c-0.21,0.09-0.36,0.24-0.46,0.47C10.01,23.66,10.01,23.86,10.09,24.1z M10.72,21.28c0,0.16,0.05,0.31,0.15,0.45
	c0.1,0.15,0.26,0.25,0.46,0.32c0.19,0.11,0.4,0.12,0.62,0.01c0.22-0.1,0.37-0.3,0.44-0.6l0.9-3.38c0.06-0.25,0.04-0.47-0.08-0.67
	c-0.12-0.2-0.29-0.32-0.53-0.36c-0.08-0.02-0.16-0.03-0.24-0.03c-0.16,0-0.32,0.05-0.47,0.15c-0.15,0.1-0.26,0.25-0.32,0.44
	l-0.88,3.39C10.73,21.16,10.72,21.25,10.72,21.28z M12.58,26.87c0,0.12,0.02,0.22,0.06,0.29c0.09,0.22,0.24,0.37,0.45,0.45
	c0.09,0.05,0.2,0.08,0.33,0.08c0.06,0,0.16-0.02,0.3-0.06c0.22-0.08,0.38-0.23,0.47-0.45c0.1-0.22,0.1-0.44,0-0.66
	c-0.1-0.22-0.25-0.37-0.45-0.46c-0.2-0.09-0.4-0.09-0.62,0c-0.19,0.08-0.32,0.2-0.41,0.36C12.62,26.58,12.58,26.73,12.58,26.87z
	 M13.31,24.26c0,0.37,0.21,0.61,0.63,0.73c0.11,0.03,0.19,0.04,0.24,0.04c0.15,0,0.28-0.03,0.38-0.08c0.21-0.08,0.35-0.27,0.42-0.57
	l1.67-6.29c0.06-0.24,0.04-0.45-0.06-0.65c-0.1-0.19-0.27-0.32-0.49-0.38c-0.08-0.02-0.17-0.03-0.27-0.03
	c-0.16,0-0.32,0.05-0.48,0.15c-0.16,0.1-0.26,0.25-0.3,0.44l-1.71,6.34C13.32,24.1,13.31,24.2,13.31,24.26z M16.74,23.8
	c0,0.12,0.02,0.23,0.08,0.32c0.08,0.19,0.23,0.34,0.44,0.44c0.11,0.04,0.23,0.07,0.35,0.07c0.06,0,0.16-0.02,0.3-0.06
	c0.21-0.08,0.37-0.23,0.46-0.44c0.07-0.22,0.07-0.43-0.01-0.63c-0.08-0.2-0.22-0.35-0.42-0.45c-0.23-0.11-0.44-0.12-0.65-0.03
	c-0.21,0.09-0.36,0.24-0.46,0.47C16.77,23.59,16.74,23.69,16.74,23.8z M17.47,21.23c0,0.14,0.05,0.29,0.16,0.45
	c0.11,0.16,0.26,0.27,0.45,0.33c0.16,0.03,0.25,0.05,0.27,0.05c0.09,0,0.22-0.03,0.37-0.1c0.2-0.09,0.33-0.27,0.4-0.52l0.9-3.34
	c0.02-0.17,0.03-0.26,0.03-0.26c0-0.16-0.05-0.31-0.15-0.46c-0.1-0.15-0.25-0.25-0.45-0.31c-0.09-0.02-0.18-0.03-0.26-0.03
	c-0.16,0-0.32,0.05-0.47,0.15s-0.25,0.25-0.31,0.45l-0.9,3.36L17.47,21.23z"/>
</svg>
