<?xml version="1.0" encoding="utf-8"?>
<!-- Generator: Adobe Illustrator 22.0.1, SVG Export Plug-In . SVG Version: 6.00 Build 0)  -->
<svg version="1.1" id="Layer_1" xmlns="http://www.w3.org/2000/svg" xmlns:xlink="http://www.w3.org/1999/xlink" x="0px" y="0px"
	 viewBox="0 0 30 30" style="enable-background:new 0 0 30 30;" xml:space="preserve">
<path d="M3.74,14.44c0,2.04,0.5,3.93,1.51,5.65s2.37,3.1,4.09,4.1s3.61,1.51,5.65,1.51c-1.46-0.56-2.72-1.18-3.79-1.88
	s-1.93-1.39-2.57-2.1s-1.15-1.49-1.53-2.34s-0.64-1.66-0.77-2.42s-0.2-1.6-0.2-2.52c0-0.65,0.03-1.26,0.08-1.81s0.16-1.14,0.32-1.77
	s0.38-1.21,0.64-1.75s0.63-1.09,1.08-1.66s0.98-1.1,1.59-1.57s1.34-0.95,2.21-1.42s1.85-0.89,2.93-1.27c-2.04,0-3.92,0.5-5.65,1.51
	S6.26,7.07,5.25,8.8S3.74,12.4,3.74,14.44z"/>
</svg>
