<?xml version="1.0" encoding="utf-8"?>
<!-- Generator: Adobe Illustrator 22.0.1, SVG Export Plug-In . SVG Version: 6.00 Build 0)  -->
<svg version="1.1" id="Layer_1" xmlns="http://www.w3.org/2000/svg" xmlns:xlink="http://www.w3.org/1999/xlink" x="0px" y="0px"
	 viewBox="0 0 30 30" style="enable-background:new 0 0 30 30;" xml:space="preserve">
<path d="M3.74,14.44c0-1.53,0.3-3,0.89-4.39s1.4-2.59,2.4-3.6s2.2-1.81,3.6-2.4s2.85-0.89,4.37-0.89c1.53,0,3,0.3,4.39,0.89
	s2.59,1.4,3.6,2.4s1.81,2.2,2.4,3.6s0.89,2.85,0.89,4.39c0,1.52-0.3,2.98-0.89,4.37s-1.4,2.59-2.4,3.6s-2.2,1.81-3.6,2.4
	s-2.85,0.89-4.39,0.89c-1.52,0-2.98-0.3-4.37-0.89s-2.59-1.4-3.6-2.4s-1.81-2.2-2.4-3.6S3.74,15.97,3.74,14.44z M9.13,14.43
	c0,4.68,1.48,8,4.45,9.98c0.44,0.07,0.91,0.1,1.42,0.1c1.37,0,2.67-0.27,3.91-0.8s2.31-1.25,3.22-2.15s1.62-1.97,2.15-3.22
	s0.8-2.55,0.8-3.9c0-1.82-0.45-3.5-1.35-5.05s-2.13-2.77-3.68-3.68s-3.23-1.35-5.05-1.35c-0.45,0-0.84,0.02-1.19,0.06
	c-1.4,1.06-2.53,2.46-3.39,4.2S9.13,12.29,9.13,14.43z"/>
</svg>
