<?xml version="1.0" encoding="utf-8"?>
<!-- Generator: Adobe Illustrator 22.0.1, SVG Export Plug-In . SVG Version: 6.00 Build 0)  -->
<svg version="1.1" id="Layer_1" xmlns="http://www.w3.org/2000/svg" xmlns:xlink="http://www.w3.org/1999/xlink" x="0px" y="0px"
	 viewBox="0 0 30 30" style="enable-background:new 0 0 30 30;" xml:space="preserve">
<path d="M3.74,14.44c0-1.52,0.3-2.98,0.89-4.37s1.4-2.58,2.4-3.59s2.2-1.81,3.59-2.4s2.84-0.89,4.37-0.89s2.98,0.3,4.37,0.89
	s2.59,1.4,3.6,2.4s1.81,2.2,2.4,3.59s0.89,2.84,0.89,4.37s-0.3,2.98-0.89,4.37s-1.4,2.59-2.4,3.6s-2.2,1.81-3.6,2.4
	s-2.85,0.89-4.37,0.89s-2.98-0.3-4.37-0.89s-2.58-1.4-3.59-2.4s-1.81-2.2-2.4-3.6S3.74,15.97,3.74,14.44z M4.94,14.44
	c0,1.37,0.27,2.67,0.8,3.91s1.25,2.31,2.15,3.21s1.97,1.61,3.21,2.15s2.54,0.8,3.9,0.8c0.36,0,0.76-0.02,1.2-0.07
	c0.93-0.57,1.71-1.24,2.35-2.03s1.12-1.64,1.43-2.56s0.53-1.8,0.65-2.65s0.18-1.77,0.18-2.75c0-1.25-0.15-2.46-0.46-3.64
	s-0.84-2.34-1.59-3.49s-1.69-2.11-2.81-2.89c-0.41-0.02-0.73-0.03-0.95-0.03c-1.36,0-2.66,0.27-3.9,0.8S8.79,6.44,7.89,7.34
	s-1.61,1.97-2.15,3.21S4.94,13.09,4.94,14.44z"/>
</svg>
