<?xml version="1.0" encoding="utf-8"?>
<!-- Generator: Adobe Illustrator 22.0.1, SVG Export Plug-In . SVG Version: 6.00 Build 0)  -->
<svg version="1.1" id="Layer_1" xmlns="http://www.w3.org/2000/svg" xmlns:xlink="http://www.w3.org/1999/xlink" x="0px" y="0px"
	 viewBox="0 0 30 30" style="enable-background:new 0 0 30 30;" xml:space="preserve">
<path d="M4.08,16.88c0,1.11,0.33,2.1,0.99,2.98s1.52,1.47,2.58,1.79l-0.66,1.69c-0.03,0.14,0.02,0.21,0.15,0.21h2.12l-0.97,3.51
	h0.29l3.91-4.94c0.04-0.05,0.04-0.1,0.01-0.15c-0.03-0.05-0.08-0.07-0.15-0.07h-2.18l2.48-4.63c0.07-0.14,0.03-0.22-0.13-0.22H9.56
	c-0.09,0-0.16,0.05-0.23,0.14l-1.07,2.88c-0.72-0.18-1.31-0.57-1.78-1.17c-0.47-0.6-0.7-1.27-0.7-2.01c0-0.83,0.28-1.55,0.85-2.17
	c0.57-0.62,1.27-0.97,2.1-1.07l0.52-0.08c0.13,0,0.2-0.06,0.2-0.17l0.07-0.52c0.11-1.08,0.56-1.99,1.37-2.72s1.76-1.1,2.85-1.1
	c1.08,0,2.03,0.37,2.85,1.1s1.29,1.64,1.41,2.71l0.07,0.59c0,0.11,0.06,0.17,0.18,0.17h1.62c0.91,0,1.68,0.32,2.33,0.95
	s0.97,1.4,0.97,2.29c0,0.85-0.3,1.59-0.9,2.21c-0.6,0.62-1.33,0.97-2.2,1.04c-0.12,0-0.19,0.06-0.19,0.17v1.38
	c0,0.12,0.06,0.18,0.19,0.18c0.88-0.03,1.68-0.27,2.41-0.72c0.73-0.45,1.31-1.05,1.73-1.8c0.42-0.75,0.63-1.57,0.63-2.45
	c0-0.87-0.22-1.68-0.66-2.45c0.79-0.76,1.31-1.63,1.56-2.62l0.14-0.72c0.01-0.01,0.02-0.04,0.02-0.07c0-0.07-0.05-0.12-0.16-0.15
	l-0.56-0.18c-0.57-0.16-1.06-0.44-1.46-0.82c-0.41-0.38-0.7-0.8-0.87-1.23c-0.17-0.44-0.26-0.88-0.26-1.32
	c0-0.26,0.03-0.53,0.08-0.8l0.14-0.61c0.04-0.1,0-0.18-0.14-0.23c-0.21-0.09-0.51-0.17-0.9-0.26c-0.39-0.09-0.77-0.13-1.15-0.13
	c-0.36,0-0.73,0.04-1.12,0.13c-0.38,0.09-0.78,0.22-1.19,0.41c-0.41,0.18-0.81,0.45-1.2,0.8c-0.39,0.35-0.72,0.75-1,1.22
	c-0.82-0.3-1.62-0.45-2.38-0.45c-1.41,0-2.67,0.44-3.76,1.31s-1.8,1.99-2.11,3.36c-1.11,0.26-2.02,0.84-2.74,1.74
	C4.44,14.69,4.08,15.72,4.08,16.88z M12.18,26.7c0,0.16,0.05,0.32,0.15,0.46c0.1,0.15,0.25,0.25,0.45,0.3
	c0.11,0.02,0.21,0.03,0.3,0.03c0.41,0,0.66-0.21,0.76-0.63l2.32-8.79c0.06-0.24,0.04-0.45-0.07-0.65c-0.11-0.2-0.28-0.33-0.5-0.39
	c-0.23-0.07-0.45-0.05-0.65,0.06c-0.2,0.11-0.34,0.27-0.4,0.49l-2.32,8.84C12.19,26.52,12.18,26.61,12.18,26.7z M16.35,23.68
	c0,0.16,0.05,0.32,0.15,0.46c0.1,0.14,0.25,0.25,0.46,0.31c0.03,0,0.08,0,0.15,0.01c0.07,0.01,0.13,0.01,0.16,0.01
	c0.38,0,0.62-0.21,0.72-0.63l1.5-5.77c0.06-0.24,0.04-0.46-0.08-0.66c-0.11-0.19-0.28-0.32-0.51-0.38
	c-0.23-0.07-0.45-0.05-0.65,0.06c-0.2,0.11-0.33,0.27-0.39,0.5l-1.5,5.82C16.36,23.51,16.35,23.6,16.35,23.68z M17.59,8.75
	c0.33-0.57,0.77-1,1.33-1.3c0.55-0.3,1.14-0.45,1.76-0.45c0.12,0,0.22,0,0.27,0.01v0.32c0,0.96,0.26,1.87,0.78,2.73
	s1.25,1.51,2.17,1.97c-0.18,0.42-0.44,0.77-0.79,1.07c-0.92-0.79-1.99-1.18-3.22-1.18h-0.32C19.29,10.66,18.63,9.61,17.59,8.75z"/>
</svg>
