<?xml version="1.0" encoding="utf-8"?>
<!-- Generator: Adobe Illustrator 22.0.1, SVG Export Plug-In . SVG Version: 6.00 Build 0)  -->
<svg version="1.1" id="Layer_1" xmlns="http://www.w3.org/2000/svg" xmlns:xlink="http://www.w3.org/1999/xlink" x="0px" y="0px"
	 viewBox="0 0 30 30" style="enable-background:new 0 0 30 30;" xml:space="preserve">
<path d="M4.07,16.93c0,1.33,0.47,2.47,1.4,3.43s2.07,1.47,3.4,1.51c0.12,0,0.18-0.06,0.18-0.17v-1.34c0-0.11-0.06-0.17-0.18-0.17
	c-0.85-0.04-1.58-0.39-2.18-1.03c-0.61-0.64-0.91-1.39-0.91-2.24c0-0.85,0.28-1.58,0.85-2.2c0.57-0.62,1.27-0.96,2.1-1.03l0.53-0.07
	c0.13,0,0.2-0.06,0.2-0.17l0.07-0.52c0.11-1.09,0.56-2.01,1.37-2.75s1.76-1.11,2.86-1.11c1.09,0,2.04,0.37,2.86,1.1
	c0.82,0.73,1.28,1.64,1.4,2.72l0.08,0.57c0,0.12,0.06,0.18,0.17,0.18h1.62c0.91,0,1.68,0.32,2.33,0.97
	c0.65,0.64,0.97,1.41,0.97,2.31c0,0.85-0.3,1.6-0.91,2.24c-0.61,0.64-1.33,0.98-2.18,1.03c-0.14,0-0.21,0.06-0.21,0.17v1.34
	c0,0.11,0.07,0.17,0.21,0.17c0.88-0.02,1.68-0.26,2.41-0.71c0.73-0.45,1.31-1.05,1.73-1.8s0.63-1.56,0.63-2.43
	c0-0.91-0.22-1.74-0.65-2.48c0.74-0.66,1.24-1.52,1.52-2.58l0.17-0.72c0.01-0.01,0.02-0.04,0.02-0.08c0-0.07-0.05-0.13-0.16-0.16
	l-0.61-0.17c-0.44-0.13-0.83-0.32-1.17-0.57s-0.61-0.53-0.81-0.84c-0.2-0.31-0.34-0.62-0.44-0.95c-0.1-0.32-0.15-0.64-0.15-0.95
	c0-0.27,0.03-0.56,0.1-0.86l0.11-0.62c0.02-0.09-0.02-0.17-0.14-0.22l-0.8-0.24c-0.44-0.11-0.85-0.16-1.25-0.16
	c-0.37,0-0.74,0.04-1.12,0.13c-0.38,0.09-0.77,0.22-1.18,0.41c-0.41,0.19-0.8,0.45-1.18,0.8c-0.38,0.35-0.71,0.75-0.99,1.22
	c-0.81-0.33-1.6-0.5-2.38-0.5c-1.41,0-2.67,0.44-3.76,1.32s-1.8,2-2.11,3.37c-1.12,0.28-2.04,0.87-2.75,1.76
	C4.43,14.74,4.07,15.77,4.07,16.93z M9.6,24.66c0,0.23,0.08,0.42,0.24,0.58c0.16,0.16,0.36,0.24,0.58,0.24
	c0.24,0,0.44-0.08,0.6-0.23c0.16-0.16,0.24-0.35,0.24-0.59c0-0.24-0.08-0.43-0.24-0.59c-0.16-0.16-0.36-0.23-0.6-0.23
	S10,23.91,9.84,24.07C9.68,24.22,9.6,24.42,9.6,24.66z M10.03,21.02c0,0.24,0.08,0.44,0.24,0.6s0.35,0.25,0.59,0.25
	c0.24,0,0.44-0.08,0.6-0.25c0.16-0.17,0.24-0.37,0.24-0.6c0-0.22-0.08-0.42-0.24-0.58c-0.16-0.16-0.36-0.24-0.6-0.24
	c-0.23,0-0.43,0.08-0.59,0.24S10.03,20.79,10.03,21.02z M12.38,26.63c0,0.22,0.08,0.41,0.24,0.57c0.17,0.17,0.36,0.25,0.58,0.25
	c0.24,0,0.44-0.08,0.61-0.24c0.17-0.16,0.25-0.35,0.25-0.59c0-0.24-0.08-0.44-0.25-0.61c-0.17-0.17-0.37-0.26-0.61-0.26
	c-0.22,0-0.41,0.09-0.58,0.26C12.46,26.19,12.38,26.4,12.38,26.63z M13.02,22.96c0,0.24,0.08,0.43,0.25,0.59
	c0.16,0.16,0.35,0.24,0.57,0.24c0.24,0,0.44-0.08,0.61-0.24c0.17-0.16,0.26-0.36,0.26-0.59c0-0.24-0.09-0.44-0.26-0.61
	c-0.17-0.17-0.38-0.26-0.61-0.26c-0.22,0-0.41,0.09-0.58,0.26S13.02,22.72,13.02,22.96z M13.66,19.32c0,0.24,0.08,0.43,0.24,0.58
	c0.16,0.16,0.36,0.24,0.58,0.24c0.24,0,0.45-0.08,0.61-0.23s0.25-0.35,0.25-0.59c0-0.23-0.08-0.43-0.25-0.6s-0.37-0.25-0.61-0.25
	c-0.22,0-0.42,0.08-0.58,0.25S13.66,19.09,13.66,19.32z M16.05,24.66c0,0.23,0.08,0.42,0.24,0.58c0.16,0.16,0.36,0.24,0.6,0.24
	c0.23,0,0.43-0.08,0.59-0.24c0.16-0.16,0.24-0.35,0.24-0.59c0-0.24-0.08-0.43-0.23-0.59c-0.16-0.16-0.35-0.23-0.59-0.23
	c-0.24,0-0.44,0.08-0.6,0.23C16.13,24.22,16.05,24.42,16.05,24.66z M16.47,21.02c0,0.23,0.08,0.43,0.25,0.6
	c0.17,0.17,0.37,0.25,0.6,0.25s0.43-0.08,0.59-0.25s0.24-0.37,0.24-0.6c0-0.22-0.08-0.42-0.24-0.58s-0.35-0.24-0.59-0.24
	s-0.43,0.08-0.6,0.25C16.55,20.61,16.47,20.8,16.47,21.02z M17.58,8.77c0.31-0.54,0.75-0.96,1.3-1.26S20,7.06,20.59,7.05
	c0.15,0,0.26,0.01,0.33,0.02v0.31c0,0.97,0.26,1.88,0.78,2.74s1.25,1.51,2.17,1.96c-0.16,0.36-0.41,0.72-0.76,1.07
	c-0.89-0.79-1.96-1.18-3.23-1.18h-0.31C19.3,10.74,18.64,9.68,17.58,8.77z"/>
</svg>
