<?xml version="1.0" encoding="utf-8"?>
<!-- Generator: Adobe Illustrator 22.0.1, SVG Export Plug-In . SVG Version: 6.00 Build 0)  -->
<svg version="1.1" id="Layer_1" xmlns="http://www.w3.org/2000/svg" xmlns:xlink="http://www.w3.org/1999/xlink" x="0px" y="0px"
	 viewBox="0 0 30 30" style="enable-background:new 0 0 30 30;" xml:space="preserve">
<path d="M2.35,21.05c0,0.24,0.08,0.43,0.25,0.59c0.17,0.16,0.38,0.23,0.63,0.23h9.4c0.24,0,0.43-0.08,0.59-0.23
	c0.16-0.16,0.23-0.35,0.23-0.59c0-0.25-0.08-0.45-0.23-0.61c-0.16-0.16-0.35-0.24-0.59-0.24h-9.4c-0.25,0-0.46,0.08-0.63,0.24
	S2.35,20.8,2.35,21.05z M4.98,18c0,0.24,0.09,0.44,0.26,0.6c0.16,0.17,0.36,0.25,0.6,0.25h9.42c0.23,0,0.43-0.08,0.59-0.25
	c0.16-0.17,0.24-0.37,0.24-0.6c0-0.23-0.08-0.43-0.23-0.59s-0.35-0.24-0.59-0.24H5.85c-0.24,0-0.44,0.08-0.61,0.24
	C5.07,17.57,4.98,17.77,4.98,18z M6.02,15.66c0,0.09,0.06,0.14,0.18,0.14h1.43c0.09,0,0.16-0.05,0.22-0.14
	c0.23-0.54,0.57-0.99,1.04-1.35c0.47-0.36,0.99-0.56,1.58-0.6l0.55-0.07c0.12,0,0.18-0.06,0.18-0.17l0.07-0.52
	c0.11-1.09,0.57-2,1.38-2.72c0.82-0.73,1.77-1.09,2.87-1.09c1.09,0,2.04,0.36,2.84,1.08c0.8,0.72,1.27,1.62,1.41,2.71l0.08,0.58
	c0,0.11,0.06,0.17,0.18,0.17h1.61c0.91,0,1.68,0.32,2.32,0.96c0.64,0.64,0.96,1.41,0.96,2.31c0,0.88-0.32,1.65-0.97,2.29
	c-0.65,0.65-1.41,0.97-2.3,0.97h-6.91c-0.11,0-0.17,0.06-0.17,0.17v1.34c0,0.11,0.06,0.17,0.17,0.17h6.91c0.9,0,1.73-0.22,2.49-0.66
	c0.76-0.44,1.37-1.04,1.81-1.8c0.44-0.76,0.67-1.59,0.67-2.49s-0.22-1.72-0.65-2.47c0.72-0.64,1.22-1.5,1.51-2.58l0.18-0.68
	c0.01-0.01,0.01-0.03,0.01-0.07c0-0.08-0.05-0.13-0.15-0.16l-0.62-0.22c-0.44-0.13-0.83-0.32-1.16-0.57
	c-0.34-0.25-0.6-0.53-0.8-0.84c-0.2-0.31-0.34-0.62-0.44-0.94c-0.1-0.32-0.15-0.63-0.15-0.95c0-0.24,0.04-0.53,0.11-0.87l0.13-0.61
	c0.04-0.09,0-0.17-0.13-0.23L23.62,5.5c-0.44-0.11-0.85-0.16-1.25-0.16c-0.38,0-0.75,0.04-1.13,0.13s-0.77,0.22-1.18,0.41
	c-0.41,0.18-0.8,0.45-1.18,0.8c-0.38,0.35-0.71,0.75-0.99,1.22c-0.77-0.32-1.57-0.48-2.37-0.48c-1.41,0-2.66,0.44-3.75,1.32
	s-1.78,2-2.08,3.38c-0.87,0.2-1.63,0.61-2.28,1.22c-0.65,0.62-1.11,1.35-1.36,2.21v0.03C6.03,15.59,6.02,15.62,6.02,15.66z
	 M6.75,24.15c0,0.24,0.08,0.44,0.25,0.6C7.16,24.92,7.36,25,7.6,25h9.43c0.24,0,0.44-0.08,0.61-0.25c0.17-0.17,0.25-0.37,0.25-0.6
	c0-0.23-0.08-0.43-0.25-0.59c-0.17-0.16-0.37-0.24-0.61-0.24H7.6c-0.24,0-0.44,0.08-0.6,0.24C6.83,23.72,6.75,23.92,6.75,24.15z
	 M19.33,8.78c0.34-0.55,0.79-0.98,1.35-1.28c0.55-0.3,1.12-0.45,1.7-0.44c0.11,0,0.2,0,0.25,0.01v0.24c0,0.97,0.26,1.9,0.79,2.79
	c0.53,0.88,1.25,1.55,2.17,1.98c-0.17,0.4-0.43,0.76-0.76,1.07c-0.88-0.79-1.95-1.18-3.2-1.18h-0.32
	C21.06,10.77,20.4,9.71,19.33,8.78z"/>
</svg>
