<?xml version="1.0" encoding="utf-8"?>
<!-- Generator: Adobe Illustrator 22.0.1, SVG Export Plug-In . SVG Version: 6.00 Build 0)  -->
<svg version="1.1" id="Layer_1" xmlns="http://www.w3.org/2000/svg" xmlns:xlink="http://www.w3.org/1999/xlink" x="0px" y="0px"
	 viewBox="0 0 30 30" style="enable-background:new 0 0 30 30;" xml:space="preserve">
<path d="M4.11,16.89c0,1.33,0.46,2.48,1.39,3.43c0.93,0.96,2.06,1.47,3.4,1.54c0.12,0,0.18-0.06,0.18-0.18v-1.33
	c0-0.12-0.06-0.18-0.18-0.18c-0.86-0.04-1.58-0.38-2.18-1.02c-0.6-0.64-0.9-1.39-0.9-2.26c0-0.83,0.28-1.55,0.84-2.17
	c0.56-0.61,1.26-0.97,2.1-1.07l0.52-0.04c0.13,0,0.2-0.06,0.2-0.18l0.07-0.54c0.11-1.08,0.56-1.99,1.37-2.71
	c0.81-0.73,1.76-1.09,2.85-1.09c1.09,0,2.04,0.37,2.86,1.1c0.82,0.73,1.28,1.63,1.4,2.71l0.07,0.57c0,0.12,0.06,0.19,0.18,0.19h1.62
	c0.89,0,1.65,0.32,2.3,0.96s0.97,1.4,0.97,2.27c0,0.87-0.3,1.62-0.9,2.26c-0.6,0.64-1.33,0.98-2.18,1.02
	c-0.12,0-0.19,0.06-0.19,0.18v1.33c0,0.12,0.06,0.18,0.19,0.18c0.88-0.03,1.68-0.27,2.41-0.72s1.31-1.05,1.73-1.8
	s0.63-1.57,0.63-2.44c0-0.87-0.23-1.68-0.68-2.45c0.78-0.74,1.29-1.6,1.54-2.58l0.14-0.73c0.01-0.01,0.02-0.03,0.02-0.07
	c0-0.07-0.05-0.13-0.16-0.16l-0.57-0.17c-0.57-0.16-1.06-0.44-1.46-0.82c-0.41-0.38-0.7-0.79-0.87-1.21
	c-0.17-0.43-0.26-0.85-0.26-1.28c0-0.29,0.04-0.57,0.11-0.85l0.13-0.61c0.02-0.1-0.02-0.18-0.13-0.23l-0.8-0.24
	c-0.45-0.1-0.87-0.15-1.27-0.15c-0.36,0-0.73,0.04-1.12,0.13c-0.38,0.09-0.78,0.22-1.19,0.4s-0.81,0.44-1.2,0.79s-0.72,0.74-1,1.2
	c-0.81-0.31-1.59-0.46-2.33-0.46c-1.41,0-2.67,0.44-3.76,1.32s-1.8,2-2.11,3.36c-1.11,0.26-2.02,0.84-2.73,1.74
	C4.47,14.71,4.11,15.74,4.11,16.89z M10.05,17.77c0,0.38,0.14,0.71,0.42,0.98c0.28,0.27,0.62,0.4,1.02,0.4c0.4,0,0.73-0.13,1-0.4
	c0.27-0.27,0.4-0.59,0.4-0.98c0-0.26-0.12-0.6-0.35-1.02c-0.23-0.42-0.45-0.75-0.65-0.98c-0.11-0.12-0.24-0.26-0.41-0.43l-0.35,0.41
	c-0.27,0.29-0.52,0.64-0.75,1.04S10.05,17.51,10.05,17.77z M13.04,21.76c0,0.66,0.23,1.21,0.68,1.66c0.46,0.45,1.01,0.67,1.65,0.67
	c0.66,0,1.21-0.23,1.66-0.68c0.45-0.46,0.68-1.01,0.68-1.65c0-0.55-0.27-1.22-0.8-2c-0.44-0.58-0.87-1.08-1.28-1.49
	c-0.08-0.06-0.17-0.13-0.26-0.23l-0.23,0.23c-0.39,0.36-0.82,0.86-1.28,1.48c-0.24,0.33-0.43,0.68-0.59,1.04
	C13.11,21.16,13.04,21.48,13.04,21.76z M14.51,15.09c0,0.26,0.1,0.47,0.29,0.66s0.42,0.27,0.7,0.27c0.26,0,0.47-0.09,0.66-0.27
	c0.18-0.18,0.27-0.4,0.27-0.66c0-0.43-0.31-0.97-0.93-1.62l-0.25,0.27c-0.18,0.2-0.35,0.43-0.5,0.7
	C14.58,14.71,14.51,14.93,14.51,15.09z M17.56,8.77c0.35-0.57,0.8-1,1.34-1.29c0.54-0.29,1.12-0.44,1.72-0.44
	c0.12,0,0.21,0.01,0.27,0.02v0.3c0,0.96,0.26,1.87,0.79,2.74s1.25,1.52,2.18,1.97c-0.16,0.38-0.41,0.72-0.75,1.03
	c-0.93-0.76-1.99-1.14-3.21-1.14h-0.33C19.27,10.65,18.6,9.59,17.56,8.77z"/>
</svg>
