<?xml version="1.0" encoding="utf-8"?>
<!-- Generator: Adobe Illustrator 22.0.1, SVG Export Plug-In . SVG Version: 6.00 Build 0)  -->
<svg version="1.1" id="Layer_1" xmlns="http://www.w3.org/2000/svg" xmlns:xlink="http://www.w3.org/1999/xlink" x="0px" y="0px"
	 viewBox="0 0 30 30" style="enable-background:new 0 0 30 30;" xml:space="preserve">
<path d="M4.29,16.93c0,0.66,0.12,1.28,0.38,1.88s0.59,1.11,1.02,1.55s0.94,0.79,1.52,1.05s1.21,0.42,1.87,0.45
	c0.12,0,0.18-0.06,0.18-0.17v-1.34c0-0.11-0.06-0.17-0.18-0.17c-0.87-0.06-1.6-0.41-2.19-1.03c-0.59-0.62-0.89-1.37-0.89-2.22
	c0-0.84,0.28-1.57,0.85-2.18c0.57-0.62,1.26-0.97,2.1-1.04l0.52-0.06c0.12,0,0.19-0.06,0.19-0.18l0.08-0.52
	c0.07-0.71,0.3-1.36,0.69-1.94s0.9-1.04,1.52-1.36s1.29-0.49,2.02-0.49c1.09,0,2.04,0.36,2.85,1.08c0.81,0.72,1.27,1.62,1.39,2.69
	l0.07,0.58c0,0.11,0.06,0.17,0.19,0.17h1.6c0.9,0,1.67,0.32,2.32,0.96c0.64,0.64,0.97,1.4,0.97,2.29c0,0.86-0.3,1.6-0.89,2.22
	c-0.59,0.62-1.33,0.97-2.19,1.03c-0.13,0-0.2,0.06-0.2,0.17v1.34c0,0.11,0.07,0.17,0.2,0.17c1.34-0.06,2.47-0.57,3.38-1.51
	C24.54,19.4,25,18.26,25,16.93c0-0.64-0.16-1.32-0.47-2.06c0.79-0.99,1.19-2.08,1.19-3.27c0-0.95-0.24-1.83-0.71-2.63
	c-0.47-0.81-1.11-1.44-1.91-1.91s-1.68-0.7-2.62-0.7c-1.59,0-2.88,0.58-3.87,1.73c-0.81-0.43-1.7-0.64-2.66-0.64
	c-1.41,0-2.66,0.44-3.75,1.32s-1.79,2-2.1,3.37c-1.12,0.26-2.03,0.83-2.74,1.72C4.64,14.75,4.29,15.77,4.29,16.93z M11.94,21.55
	c-0.02,0.14,0.02,0.21,0.14,0.21h2.17l-1.32,4.17h0.29l4.18-5.58c0.04-0.04,0.05-0.09,0.02-0.14s-0.07-0.07-0.14-0.07H15.1l2.3-4.24
	c0.07-0.14,0.03-0.22-0.14-0.22h-2.94c-0.08,0-0.14,0.05-0.21,0.14L11.94,21.55z M18,9.05c0.67-0.66,1.49-0.99,2.47-0.99
	c0.98,0,1.81,0.34,2.5,1.03C23.66,9.77,24,10.61,24,11.6c0,0.59-0.17,1.19-0.52,1.8c-0.97-0.93-2.12-1.4-3.45-1.4h-0.31
	C19.44,10.81,18.86,9.83,18,9.05z"/>
</svg>
