<?xml version="1.0" encoding="utf-8"?>
<!-- Generator: Adobe Illustrator 22.0.1, SVG Export Plug-In . SVG Version: 6.00 Build 0)  -->
<svg version="1.1" id="Layer_1" xmlns="http://www.w3.org/2000/svg" xmlns:xlink="http://www.w3.org/1999/xlink" x="0px" y="0px"
	 viewBox="0 0 30 30" style="enable-background:new 0 0 30 30;" xml:space="preserve">
<path d="M2.98,21.02c0,0.23,0.09,0.43,0.27,0.6c0.17,0.17,0.37,0.25,0.61,0.25H9.6c0.26,0,0.49,0.1,0.69,0.29
	c0.2,0.19,0.3,0.42,0.3,0.68c0,0.27-0.1,0.5-0.3,0.69s-0.43,0.29-0.69,0.29c-0.26,0-0.48-0.1-0.68-0.3
	c-0.18-0.16-0.38-0.24-0.61-0.24c-0.24,0-0.44,0.08-0.6,0.24c-0.16,0.16-0.24,0.36-0.24,0.6c0,0.22,0.08,0.42,0.24,0.6
	c0.52,0.53,1.16,0.79,1.89,0.79s1.37-0.26,1.89-0.78c0.52-0.52,0.78-1.15,0.78-1.89c0-0.74-0.26-1.37-0.78-1.89
	s-1.15-0.79-1.89-0.79H3.86c-0.24,0-0.44,0.09-0.62,0.26C3.07,20.59,2.98,20.79,2.98,21.02z M2.98,18c0,0.22,0.09,0.41,0.27,0.58
	c0.17,0.16,0.38,0.24,0.61,0.24h10.85c0.74,0,1.37-0.26,1.89-0.78c0.52-0.52,0.78-1.15,0.78-1.88c0-0.74-0.26-1.36-0.78-1.88
	c-0.52-0.52-1.15-0.77-1.89-0.77c-0.76,0-1.39,0.25-1.89,0.76c-0.15,0.16-0.23,0.36-0.23,0.61c0,0.25,0.08,0.45,0.23,0.6
	c0.15,0.15,0.35,0.23,0.59,0.23s0.44-0.07,0.62-0.23c0.19-0.19,0.42-0.28,0.68-0.28c0.26,0,0.48,0.09,0.67,0.28
	c0.19,0.19,0.29,0.42,0.29,0.68c0,0.26-0.1,0.49-0.29,0.68c-0.19,0.19-0.42,0.29-0.67,0.29H3.86c-0.24,0-0.44,0.09-0.62,0.26
	C3.07,17.57,2.98,17.77,2.98,18z M5.5,15.65c0,0.09,0.05,0.13,0.16,0.13H7.1c0.08,0,0.15-0.05,0.22-0.15
	c0.22-0.54,0.57-0.99,1.05-1.35c0.47-0.35,1-0.55,1.58-0.6l0.52-0.07c0.12,0,0.19-0.06,0.19-0.17l0.08-0.52
	c0.11-1.08,0.57-1.99,1.38-2.71c0.81-0.73,1.77-1.09,2.86-1.09s2.05,0.36,2.85,1.09c0.81,0.72,1.27,1.63,1.38,2.72l0.07,0.58
	c0,0.12,0.06,0.18,0.19,0.18h1.62c0.91,0,1.68,0.32,2.32,0.95c0.64,0.63,0.96,1.39,0.96,2.28c0,0.89-0.32,1.65-0.96,2.29
	c-0.64,0.64-1.41,0.96-2.31,0.96h-6.91c-0.11,0-0.17,0.06-0.17,0.18v1.37c0,0.11,0.06,0.17,0.17,0.17h6.91
	c0.89,0,1.72-0.22,2.48-0.67s1.36-1.05,1.8-1.81s0.67-1.59,0.67-2.48c0-0.88-0.23-1.71-0.68-2.48c0.73-0.71,1.23-1.57,1.51-2.58
	L27,11.18c0.02-0.02,0.03-0.04,0.03-0.07c0-0.04-0.05-0.1-0.14-0.16l-0.6-0.21c-0.84-0.26-1.48-0.71-1.92-1.36
	c-0.44-0.65-0.66-1.32-0.66-2.02c0-0.24,0.03-0.51,0.09-0.79l0.13-0.62c0.02-0.1-0.02-0.18-0.13-0.22l-0.8-0.24
	c-0.44-0.11-0.85-0.16-1.25-0.16c-0.37,0-0.74,0.04-1.12,0.13c-0.38,0.09-0.77,0.22-1.18,0.41c-0.4,0.18-0.8,0.45-1.18,0.8
	c-0.38,0.35-0.72,0.75-1,1.22c-0.71-0.3-1.48-0.45-2.32-0.45c-1.41,0-2.66,0.44-3.75,1.31s-1.77,1.99-2.07,3.35
	c-0.86,0.2-1.61,0.61-2.27,1.23c-0.66,0.62-1.11,1.35-1.36,2.2v0.03C5.51,15.58,5.5,15.61,5.5,15.65z M18.73,8.76
	c0.31-0.55,0.74-0.97,1.29-1.26c0.55-0.29,1.12-0.44,1.71-0.44c0.14,0,0.24,0,0.31,0.01c-0.01,0.09-0.02,0.21-0.02,0.36
	c0,0.94,0.26,1.85,0.79,2.71c0.52,0.86,1.25,1.51,2.17,1.94c-0.16,0.38-0.41,0.72-0.75,1.03c-0.89-0.76-1.94-1.14-3.16-1.14h-0.33
	C20.48,10.71,19.81,9.64,18.73,8.76z"/>
</svg>
