<?xml version="1.0" encoding="utf-8"?>
<!-- Generator: Adobe Illustrator 22.0.1, SVG Export Plug-In . SVG Version: 6.00 Build 0)  -->
<svg version="1.1" id="Layer_1" xmlns="http://www.w3.org/2000/svg" xmlns:xlink="http://www.w3.org/1999/xlink" x="0px" y="0px"
	 viewBox="0 0 30 30" style="enable-background:new 0 0 30 30;" xml:space="preserve">
<path d="M4.1,16.91c0,1.33,0.46,2.48,1.39,3.43s2.06,1.47,3.4,1.53c0.12,0,0.18-0.06,0.18-0.17v-1.34c0-0.11-0.06-0.17-0.18-0.17
	c-0.86-0.04-1.58-0.38-2.18-1.02s-0.9-1.39-0.9-2.26c0-0.83,0.28-1.55,0.84-2.17c0.56-0.61,1.26-0.97,2.1-1.07l0.53-0.03
	c0.13,0,0.2-0.06,0.2-0.18l0.07-0.54c0.11-1.08,0.56-1.99,1.37-2.72c0.81-0.73,1.76-1.1,2.85-1.1c1.08,0,2.03,0.37,2.85,1.1
	c0.82,0.73,1.28,1.64,1.4,2.72l0.08,0.58c0,0.11,0.06,0.17,0.17,0.17h1.61c0.89,0,1.66,0.32,2.31,0.96c0.65,0.64,0.98,1.4,0.98,2.27
	c0,0.87-0.3,1.62-0.9,2.26c-0.6,0.64-1.33,0.98-2.18,1.02c-0.13,0-0.2,0.06-0.2,0.17v1.34c0,0.11,0.07,0.17,0.2,0.17
	c1.33-0.04,2.46-0.55,3.38-1.51c0.93-0.96,1.39-2.11,1.39-3.45c0-0.86-0.22-1.66-0.65-2.41c0.79-0.74,1.3-1.62,1.55-2.62l0.13-0.68
	c0.02-0.01,0.03-0.03,0.03-0.07c0-0.07-0.05-0.13-0.16-0.16l-0.56-0.17c-0.57-0.17-1.05-0.45-1.46-0.85
	c-0.4-0.4-0.69-0.81-0.86-1.25c-0.17-0.43-0.25-0.87-0.25-1.32c-0.01-0.24,0.02-0.51,0.08-0.79l0.14-0.58
	c0.03-0.09-0.02-0.16-0.14-0.22l-0.8-0.25c-0.42-0.12-0.86-0.19-1.31-0.19c-0.35,0-0.71,0.04-1.08,0.13s-0.76,0.22-1.17,0.4
	c-0.41,0.18-0.8,0.45-1.19,0.8c-0.38,0.35-0.72,0.75-1,1.22c-0.75-0.32-1.54-0.49-2.37-0.49c-1.41,0-2.67,0.44-3.76,1.31
	s-1.79,1.99-2.1,3.36c-1.11,0.26-2.02,0.83-2.74,1.73S4.1,15.76,4.1,16.91z M9.58,23.94c0.09,0.21,0.24,0.36,0.46,0.45
	c0.19,0.1,0.4,0.11,0.62,0.02c0.22-0.08,0.37-0.23,0.45-0.45c0.1-0.22,0.11-0.43,0.02-0.65c-0.08-0.21-0.23-0.36-0.45-0.44
	c-0.2-0.1-0.41-0.11-0.62-0.02c-0.21,0.09-0.37,0.24-0.47,0.46C9.5,23.48,9.49,23.69,9.58,23.94z M10.2,21.11
	c0,0.15,0.05,0.3,0.16,0.45s0.26,0.26,0.46,0.32c0.26,0.1,0.48,0.1,0.67,0c0.19-0.1,0.32-0.29,0.4-0.57l0.88-3.21
	c0.07-0.25,0.04-0.47-0.08-0.67c-0.12-0.2-0.3-0.32-0.54-0.37c-0.22-0.07-0.43-0.05-0.63,0.07c-0.2,0.11-0.33,0.28-0.4,0.51
	l-0.88,3.22c0,0.02-0.01,0.06-0.02,0.12C10.21,21.03,10.2,21.08,10.2,21.11z M12.07,26.71c0,0.12,0.02,0.22,0.06,0.29
	c0.09,0.22,0.24,0.37,0.45,0.45c0.09,0.05,0.2,0.07,0.33,0.07c0.06,0,0.16-0.02,0.3-0.06c0.23-0.08,0.39-0.23,0.48-0.45
	c0.1-0.22,0.1-0.44,0-0.66c-0.1-0.22-0.25-0.37-0.45-0.46c-0.2-0.09-0.4-0.09-0.61,0c-0.19,0.08-0.33,0.2-0.42,0.36
	C12.11,26.42,12.07,26.57,12.07,26.71z M12.81,24.06c0,0.38,0.21,0.64,0.64,0.78c0.09,0.03,0.17,0.05,0.23,0.05
	c0.11,0,0.23-0.03,0.35-0.08c0.23-0.08,0.39-0.27,0.47-0.57l1.65-6.12c0.06-0.24,0.04-0.45-0.07-0.65c-0.11-0.19-0.28-0.32-0.5-0.39
	c-0.23-0.07-0.45-0.05-0.65,0.07c-0.2,0.11-0.34,0.28-0.4,0.51l-1.68,6.17C12.82,23.92,12.81,24,12.81,24.06z M16.25,23.64
	c0,0.13,0.02,0.23,0.07,0.31c0.08,0.2,0.23,0.35,0.44,0.44c0.12,0.05,0.23,0.08,0.35,0.08c0.06,0,0.16-0.02,0.3-0.06
	c0.22-0.09,0.37-0.23,0.45-0.44c0.08-0.22,0.08-0.43,0-0.63c-0.08-0.2-0.22-0.35-0.42-0.45c-0.22-0.1-0.44-0.11-0.65-0.02
	c-0.22,0.08-0.37,0.24-0.47,0.46C16.27,23.41,16.25,23.51,16.25,23.64z M16.97,21.08c0,0.16,0.05,0.32,0.15,0.46
	c0.1,0.14,0.25,0.25,0.45,0.31c0.17,0.02,0.26,0.03,0.27,0.03c0.41,0,0.66-0.2,0.77-0.61l0.87-3.17c0.06-0.24,0.04-0.45-0.07-0.65
	c-0.11-0.19-0.28-0.32-0.5-0.39c-0.23-0.07-0.45-0.05-0.64,0.07c-0.2,0.11-0.33,0.28-0.4,0.51L17,20.81
	C16.98,20.9,16.97,20.99,16.97,21.08z M17.62,8.83c0.31-0.57,0.75-1.01,1.3-1.31c0.55-0.3,1.14-0.45,1.76-0.44
	c0.11,0,0.2,0.01,0.25,0.02v0.31c0,0.98,0.26,1.89,0.78,2.75c0.52,0.86,1.25,1.51,2.17,1.95c-0.19,0.44-0.44,0.79-0.75,1.07
	C22.25,12.39,21.17,12,19.88,12h-0.32C19.3,10.75,18.66,9.69,17.62,8.83z"/>
</svg>
