<?xml version="1.0" encoding="utf-8"?>
<!-- Generator: Adobe Illustrator 22.0.1, SVG Export Plug-In . SVG Version: 6.00 Build 0)  -->
<svg version="1.1" id="Layer_1" xmlns="http://www.w3.org/2000/svg" xmlns:xlink="http://www.w3.org/1999/xlink" x="0px" y="0px"
	 viewBox="0 0 30 30" style="enable-background:new 0 0 30 30;" xml:space="preserve">
<path d="M4.07,16.9c0,1.33,0.47,2.48,1.4,3.44s2.07,1.47,3.4,1.53c0.12,0,0.18-0.06,0.18-0.17v-1.34c0-0.11-0.06-0.17-0.18-0.17
	c-0.86-0.05-1.59-0.39-2.19-1.03c-0.6-0.64-0.9-1.39-0.9-2.26c0-0.83,0.28-1.55,0.85-2.17c0.57-0.62,1.27-0.97,2.1-1.07l0.53-0.04
	c0.13,0,0.2-0.06,0.2-0.17l0.07-0.54c0.11-1.08,0.57-1.99,1.38-2.72c0.81-0.73,1.77-1.1,2.86-1.1c1.09,0,2.04,0.37,2.86,1.1
	c0.82,0.73,1.28,1.64,1.4,2.72l0.08,0.57c0,0.12,0.06,0.18,0.17,0.18h1.62c0.89,0,1.67,0.32,2.32,0.96c0.65,0.64,0.98,1.4,0.98,2.28
	c0,0.87-0.3,1.62-0.9,2.26c-0.6,0.64-1.33,0.98-2.19,1.03c-0.14,0-0.21,0.06-0.21,0.17v1.34c0,0.11,0.07,0.17,0.21,0.17
	c1.33-0.04,2.46-0.55,3.38-1.51c0.93-0.97,1.39-2.12,1.39-3.45c0-0.88-0.23-1.7-0.68-2.46c0.81-0.73,1.33-1.6,1.58-2.62l0.14-0.72
	c0.01-0.01,0.02-0.03,0.02-0.07c0-0.07-0.05-0.13-0.16-0.16l-0.56-0.18c-0.57-0.16-1.06-0.44-1.46-0.83
	c-0.41-0.39-0.7-0.8-0.87-1.23c-0.17-0.43-0.26-0.86-0.26-1.28c-0.02-0.22,0.01-0.5,0.08-0.82l0.14-0.61c0.04-0.1,0-0.18-0.14-0.24
	l-0.79-0.24c-0.45-0.1-0.87-0.15-1.27-0.15c-0.38,0-0.76,0.04-1.14,0.13c-0.39,0.09-0.79,0.22-1.2,0.41
	c-0.41,0.18-0.81,0.45-1.2,0.8c-0.39,0.35-0.72,0.75-1,1.22c-0.82-0.3-1.6-0.45-2.33-0.45c-1.41,0-2.67,0.44-3.76,1.32
	s-1.8,2-2.11,3.37c-1.11,0.26-2.02,0.83-2.74,1.73C4.43,14.72,4.07,15.75,4.07,16.9z M9.63,23.74c0,0.17,0.05,0.33,0.16,0.49
	c0.11,0.16,0.27,0.27,0.49,0.33c0.23,0.07,0.45,0.05,0.64-0.04c0.2-0.1,0.33-0.28,0.4-0.56l1.43-5.87c0.06-0.25,0.03-0.48-0.08-0.67
	c-0.12-0.2-0.29-0.32-0.52-0.37c-0.22-0.07-0.43-0.05-0.63,0.07c-0.2,0.11-0.34,0.28-0.41,0.51l-1.44,5.9
	c0,0.01-0.01,0.04-0.02,0.09C9.64,23.67,9.63,23.71,9.63,23.74z M12.24,26.81c0,0.16,0.05,0.31,0.15,0.46
	c0.1,0.15,0.25,0.25,0.45,0.31c0.11,0.03,0.19,0.04,0.24,0.04c0.44,0,0.71-0.2,0.82-0.59l2.25-8.93c0.06-0.24,0.04-0.46-0.07-0.65
	c-0.11-0.19-0.28-0.32-0.5-0.39c-0.23-0.07-0.45-0.05-0.66,0.07s-0.34,0.28-0.39,0.5l-2.26,8.92c0,0.01,0,0.05-0.01,0.12
	C12.24,26.73,12.24,26.78,12.24,26.81z M16.4,23.82c0,0.36,0.21,0.6,0.63,0.74c0.14,0.04,0.24,0.06,0.3,0.06
	c0.11,0,0.23-0.02,0.35-0.07c0.21-0.08,0.34-0.28,0.39-0.58l1.43-5.87c0.06-0.24,0.04-0.45-0.08-0.65
	c-0.11-0.19-0.28-0.32-0.51-0.39c-0.23-0.07-0.45-0.05-0.66,0.07c-0.21,0.11-0.33,0.28-0.38,0.51l-1.43,5.9
	C16.42,23.7,16.4,23.8,16.4,23.82z M17.58,8.77c0.32-0.58,0.75-1.02,1.31-1.33c0.55-0.3,1.14-0.45,1.76-0.44
	c0.12,0,0.21,0,0.27,0.01v0.3c-0.01,0.97,0.24,1.88,0.77,2.75c0.52,0.86,1.26,1.52,2.21,1.97c-0.22,0.46-0.49,0.81-0.79,1.07
	c-0.92-0.76-1.99-1.13-3.23-1.13h-0.31C19.3,10.7,18.64,9.64,17.58,8.77z"/>
</svg>
