<?xml version="1.0" encoding="utf-8"?>
<!-- Generator: Adobe Illustrator 22.0.1, SVG Export Plug-In . SVG Version: 6.00 Build 0)  -->
<svg version="1.1" id="Layer_1" xmlns="http://www.w3.org/2000/svg" xmlns:xlink="http://www.w3.org/1999/xlink" x="0px" y="0px"
	 viewBox="0 0 30 30" style="enable-background:new 0 0 30 30;" xml:space="preserve">
<path d="M4.09,16.89c0,1.11,0.33,2.1,0.99,2.97c0.66,0.87,1.52,1.47,2.58,1.79l-0.65,1.7c-0.04,0.14,0,0.21,0.14,0.21h2.12
	l-1.29,4.18h0.28l4.23-5.62c0.04-0.04,0.04-0.09,0.02-0.14c-0.03-0.05-0.07-0.07-0.14-0.07h-2.18l2.47-4.64
	c0.07-0.14,0.03-0.22-0.13-0.22H9.57c-0.09,0-0.16,0.05-0.22,0.15l-1.07,2.88c-0.71-0.18-1.3-0.57-1.78-1.17s-0.71-1.27-0.71-2.01
	c0-0.83,0.28-1.55,0.85-2.17c0.57-0.61,1.27-0.97,2.1-1.07l0.53-0.07c0.13,0,0.2-0.06,0.2-0.18l0.07-0.51
	c0.11-1.08,0.56-1.99,1.37-2.72c0.81-0.73,1.76-1.1,2.85-1.1c1.09,0,2.04,0.37,2.86,1.1c0.82,0.73,1.28,1.64,1.4,2.71l0.07,0.57
	c0,0.12,0.06,0.19,0.17,0.19h1.62c0.91,0,1.68,0.32,2.33,0.95s0.97,1.4,0.97,2.28c0,0.85-0.3,1.59-0.9,2.21
	c-0.6,0.62-1.33,0.97-2.2,1.03c-0.12,0-0.19,0.06-0.19,0.19v1.36c0,0.12,0.06,0.18,0.19,0.18c1.33-0.04,2.46-0.55,3.39-1.51
	c0.93-0.97,1.39-2.12,1.39-3.45c0-0.87-0.22-1.68-0.66-2.45c0.76-0.74,1.27-1.61,1.51-2.62l0.19-0.68c0.01-0.01,0.01-0.03,0.01-0.07
	c0-0.08-0.05-0.13-0.15-0.16l-0.62-0.17c-0.57-0.17-1.06-0.45-1.46-0.84c-0.4-0.39-0.68-0.8-0.85-1.22s-0.25-0.84-0.24-1.26
	c0-0.28,0.03-0.56,0.1-0.85l0.11-0.61c0.02-0.1-0.02-0.18-0.14-0.23l-0.8-0.24c-0.47-0.09-0.88-0.14-1.24-0.14
	c-0.37-0.01-0.75,0.03-1.13,0.12c-0.38,0.08-0.78,0.22-1.19,0.4c-0.41,0.18-0.8,0.45-1.18,0.79c-0.38,0.34-0.71,0.74-0.99,1.2
	C15.3,7.55,14.51,7.4,13.77,7.4c-1.41,0-2.67,0.44-3.76,1.32s-1.8,2-2.11,3.36c-1.11,0.26-2.02,0.84-2.74,1.74
	C4.45,14.71,4.09,15.74,4.09,16.89z M11.97,27.1c0,0.17,0.05,0.33,0.16,0.49c0.11,0.16,0.27,0.27,0.49,0.33
	c0.09,0.02,0.17,0.03,0.24,0.03c0.43,0,0.7-0.2,0.8-0.61l0.13-0.59c0.06-0.26,0.03-0.48-0.08-0.68c-0.12-0.2-0.29-0.32-0.53-0.37
	c-0.21-0.07-0.42-0.05-0.63,0.07c-0.21,0.12-0.34,0.29-0.41,0.51l-0.13,0.59C11.98,26.99,11.97,27.07,11.97,27.1z M12.76,24.2
	c0,0.23,0.08,0.42,0.24,0.58c0.16,0.16,0.36,0.24,0.58,0.24c0.24,0,0.43-0.08,0.59-0.23c0.16-0.16,0.23-0.35,0.23-0.59
	c0-0.23-0.08-0.42-0.23-0.58c-0.16-0.16-0.35-0.23-0.59-0.23s-0.43,0.08-0.59,0.23C12.84,23.77,12.76,23.97,12.76,24.2z
	 M13.38,21.93c-0.01,0.15,0.03,0.31,0.14,0.47c0.1,0.16,0.25,0.26,0.45,0.3c0.23,0.06,0.44,0.04,0.64-0.06s0.33-0.29,0.41-0.56
	l0.26-0.9c0.07-0.22,0.05-0.43-0.07-0.63c-0.12-0.2-0.29-0.33-0.53-0.4c-0.22-0.07-0.43-0.04-0.64,0.08s-0.34,0.3-0.41,0.53
	l-0.23,0.9C13.39,21.74,13.38,21.83,13.38,21.93z M16.14,24.08c0,0.17,0.05,0.33,0.15,0.48c0.1,0.15,0.25,0.26,0.46,0.32
	c0.03,0,0.08,0.01,0.14,0.02c0.06,0.01,0.11,0.02,0.14,0.02c0.41,0,0.66-0.22,0.76-0.66l0.14-0.6c0.07-0.21,0.05-0.42-0.07-0.63
	c-0.12-0.21-0.29-0.34-0.51-0.41c-0.25-0.06-0.48-0.04-0.68,0.08s-0.34,0.29-0.41,0.53l-0.09,0.59c0,0.01,0,0.05-0.01,0.11
	C16.15,24,16.14,24.04,16.14,24.08z M16.88,21.12c0,0.23,0.08,0.42,0.24,0.57c0.15,0.16,0.34,0.24,0.58,0.24
	c0.24,0,0.43-0.08,0.59-0.23c0.16-0.16,0.23-0.35,0.23-0.58c0-0.24-0.08-0.43-0.23-0.59c-0.16-0.16-0.35-0.23-0.59-0.23
	c-0.24,0-0.43,0.08-0.59,0.23S16.88,20.88,16.88,21.12z M17.59,8.77c0.33-0.56,0.78-0.99,1.34-1.29s1.15-0.45,1.76-0.45h0.22v0.32
	c0,0.64,0.11,1.26,0.34,1.86c0.23,0.6,0.56,1.15,1.02,1.66c0.45,0.51,0.99,0.91,1.61,1.21c-0.17,0.38-0.42,0.72-0.76,1.03
	c-0.91-0.78-1.98-1.17-3.22-1.17h-0.33C19.28,10.68,18.62,9.62,17.59,8.77z"/>
</svg>
