<?xml version="1.0" encoding="utf-8"?>
<!-- Generator: Adobe Illustrator 22.0.1, SVG Export Plug-In . SVG Version: 6.00 Build 0)  -->
<svg version="1.1" id="Layer_1" xmlns="http://www.w3.org/2000/svg" xmlns:xlink="http://www.w3.org/1999/xlink" x="0px" y="0px"
	 viewBox="0 0 30 30" style="enable-background:new 0 0 30 30;" xml:space="preserve">
<path d="M4.14,16.9c0-1.16,0.35-2.18,1.06-3.08s1.62-1.47,2.74-1.72c0.23-1.03,0.7-1.93,1.4-2.7c0.7-0.77,1.55-1.32,2.53-1.65
	c0.62-0.21,1.26-0.32,1.93-0.32c0.81,0,1.6,0.16,2.35,0.48c0.28-0.47,0.61-0.88,0.99-1.22c0.38-0.34,0.77-0.61,1.17-0.79
	c0.4-0.18,0.8-0.32,1.18-0.41s0.76-0.13,1.12-0.13c0.38,0,0.79,0.05,1.23,0.16l0.82,0.25c0.14,0.06,0.18,0.13,0.14,0.22l-0.14,0.6
	c-0.07,0.31-0.1,0.6-0.1,0.86c0,0.31,0.05,0.63,0.15,0.95c0.1,0.32,0.24,0.63,0.44,0.94c0.19,0.31,0.46,0.58,0.8,0.83
	c0.34,0.25,0.72,0.44,1.15,0.57l0.62,0.22c0.1,0.03,0.15,0.08,0.15,0.16c0,0.02-0.01,0.04-0.02,0.07l-0.18,0.67
	c-0.27,1.08-0.78,1.93-1.5,2.57c0.4,0.7,0.62,1.45,0.65,2.24c0.01,0.05,0.01,0.12,0.01,0.23c0,0.89-0.22,1.72-0.67,2.48
	c-0.44,0.76-1.05,1.36-1.8,1.8c-0.76,0.44-1.59,0.67-2.48,0.67H9.07c-0.89,0-1.72-0.22-2.48-0.67s-1.35-1.05-1.79-1.8
	S4.14,17.8,4.14,16.9z M5.85,16.9c0,0.89,0.32,1.66,0.96,2.31c0.64,0.65,1.39,0.98,2.26,0.98h10.81c0.89,0,1.65-0.32,2.28-0.97
	s0.95-1.42,0.95-2.32c0-0.88-0.32-1.63-0.96-2.26c-0.64-0.63-1.4-0.95-2.28-0.95h-1.78l-0.1-0.75c-0.1-1.01-0.52-1.88-1.26-2.59
	s-1.62-1.11-2.63-1.2c-0.03,0-0.08,0-0.15-0.01c-0.07-0.01-0.11-0.01-0.15-0.01c-0.51,0-1.02,0.1-1.54,0.29V9.4
	c-0.73,0.28-1.35,0.74-1.84,1.37c-0.5,0.63-0.8,1.35-0.9,2.17l-0.07,0.72l-0.68,0.03c-0.84,0.1-1.54,0.45-2.1,1.06
	S5.85,16.07,5.85,16.9z M17.6,8.79c1.06,0.91,1.72,1.97,1.97,3.18h0.32c1.24,0,2.3,0.39,3.17,1.18c0.33-0.31,0.58-0.67,0.76-1.07
	c-0.91-0.43-1.63-1.09-2.16-1.97c-0.52-0.88-0.79-1.81-0.79-2.78V7.09c-0.05-0.01-0.13-0.01-0.24-0.01
	c-0.58-0.01-1.15,0.13-1.7,0.44C18.38,7.82,17.93,8.24,17.6,8.79z"/>
</svg>
