<?xml version="1.0" encoding="utf-8"?>
<!-- Generator: Adobe Illustrator 22.0.1, SVG Export Plug-In . SVG Version: 6.00 Build 0)  -->
<svg version="1.1" id="Layer_1" xmlns="http://www.w3.org/2000/svg" xmlns:xlink="http://www.w3.org/1999/xlink" x="0px" y="0px"
	 viewBox="0 0 30 30" style="enable-background:new 0 0 30 30;" xml:space="preserve">
<path d="M9.81,15.25c0,0.92,0.23,1.78,0.7,2.57s1.1,1.43,1.9,1.9c0.8,0.47,1.66,0.71,2.59,0.71c0.93,0,1.8-0.24,2.61-0.71
	c0.81-0.47,1.45-1.11,1.92-1.9c0.47-0.8,0.71-1.65,0.71-2.57c0-0.6-0.17-1.31-0.52-2.14c-0.35-0.83-0.77-1.6-1.26-2.3
	c-0.44-0.57-0.96-1.2-1.56-1.88c-0.6-0.68-1.65-1.73-1.89-1.97l-1.28,1.29c-0.62,0.6-1.22,1.29-1.79,2.08
	c-0.57,0.79-1.07,1.64-1.49,2.55C10.01,13.79,9.81,14.58,9.81,15.25z"/>
</svg>
