<?xml version="1.0" encoding="utf-8"?>
<!-- Generator: Adobe Illustrator 22.0.1, SVG Export Plug-In . SVG Version: 6.00 Build 0)  -->
<svg version="1.1" id="Layer_1" xmlns="http://www.w3.org/2000/svg" xmlns:xlink="http://www.w3.org/1999/xlink" x="0px" y="0px"
	 viewBox="0 0 30 30" style="enable-background:new 0 0 30 30;" xml:space="preserve">
<path d="M4.63,16.93c0,1.12,0.33,2.11,0.98,2.99c0.65,0.87,1.5,1.47,2.55,1.79c0.09,0.02,0.17-0.01,0.24-0.08l1.16-1.43
	c-0.89,0-1.65-0.32-2.28-0.96c-0.63-0.64-0.95-1.41-0.95-2.31c0-0.84,0.28-1.58,0.84-2.2s1.26-0.97,2.1-1.04l0.53-0.07
	c0.11,0,0.16-0.04,0.16-0.13l0.08-0.55c0.12-1.1,0.59-2.01,1.39-2.73s1.75-1.08,2.85-1.08c1.1,0,2.06,0.36,2.87,1.09
	c0.82,0.73,1.27,1.64,1.37,2.72l0.07,0.58c0.02,0.11,0.1,0.17,0.22,0.17h1.62c0.9,0,1.67,0.32,2.3,0.95s0.95,1.39,0.95,2.29
	c0,0.83-0.28,1.56-0.84,2.18s-1.25,0.98-2.07,1.08c-0.12,0-0.28,0.02-0.49,0.06c-0.19,0.02-0.33,0.09-0.41,0.23l-2.36,2.79
	c-0.14,0.18-0.2,0.39-0.16,0.63c0.03,0.24,0.14,0.43,0.31,0.57c0.11,0.12,0.29,0.19,0.56,0.19c0.26,0,0.47-0.12,0.61-0.35l2.12-2.44
	c1.24-0.13,2.29-0.66,3.15-1.61c0.86-0.95,1.28-2.06,1.28-3.33c0-0.67-0.13-1.32-0.39-1.93c-0.26-0.61-0.61-1.14-1.05-1.58
	c-0.44-0.44-0.97-0.79-1.58-1.05c-0.61-0.26-1.25-0.39-1.93-0.39h-0.32c-0.33-1.32-1.04-2.41-2.12-3.26s-2.32-1.27-3.72-1.27
	c-0.93,0-1.81,0.2-2.63,0.6c-0.82,0.4-1.51,0.95-2.08,1.66s-0.94,1.52-1.13,2.42c-1.12,0.25-2.04,0.82-2.75,1.72
	C4.98,14.74,4.63,15.77,4.63,16.93z M8.01,24.95c0,0.06,0.02,0.16,0.06,0.3c0.09,0.21,0.23,0.36,0.44,0.44
	c0.22,0.1,0.44,0.11,0.67,0.02c0.23-0.09,0.38-0.24,0.46-0.45c0.1-0.22,0.11-0.43,0.02-0.65c-0.09-0.21-0.24-0.36-0.46-0.43
	c-0.22-0.11-0.44-0.12-0.65-0.03c-0.21,0.09-0.36,0.24-0.46,0.47C8.04,24.72,8.01,24.83,8.01,24.95z M9.86,22.51v0.1
	c0.02,0.23,0.12,0.41,0.3,0.56c0.23,0.13,0.43,0.19,0.62,0.19c0.22,0,0.43-0.11,0.61-0.33l2.32-2.77c0.14-0.17,0.21-0.39,0.2-0.66
	c-0.02-0.21-0.12-0.39-0.28-0.53c-0.16-0.14-0.33-0.22-0.52-0.22c-0.06,0-0.1,0-0.14,0.01c-0.23,0.04-0.42,0.15-0.56,0.33
	l-2.36,2.77C9.92,22.12,9.86,22.3,9.86,22.51z M10.63,27.23c0,0.12,0.03,0.23,0.08,0.32c0.08,0.21,0.23,0.37,0.44,0.47
	c0.11,0.05,0.22,0.07,0.33,0.07c0.12,0,0.23-0.02,0.31-0.07c0.23-0.09,0.39-0.23,0.47-0.41c0.1-0.22,0.11-0.44,0.02-0.67
	c-0.08-0.23-0.23-0.38-0.45-0.46c-0.22-0.1-0.44-0.11-0.67-0.02c-0.23,0.09-0.38,0.24-0.45,0.45C10.65,27,10.63,27.11,10.63,27.23z
	 M12.3,24.88v0.11c0.02,0.22,0.13,0.4,0.31,0.55c0.18,0.15,0.37,0.22,0.55,0.22c0.23,0,0.43-0.11,0.63-0.33l4.35-5.24
	c0.11-0.12,0.17-0.3,0.17-0.52v-0.12c-0.02-0.23-0.12-0.4-0.27-0.53s-0.33-0.2-0.52-0.2h-0.13c-0.23,0.01-0.42,0.12-0.55,0.31
	l-4.35,5.2C12.35,24.51,12.3,24.69,12.3,24.88z M15.81,26.03c0,0.09,0.02,0.19,0.06,0.3c0.09,0.22,0.24,0.38,0.46,0.47
	c0.14,0.04,0.24,0.06,0.31,0.06c0.14,0,0.26-0.03,0.34-0.08c0.22-0.09,0.38-0.23,0.46-0.42c0.1-0.17,0.11-0.39,0.02-0.67
	c-0.08-0.21-0.23-0.35-0.44-0.44l-0.36-0.09c-0.09,0.02-0.19,0.04-0.32,0.07c-0.22,0.08-0.37,0.23-0.45,0.44
	C15.84,25.8,15.81,25.92,15.81,26.03z"/>
</svg>
