<?xml version="1.0" encoding="utf-8"?>
<!-- Generator: Adobe Illustrator 22.0.1, SVG Export Plug-In . SVG Version: 6.00 Build 0)  -->
<svg version="1.1" id="Layer_1" xmlns="http://www.w3.org/2000/svg" xmlns:xlink="http://www.w3.org/1999/xlink" x="0px" y="0px"
	 viewBox="0 0 30 30" style="enable-background:new 0 0 30 30;" xml:space="preserve">
<path d="M4.63,16.91c0,1.11,0.33,2.1,0.99,2.97s1.51,1.47,2.56,1.79l-0.65,1.68c-0.03,0.14,0.02,0.22,0.14,0.22h2.13l-1.04,3.78
	h0.28l3.97-5.22c0.04-0.04,0.04-0.09,0.02-0.14s-0.07-0.07-0.14-0.07h-2.18l2.48-4.64c0.06-0.14,0.02-0.21-0.14-0.21h-2.94
	c-0.09,0-0.17,0.05-0.22,0.14L8.8,20.08c-0.71-0.18-1.3-0.57-1.77-1.16c-0.47-0.59-0.7-1.26-0.7-2.01c0-0.83,0.28-1.55,0.84-2.16
	s1.26-0.96,2.1-1.06l0.52-0.07c0.13,0,0.2-0.06,0.2-0.17l0.07-0.52c0.1-1.08,0.55-1.99,1.36-2.72c0.81-0.73,1.76-1.1,2.85-1.1
	c1.09,0,2.04,0.37,2.85,1.1c0.82,0.73,1.28,1.64,1.4,2.72l0.06,0.58c0,0.12,0.06,0.18,0.19,0.18h1.61c0.91,0,1.68,0.32,2.32,0.95
	c0.64,0.63,0.96,1.39,0.96,2.28c0,0.85-0.3,1.59-0.89,2.21c-0.59,0.62-1.32,0.96-2.19,1.03c-0.13,0-0.2,0.06-0.2,0.19v1.37
	c0,0.11,0.07,0.17,0.2,0.17c0.65-0.02,1.27-0.17,1.86-0.44c0.59-0.27,1.1-0.63,1.52-1.07c0.42-0.44,0.76-0.96,1.01-1.57
	c0.25-0.6,0.38-1.23,0.38-1.88c0-0.9-0.22-1.73-0.67-2.49c-0.45-0.76-1.05-1.36-1.81-1.8c-0.76-0.44-1.59-0.66-2.48-0.66h-0.32
	c-0.33-1.33-1.03-2.42-2.11-3.26c-1.08-0.84-2.3-1.27-3.68-1.27c-1.41,0-2.67,0.44-3.76,1.31s-1.79,1.99-2.1,3.36
	c-1.1,0.26-2.01,0.83-2.73,1.73S4.63,15.76,4.63,16.91z M12.79,26.77c0,0.16,0.05,0.31,0.15,0.46c0.1,0.15,0.26,0.26,0.46,0.32
	c0.14,0.03,0.22,0.05,0.25,0.05c0.09,0,0.21-0.03,0.38-0.1c0.21-0.09,0.35-0.27,0.42-0.52l0.28-1.05c0.06-0.22,0.04-0.43-0.08-0.63
	s-0.29-0.33-0.53-0.4c-0.22-0.06-0.43-0.04-0.63,0.08c-0.2,0.12-0.34,0.29-0.41,0.53l-0.27,1C12.8,26.68,12.79,26.77,12.79,26.77z
	 M14.13,22c0,0.14,0.05,0.29,0.15,0.44c0.1,0.15,0.25,0.26,0.45,0.33c0.22,0.07,0.44,0.06,0.64-0.05s0.33-0.28,0.4-0.52l0.3-1.04
	c0.06-0.22,0.03-0.43-0.08-0.63c-0.12-0.2-0.3-0.34-0.53-0.41c-0.23-0.06-0.44-0.04-0.65,0.08s-0.34,0.29-0.41,0.52l-0.24,1.01
	C14.14,21.9,14.13,21.99,14.13,22z M16.95,23.65c0,0.17,0.05,0.34,0.16,0.51c0.11,0.17,0.27,0.28,0.47,0.35
	c0.02,0,0.06,0.01,0.12,0.02c0.05,0.01,0.09,0.02,0.12,0.02c0.13,0,0.26-0.02,0.38-0.08c0.19-0.07,0.33-0.26,0.41-0.57l0.25-1.01
	c0.07-0.23,0.05-0.45-0.06-0.66c-0.11-0.21-0.28-0.35-0.5-0.42c-0.25-0.06-0.48-0.03-0.68,0.08c-0.2,0.12-0.33,0.3-0.37,0.53
	l-0.27,1.03C16.96,23.51,16.95,23.58,16.95,23.65z M18.31,18.86c-0.01,0.16,0.04,0.31,0.15,0.47c0.11,0.16,0.27,0.28,0.49,0.38
	c0.08,0.04,0.16,0.06,0.26,0.06c0.11,0,0.22-0.03,0.34-0.08c0.21-0.1,0.35-0.29,0.44-0.57l0.29-1.03c0.02-0.13,0.03-0.2,0.03-0.22
	c0-0.17-0.05-0.33-0.16-0.49s-0.27-0.27-0.49-0.33c-0.02,0-0.06-0.01-0.11-0.02C19.49,17,19.45,17,19.42,17
	c-0.17,0-0.33,0.05-0.49,0.15c-0.16,0.1-0.27,0.26-0.33,0.48l-0.27,1.01C18.32,18.72,18.31,18.79,18.31,18.86z"/>
</svg>
