<?xml version="1.0" encoding="utf-8"?>
<!-- Generator: Adobe Illustrator 22.0.1, SVG Export Plug-In . SVG Version: 6.00 Build 0)  -->
<svg version="1.1" id="Layer_1" xmlns="http://www.w3.org/2000/svg" xmlns:xlink="http://www.w3.org/1999/xlink" x="0px" y="0px"
	 viewBox="0 0 30 30" style="enable-background:new 0 0 30 30;" xml:space="preserve">
<path d="M2.75,15.36c0-0.25,0.1-0.48,0.3-0.69c0.22-0.19,0.46-0.29,0.7-0.29h2.33c0.27,0,0.49,0.1,0.67,0.29
	c0.18,0.19,0.27,0.43,0.27,0.69c0,0.29-0.09,0.53-0.27,0.72c-0.18,0.19-0.41,0.29-0.67,0.29H3.75c-0.27,0-0.5-0.1-0.7-0.3
	C2.85,15.86,2.75,15.62,2.75,15.36z M6.08,7.38c0-0.27,0.09-0.5,0.26-0.68C6.57,6.5,6.8,6.4,7.05,6.4c0.26,0,0.49,0.1,0.68,0.29
	l1.64,1.65c0.19,0.22,0.28,0.45,0.28,0.69c0,0.28-0.09,0.52-0.27,0.7s-0.4,0.28-0.66,0.28c-0.24,0-0.48-0.1-0.7-0.29L6.34,8.11
	C6.17,7.9,6.08,7.65,6.08,7.38z M8.08,20.88c0-0.28,0.1-0.51,0.29-0.68c0.18-0.17,0.4-0.26,0.68-0.26h2.63l3.11-2.92
	c0.1-0.08,0.21-0.08,0.34,0l3.16,2.92h2.77c0.27,0,0.5,0.09,0.69,0.28c0.19,0.18,0.29,0.41,0.29,0.67c0,0.27-0.1,0.5-0.29,0.69
	c-0.19,0.19-0.42,0.29-0.69,0.29h-3.38c-0.1,0-0.2-0.02-0.29-0.07l-2.41-2.27l-2.39,2.27c-0.08,0.05-0.17,0.07-0.28,0.07H9.05
	c-0.27,0-0.5-0.1-0.69-0.29C8.17,21.38,8.08,21.15,8.08,20.88z M9,15.36c0,0.97,0.21,1.85,0.62,2.64c0.02,0.12,0.11,0.18,0.25,0.18
	h1.88c0.07,0,0.12-0.03,0.15-0.08c0.03-0.06,0.02-0.12-0.02-0.19c-0.64-0.77-0.96-1.62-0.96-2.55c0-1.12,0.4-2.08,1.2-2.87
	c0.8-0.79,1.76-1.18,2.89-1.18c1.12,0,2.07,0.39,2.86,1.18c0.79,0.79,1.19,1.74,1.19,2.87c0,0.94-0.32,1.79-0.95,2.55
	c-0.04,0.07-0.05,0.13-0.03,0.19s0.07,0.08,0.15,0.08h1.9c0.13,0,0.21-0.06,0.23-0.18C20.8,17.23,21,16.35,21,15.36
	c0-0.81-0.16-1.59-0.48-2.32c-0.32-0.74-0.75-1.37-1.28-1.91c-0.53-0.53-1.17-0.96-1.91-1.28c-0.74-0.32-1.51-0.47-2.32-0.47
	c-0.81,0-1.59,0.16-2.33,0.47c-0.74,0.32-1.38,0.74-1.92,1.28c-0.54,0.53-0.97,1.17-1.29,1.91C9.16,13.77,9,14.54,9,15.36z
	 M14.03,6.4v-2.3c0-0.29,0.09-0.52,0.28-0.71s0.43-0.28,0.71-0.28c0.28,0,0.51,0.09,0.7,0.28S16,3.83,16,4.11v2.3
	c0,0.29-0.09,0.52-0.28,0.71c-0.18,0.18-0.42,0.28-0.7,0.28c-0.29,0-0.52-0.09-0.71-0.28C14.12,6.93,14.03,6.69,14.03,6.4z
	 M20.38,9.04c0-0.25,0.09-0.48,0.27-0.69l1.62-1.65c0.19-0.19,0.43-0.29,0.7-0.29c0.27,0,0.51,0.1,0.69,0.29
	c0.19,0.19,0.28,0.42,0.28,0.69c0,0.29-0.09,0.53-0.26,0.73L22,9.73c-0.21,0.19-0.45,0.29-0.7,0.29c-0.27,0-0.49-0.09-0.66-0.28
	S20.38,9.32,20.38,9.04z M22.99,15.36c0-0.27,0.09-0.5,0.27-0.69c0.18-0.19,0.4-0.29,0.66-0.29h2.35c0.27,0,0.5,0.1,0.69,0.29
	c0.19,0.19,0.29,0.43,0.29,0.69c0,0.28-0.1,0.51-0.29,0.71s-0.42,0.3-0.69,0.3h-2.35c-0.27,0-0.49-0.1-0.67-0.29
	C23.08,15.88,22.99,15.64,22.99,15.36z"/>
</svg>
