<?xml version="1.0" encoding="utf-8"?>
<!-- Generator: Adobe Illustrator 22.0.1, SVG Export Plug-In . SVG Version: 6.00 Build 0)  -->
<svg version="1.1" id="Layer_1" xmlns="http://www.w3.org/2000/svg" xmlns:xlink="http://www.w3.org/1999/xlink" x="0px" y="0px"
	 viewBox="0 0 30 30" style="enable-background:new 0 0 30 30;" xml:space="preserve">
<path d="M2.88,15.47c0-0.28,0.1-0.5,0.3-0.68c0.17-0.18,0.4-0.26,0.68-0.26h2.31c0.27,0,0.49,0.09,0.67,0.27
	c0.17,0.18,0.26,0.4,0.26,0.67c0,0.28-0.09,0.52-0.27,0.71c-0.18,0.19-0.4,0.29-0.66,0.29H3.87c-0.27,0-0.5-0.1-0.69-0.3
	C2.98,15.97,2.88,15.74,2.88,15.47z M6.17,7.61c0-0.28,0.08-0.51,0.25-0.68c0.2-0.2,0.43-0.3,0.7-0.3c0.29,0,0.51,0.1,0.68,0.3
	l1.62,1.63c0.46,0.44,0.46,0.89,0,1.35c-0.19,0.19-0.4,0.28-0.65,0.28c-0.22,0-0.44-0.09-0.68-0.28L6.43,8.29
	C6.26,8.11,6.17,7.88,6.17,7.61z M8.14,20.89c0-0.26,0.1-0.49,0.3-0.69c0.18-0.18,0.41-0.27,0.68-0.27h3.22
	c0.11,0,0.2,0.02,0.28,0.08l2.35,2.22L17.36,20c0.07-0.05,0.17-0.08,0.29-0.08h3.3c0.27,0,0.5,0.09,0.69,0.28
	c0.19,0.19,0.29,0.42,0.29,0.68c0,0.27-0.1,0.5-0.29,0.69c-0.19,0.19-0.42,0.29-0.69,0.29h-2.68l-3.14,2.84
	c-0.12,0.09-0.23,0.09-0.33,0l-3.08-2.84h-2.6c-0.27,0-0.5-0.1-0.69-0.29C8.24,21.39,8.14,21.16,8.14,20.89z M9.08,15.47
	c0,0.99,0.19,1.87,0.58,2.62c0.06,0.11,0.15,0.16,0.27,0.16h1.87c0.08,0,0.13-0.02,0.15-0.07c0.02-0.05-0.01-0.11-0.07-0.18
	c-0.59-0.74-0.89-1.59-0.89-2.53c0-1.1,0.39-2.04,1.18-2.81c0.79-0.77,1.74-1.16,2.85-1.16c1.1,0,2.04,0.39,2.83,1.16
	c0.78,0.78,1.18,1.71,1.18,2.8c0,0.94-0.3,1.79-0.89,2.53c-0.07,0.07-0.09,0.13-0.07,0.18c0.02,0.05,0.07,0.07,0.15,0.07h1.88
	c0.13,0,0.21-0.05,0.24-0.16c0.41-0.78,0.62-1.66,0.62-2.62c0-0.79-0.16-1.56-0.47-2.29s-0.74-1.37-1.27-1.9s-1.16-0.95-1.89-1.27
	c-0.73-0.32-1.5-0.47-2.3-0.47c-0.8,0-1.57,0.16-2.3,0.47c-0.73,0.32-1.36,0.74-1.89,1.27s-0.95,1.16-1.27,1.9
	S9.08,14.68,9.08,15.47z M14.04,6.66V4.33c0-0.27,0.1-0.5,0.29-0.69s0.42-0.29,0.69-0.29c0.27,0,0.5,0.1,0.69,0.29
	s0.29,0.42,0.29,0.69v2.32c0,0.27-0.1,0.5-0.29,0.69c-0.19,0.19-0.42,0.29-0.69,0.29c-0.27,0-0.5-0.1-0.69-0.29
	C14.13,7.15,14.04,6.93,14.04,6.66z M20.31,9.24c0-0.28,0.09-0.51,0.26-0.67l1.63-1.63c0.16-0.2,0.39-0.3,0.68-0.3
	c0.27,0,0.5,0.1,0.68,0.29c0.18,0.19,0.27,0.42,0.27,0.69c0,0.28-0.08,0.51-0.25,0.68l-1.66,1.63c-0.23,0.19-0.46,0.28-0.69,0.28
	c-0.26,0-0.48-0.09-0.66-0.28C20.4,9.74,20.31,9.51,20.31,9.24z M22.9,15.47c0-0.27,0.09-0.49,0.26-0.67
	c0.17-0.18,0.4-0.27,0.67-0.27h2.32c0.27,0,0.5,0.09,0.69,0.27c0.19,0.18,0.29,0.4,0.29,0.67c0,0.27-0.1,0.5-0.29,0.7
	c-0.19,0.2-0.42,0.3-0.69,0.3h-2.32c-0.26,0-0.48-0.1-0.66-0.29C22.99,15.99,22.9,15.75,22.9,15.47z"/>
</svg>
