<?xml version="1.0" encoding="utf-8"?>
<!-- Generator: Adobe Illustrator 22.0.1, SVG Export Plug-In . SVG Version: 6.00 Build 0)  -->
<svg version="1.1" id="Layer_1" xmlns="http://www.w3.org/2000/svg" xmlns:xlink="http://www.w3.org/1999/xlink" x="0px" y="0px"
	 viewBox="0 0 30 30" style="enable-background:new 0 0 30 30;" xml:space="preserve">
<path d="M4.25,12.68v-0.32c0-0.1,0.03-0.18,0.1-0.25c0.07-0.07,0.15-0.1,0.25-0.1h7.58c0.1,0,0.18,0.03,0.25,0.1
	c0.07,0.07,0.1,0.15,0.1,0.25v0.32c0,0.1-0.03,0.18-0.1,0.25c-0.07,0.07-0.15,0.1-0.25,0.1h-0.44v1.65h2.12
	c0.02-0.28,0.14-0.52,0.35-0.71c0.21-0.19,0.46-0.29,0.75-0.29c0.29,0,0.53,0.1,0.74,0.29c0.21,0.19,0.32,0.43,0.35,0.71h1.32v-3.39
	c-0.14-0.01-0.25-0.06-0.35-0.16c-0.1-0.1-0.15-0.23-0.15-0.37v-0.31c0-0.14,0.05-0.27,0.16-0.38s0.24-0.16,0.39-0.16h1.99
	c0.15,0,0.28,0.05,0.38,0.16s0.15,0.23,0.15,0.38v0.31c0,0.14-0.05,0.27-0.14,0.37c-0.09,0.1-0.2,0.16-0.34,0.16v3.39h1.56
	c0.27,0,0.51,0.1,0.71,0.3s0.3,0.44,0.3,0.71v2.93l3.73,4.87h-4.74v-3.04h-0.71c0.11,0.26,0.16,0.54,0.16,0.83
	c0,0.61-0.21,1.12-0.64,1.56c-0.43,0.43-0.95,0.65-1.55,0.65c-0.61,0-1.12-0.22-1.56-0.65c-0.43-0.43-0.65-0.95-0.65-1.56
	c0-0.29,0.05-0.57,0.16-0.83h-1c0.11,0.27,0.17,0.55,0.17,0.83c0,0.61-0.22,1.12-0.65,1.56s-0.95,0.65-1.56,0.65
	c-0.61,0-1.12-0.22-1.55-0.65s-0.64-0.95-0.64-1.56c0-0.29,0.05-0.57,0.16-0.83H9.97c0.12,0.29,0.18,0.57,0.18,0.83
	c0,0.61-0.22,1.12-0.65,1.56s-0.95,0.65-1.56,0.65s-1.12-0.22-1.56-0.65s-0.65-0.95-0.65-1.56c0-0.29,0.06-0.57,0.17-0.84
	c-0.24-0.04-0.45-0.15-0.61-0.34s-0.24-0.41-0.24-0.66v-0.86H5.03v-5.55H4.6c-0.1,0-0.18-0.03-0.25-0.1
	C4.28,12.86,4.25,12.78,4.25,12.68z M6.3,16.62c0,0.21,0.07,0.39,0.22,0.54c0.15,0.15,0.33,0.22,0.54,0.22h1.44
	c0.21,0,0.39-0.07,0.53-0.22c0.14-0.15,0.22-0.33,0.22-0.54v-2.3c0-0.21-0.07-0.38-0.22-0.53c-0.15-0.15-0.32-0.22-0.53-0.22H7.07
	c-0.21,0-0.39,0.07-0.54,0.23c-0.15,0.15-0.22,0.32-0.22,0.52V16.62z M15.78,5.43c0,0.41,0.16,0.76,0.47,1.04
	c0,0.2,0.09,0.43,0.26,0.68s0.36,0.4,0.56,0.44c0.04,0.22,0.15,0.41,0.31,0.57c0.16,0.15,0.36,0.25,0.59,0.3
	c-0.11,0.11-0.16,0.24-0.16,0.39c0,0.18,0.06,0.33,0.18,0.45c0.12,0.12,0.27,0.18,0.45,0.18c0.18,0,0.33-0.06,0.46-0.19
	c0.13-0.12,0.19-0.28,0.19-0.45c0-0.02,0-0.05-0.01-0.09c-0.01-0.04-0.01-0.08-0.01-0.1h0.03c0.21,0,0.39-0.08,0.54-0.23
	c0.15-0.15,0.23-0.34,0.23-0.55c0-0.1-0.04-0.22-0.12-0.38c0.17-0.09,0.31-0.25,0.41-0.47h0.45C21,7,21.34,6.85,21.61,6.57
	c0.28-0.28,0.42-0.61,0.42-1.01c0-0.34-0.11-0.64-0.33-0.9c-0.22-0.26-0.5-0.43-0.83-0.52c-0.08-0.4-0.29-0.73-0.62-0.99
	s-0.71-0.39-1.12-0.39c-0.41,0-0.77,0.13-1.08,0.38c-0.31,0.25-0.52,0.58-0.62,0.97h-0.11c-0.41,0-0.77,0.13-1.08,0.39
	C15.93,4.75,15.78,5.07,15.78,5.43z"/>
</svg>
