<?xml version="1.0" encoding="utf-8"?>
<!-- Generator: Adobe Illustrator 22.0.1, SVG Export Plug-In . SVG Version: 6.00 Build 0)  -->
<svg version="1.1" id="Layer_1" xmlns="http://www.w3.org/2000/svg" xmlns:xlink="http://www.w3.org/1999/xlink" x="0px" y="0px"
	 viewBox="0 0 30 30" style="enable-background:new 0 0 30 30;" xml:space="preserve">
<path d="M3.74,14.47c0-2.04,0.51-3.93,1.52-5.66s2.38-3.1,4.11-4.11s3.61-1.51,5.64-1.51c1.52,0,2.98,0.3,4.37,0.89
	s2.58,1.4,3.59,2.4s1.81,2.2,2.4,3.6s0.89,2.85,0.89,4.39c0,1.52-0.3,2.98-0.89,4.37s-1.4,2.59-2.4,3.59s-2.2,1.8-3.59,2.39
	s-2.84,0.89-4.37,0.89c-1.53,0-3-0.3-4.39-0.89s-2.59-1.4-3.6-2.4s-1.8-2.2-2.4-3.58S3.74,16,3.74,14.47z M6.22,14.47
	c0,2.37,0.86,4.43,2.59,6.18c1.73,1.73,3.79,2.59,6.2,2.59c1.58,0,3.05-0.39,4.39-1.18s2.42-1.85,3.21-3.2s1.19-2.81,1.19-4.39
	s-0.4-3.05-1.19-4.4s-1.86-2.42-3.21-3.21s-2.81-1.18-4.39-1.18s-3.05,0.39-4.39,1.18S8.2,8.72,7.4,10.07S6.22,12.89,6.22,14.47z
	 M9.51,14.46c0-0.23,0.08-0.43,0.24-0.59s0.36-0.24,0.59-0.24h3.79V7.81c0-0.23,0.08-0.43,0.24-0.59s0.36-0.24,0.59-0.24
	s0.43,0.08,0.59,0.24s0.24,0.36,0.24,0.59v6.67c0,0.23-0.08,0.43-0.24,0.59s-0.36,0.24-0.59,0.24c-0.1,0-0.16,0-0.19-0.01h-4.44
	c-0.23,0-0.43-0.08-0.59-0.25C9.59,14.88,9.51,14.68,9.51,14.46z"/>
</svg>
