<?xml version="1.0" encoding="utf-8"?>
<!-- Generator: Adobe Illustrator 22.0.1, SVG Export Plug-In . SVG Version: 6.00 Build 0)  -->
<svg version="1.1" id="Layer_1" xmlns="http://www.w3.org/2000/svg" xmlns:xlink="http://www.w3.org/1999/xlink" x="0px" y="0px"
	 viewBox="0 0 30 30" style="enable-background:new 0 0 30 30;" xml:space="preserve">
<path d="M4.64,14.65c0.01-0.34,0.18-0.86,0.5-1.58c0.32-0.72,0.76-1.48,1.33-2.3c1.86-2.61,4.49-3.98,7.88-4.13V6.21
	c0-0.21,0.07-0.37,0.21-0.5c0.14-0.13,0.3-0.19,0.48-0.19c0.19,0,0.35,0.06,0.5,0.19c0.14,0.13,0.22,0.3,0.22,0.5v0.44
	c0.98,0.04,1.9,0.19,2.75,0.45c0.85,0.26,1.59,0.59,2.22,1c0.63,0.41,1.17,0.83,1.61,1.27c0.45,0.43,0.85,0.9,1.2,1.41
	c0.41,0.59,0.77,1.23,1.06,1.9c0.29,0.67,0.5,1.21,0.61,1.61c0.11,0.4,0.17,0.6,0.18,0.61v0.19c0,0.18-0.07,0.32-0.21,0.44
	s-0.3,0.17-0.49,0.17c-0.31,0-0.51-0.09-0.6-0.26c-0.78-0.88-1.63-1.31-2.55-1.31c-0.34,0.02-0.69,0.1-1.03,0.23
	c-0.34,0.13-0.62,0.27-0.82,0.42c-0.21,0.14-0.4,0.29-0.58,0.44c-0.18,0.15-0.27,0.22-0.28,0.23c-0.19,0.17-0.37,0.26-0.53,0.26
	c-0.23,0-0.4-0.06-0.52-0.18c-0.73-0.73-1.39-1.17-2.01-1.32v7.57l0,0.17l-0.01,0.21l-0.04,0.23l-0.06,0.25l-0.09,0.26l-0.13,0.27
	l-0.17,0.26l-0.21,0.25c-0.51,0.59-1.23,0.88-2.18,0.88c-1.01,0-1.77-0.29-2.28-0.88c-0.12-0.12-0.22-0.25-0.31-0.38
	c-0.09-0.14-0.16-0.27-0.21-0.41c-0.05-0.13-0.09-0.26-0.12-0.38s-0.05-0.24-0.06-0.36C9.88,22,9.87,21.9,9.87,21.82s0-0.16,0-0.23
	s0.01-0.12,0.01-0.13c0-0.18,0.08-0.34,0.23-0.47c0.16-0.13,0.34-0.18,0.55-0.14c0.18,0,0.32,0.08,0.44,0.23s0.18,0.34,0.18,0.56
	c-0.06,0.41,0.02,0.76,0.25,1.05c0.21,0.29,0.65,0.44,1.32,0.44c0.52,0,0.9-0.12,1.13-0.36c0.13-0.13,0.23-0.29,0.29-0.48
	c0.06-0.19,0.09-0.34,0.08-0.47l-0.01-0.19v-7.36c-0.73,0.18-1.38,0.56-1.93,1.14c-0.04,0.08-0.12,0.16-0.23,0.23
	s-0.21,0.11-0.3,0.11c-0.18,0-0.38-0.11-0.6-0.34c-0.8-0.89-1.65-1.33-2.55-1.31c-0.4,0.01-0.78,0.07-1.12,0.2
	C7.26,14.43,7,14.56,6.82,14.69c-0.17,0.13-0.36,0.28-0.54,0.45s-0.29,0.27-0.32,0.29c-0.21,0.14-0.38,0.22-0.51,0.22
	s-0.3-0.06-0.48-0.17c-0.16-0.1-0.26-0.21-0.3-0.32C4.64,15.04,4.63,14.87,4.64,14.65z M6.73,13.23c0.68-0.36,1.32-0.53,1.92-0.53
	h0.08c1.15,0,2.2,0.44,3.15,1.33c0.38-0.33,0.84-0.62,1.39-0.88c0.54-0.26,1.13-0.41,1.77-0.45h0.08c1.15,0,2.2,0.44,3.15,1.33
	c0.38-0.33,0.84-0.62,1.39-0.88c0.54-0.26,1.13-0.41,1.77-0.45h0.09c0.56,0,1.15,0.15,1.75,0.44c-0.44-0.86-0.74-1.41-0.88-1.66
	c-1.79-2.34-4.27-3.51-7.43-3.51c-1.58,0-2.99,0.3-4.24,0.9c-1.24,0.6-2.26,1.47-3.05,2.61C7.44,11.82,7.12,12.41,6.73,13.23z"/>
</svg>
