<?xml version="1.0" encoding="utf-8"?>
<!-- Generator: Adobe Illustrator 22.0.1, SVG Export Plug-In . SVG Version: 6.00 Build 0)  -->
<svg version="1.1" id="Layer_1" xmlns="http://www.w3.org/2000/svg" xmlns:xlink="http://www.w3.org/1999/xlink" x="0px" y="0px"
	 viewBox="0 0 30 30" style="enable-background:new 0 0 30 30;" xml:space="preserve">
<path d="M7.39,22.61c-0.12-0.27-0.09-0.54,0.09-0.81l1.4-2.67c0.01-0.04,0.05-0.09,0.11-0.15c0.04-0.04,0.17-0.14,0.38-0.29
	c0.02-0.01,0.25-0.18,0.68-0.5c0.48-0.32,1.03-0.72,1.68-1.19l1.8-2.98c0.17-0.27,0.41-0.41,0.72-0.41h0.7
	c-0.16,0.19-0.31,0.39-0.45,0.6c-0.14,0.21-0.27,0.5-0.38,0.85c-0.12,0.36-0.18,0.71-0.18,1.07c0,0.36,0.09,0.77,0.28,1.25
	c0.19,0.47,0.48,0.94,0.88,1.39c0.27,0.31,0.44,0.62,0.5,0.93s0.02,0.58-0.1,0.83c-0.12,0.25-0.32,0.5-0.59,0.74
	c-0.27,0.24-0.56,0.45-0.88,0.63c-0.32,0.18-0.68,0.35-1.07,0.52c-0.39,0.17-0.75,0.3-1.05,0.41c-0.31,0.1-0.62,0.2-0.93,0.29H8.16
	c-0.16,0-0.32-0.05-0.46-0.14C7.55,22.89,7.45,22.77,7.39,22.61z M10.14,7.74c0-0.46,0.15-0.88,0.45-1.24
	c0.3-0.37,0.69-0.6,1.16-0.72c0.11-0.56,0.4-1.02,0.85-1.38s0.98-0.54,1.56-0.54c0.56,0,1.06,0.17,1.5,0.52s0.73,0.8,0.86,1.35h0.14
	c0.57,0,1.07,0.18,1.5,0.54c0.42,0.36,0.64,0.79,0.64,1.3c0,0.56-0.22,1.03-0.65,1.43c0,0.27-0.12,0.59-0.36,0.93
	c-0.24,0.35-0.5,0.55-0.78,0.61c-0.06,0.31-0.21,0.57-0.43,0.78c-0.23,0.22-0.5,0.36-0.82,0.43c0.15,0.16,0.22,0.34,0.22,0.54
	c0,0.25-0.09,0.46-0.26,0.63c-0.18,0.17-0.39,0.25-0.64,0.25c-0.24,0-0.45-0.09-0.63-0.26c-0.18-0.17-0.26-0.38-0.26-0.62
	c0-0.03,0.01-0.08,0.02-0.14s0.02-0.11,0.02-0.13H14.2c-0.29,0-0.54-0.11-0.75-0.32c-0.21-0.21-0.32-0.46-0.32-0.75
	c0-0.12,0.06-0.3,0.18-0.53c-0.24-0.12-0.43-0.33-0.57-0.63h-0.63c-0.54-0.05-1.01-0.27-1.39-0.65C10.34,8.76,10.14,8.29,10.14,7.74
	z M14.76,15.48c0-0.16,0.02-0.34,0.07-0.54c0.05-0.2,0.11-0.35,0.16-0.47c0.05-0.12,0.12-0.27,0.21-0.45
	c0.09-0.18,0.15-0.31,0.19-0.41h0.38c0.28,0,0.49,0.11,0.66,0.32l0.07,0.1l1.31,2.48l4.65,5.23l0.04,0.03
	c0.21,0.27,0.24,0.56,0.08,0.88c-0.15,0.31-0.4,0.46-0.75,0.46H16.2c0.17-0.16,0.32-0.29,0.44-0.39c0.12-0.11,0.27-0.27,0.45-0.49
	s0.33-0.43,0.42-0.61s0.17-0.42,0.23-0.69c0.06-0.27,0.07-0.53,0.01-0.79c-0.06-0.25-0.18-0.53-0.38-0.84
	c-0.19-0.31-0.46-0.61-0.81-0.91c-0.34-0.3-0.64-0.59-0.88-0.88c-0.24-0.28-0.43-0.54-0.56-0.76c-0.13-0.22-0.23-0.45-0.29-0.68
	C14.79,15.84,14.76,15.64,14.76,15.48z"/>
</svg>
