<?xml version="1.0" encoding="utf-8"?>
<!-- Generator: Adobe Illustrator 22.0.1, SVG Export Plug-In . SVG Version: 6.00 Build 0)  -->
<svg version="1.1" id="Layer_1" xmlns="http://www.w3.org/2000/svg" xmlns:xlink="http://www.w3.org/1999/xlink" x="0px" y="0px"
	 viewBox="0 0 30 30" style="enable-background:new 0 0 30 30;" xml:space="preserve">
<path d="M3.07,13.5c0,0.18,0.06,0.31,0.17,0.4c0.12,0.11,0.26,0.17,0.42,0.17h10.4c0.17,0,0.33,0.06,0.46,0.19
	c0.13,0.12,0.2,0.28,0.2,0.46s-0.07,0.34-0.2,0.47c-0.13,0.13-0.28,0.2-0.46,0.2c-0.18,0-0.34-0.07-0.47-0.21
	c-0.13-0.11-0.26-0.16-0.4-0.16c-0.16,0-0.3,0.05-0.41,0.16c-0.11,0.11-0.16,0.24-0.16,0.39c0,0.16,0.06,0.3,0.17,0.41
	c0.36,0.36,0.78,0.53,1.28,0.53s0.91-0.17,1.26-0.52c0.35-0.35,0.52-0.77,0.52-1.27c0-0.49-0.17-0.92-0.52-1.27
	c-0.35-0.35-0.77-0.53-1.26-0.53H3.66c-0.16,0-0.3,0.06-0.42,0.17C3.13,13.21,3.07,13.34,3.07,13.5z M3.07,11.48
	c0,0.17,0.06,0.3,0.17,0.39c0.12,0.11,0.26,0.16,0.42,0.16h13.81c0.49,0,0.92-0.18,1.27-0.52c0.35-0.35,0.52-0.77,0.52-1.27
	c0-0.49-0.17-0.91-0.52-1.26s-0.77-0.52-1.27-0.52c-0.49,0-0.91,0.17-1.27,0.51c-0.11,0.12-0.16,0.27-0.16,0.42
	c0,0.16,0.05,0.3,0.16,0.4c0.11,0.1,0.24,0.15,0.4,0.15c0.15,0,0.29-0.05,0.41-0.16c0.12-0.12,0.27-0.18,0.45-0.18
	c0.17,0,0.33,0.06,0.46,0.18c0.13,0.12,0.2,0.27,0.2,0.45c0,0.18-0.07,0.34-0.2,0.47c-0.13,0.13-0.28,0.2-0.46,0.2H3.66
	c-0.16,0-0.3,0.06-0.42,0.17C3.13,11.18,3.07,11.32,3.07,11.48z M15.96,21.9h2.47l1.65-7.99h-2.47L15.96,21.9z M19.51,21.9h6.62
	l0.4-1.9h-3.67v-0.02c0.2-0.09,0.49-0.22,0.86-0.37c0.38-0.15,0.69-0.28,0.95-0.38s0.54-0.25,0.86-0.44
	c0.32-0.19,0.58-0.38,0.77-0.58s0.36-0.45,0.5-0.75s0.21-0.64,0.21-1c0-0.56-0.14-1.02-0.43-1.4c-0.29-0.38-0.65-0.64-1.08-0.8
	c-0.43-0.16-0.92-0.23-1.45-0.23c-0.97,0-1.76,0.26-2.37,0.78c-0.61,0.52-0.98,1.29-1.1,2.31h2.07c0-0.38,0.11-0.69,0.33-0.95
	c0.22-0.26,0.53-0.38,0.93-0.38c0.3,0,0.52,0.08,0.67,0.24c0.15,0.16,0.22,0.34,0.22,0.55c0,0.32-0.11,0.58-0.33,0.76
	c-0.22,0.18-0.63,0.42-1.25,0.72c-0.04,0.01-0.07,0.02-0.08,0.04c-0.89,0.43-1.44,0.7-1.65,0.83c-0.79,0.47-1.34,1.06-1.65,1.74
	C19.68,21.03,19.57,21.44,19.51,21.9z"/>
</svg>
