<?xml version="1.0" standalone="no"?>
<!DOCTYPE svg PUBLIC "-//W3C//DTD SVG 1.1//EN" "http://www.w3.org/Graphics/SVG/1.1/DTD/svg11.dtd" >
<svg xmlns="http://www.w3.org/2000/svg">
<metadata></metadata>
<defs>
<font id="fontawesome_sizedregular" horiz-adv-x="1584" >
<font-face units-per-em="2048" ascent="1755" descent="-293" />
<missing-glyph horiz-adv-x="1403" />
<glyph horiz-adv-x="2340" />
<glyph horiz-adv-x="2340" />
<glyph unicode="&#xd;" horiz-adv-x="2340" />
<glyph unicode=" "  horiz-adv-x="1403" />
<glyph unicode="&#x09;" horiz-adv-x="1403" />
<glyph unicode="&#xa0;" horiz-adv-x="1403" />
<glyph unicode="!" horiz-adv-x="1856" d="M117 58q0 -23 16.5 -38t40.5 -15h1224q24 0 40 15t16 38q0 24 -16 40t-40 16h-1224q-24 0 -40.5 -16t-16.5 -40zM288 262q0 -24 17 -39q15 -17 39 -17h1224q23 0 38.5 16.5t15.5 39.5t-15.5 38t-38.5 15h-1224q-24 0 -40 -15t-16 -38zM297 422v2q-3 -15 9 -15h94 q7 0 14 10q23 51 69.5 84.5t101.5 37.5l36 4q11 0 11 12l5 33q10 106 89.5 177t186.5 71q106 0 185.5 -70.5t90.5 -175.5l4 -38q0 -11 13 -11h105q63 0 115 -34t77 -90q7 -10 14 -10h93q12 0 9 15q-24 61 -29 70q73 67 98 169l11 43q2 6 -1 10.5t-8 4.5l-40 14 q-88 25 -134.5 104t-24.5 168l10 39q3 10 -10 15l-54 16q-109 26 -212 -17.5t-162 -139.5q-81 30 -150 30q-138 0 -245 -86.5t-137 -220.5q-84 -20 -146.5 -79t-87.5 -142zM402 -143q0 -24 17 -39q15 -17 39 -17h1225q23 0 39.5 16.5t16.5 39.5t-16.5 38.5t-39.5 15.5h-1225 q-23 0 -39.5 -15.5t-16.5 -38.5zM1159 862q34 56 92.5 87t122.5 25q-6 -103 47 -193t145 -133q-15 -36 -49 -70q-90 75 -206 75h-22q-31 128 -130 209z" />
<glyph unicode="&#x22;" horiz-adv-x="1235" d="M133 372.5q-35 130.5 0 258.5q18 67 57 130.5t98 118.5t145 88.5t185 33.5q208 0 353 -147q96 -96 131.5 -224.5t0.5 -257.5q-18 -67 -57 -131t-98 -119.5t-145 -89t-185 -33.5q-208 0 -354 147q-96 95 -131 225.5zM227 502q0 -162 115 -277q114 -114 276 -114 q161 0 275.5 114.5t114.5 276.5q0 161 -114.5 275t-275.5 114q-162 0 -276.5 -114t-114.5 -275zM454 349l162 393q1 7 7 7t9 -7l67 -150q2 -6 11 -9l149 -68q7 -3 7 -9q0 -7 -7 -8l-393 -161q-6 -2 -9.5 1.5t-2.5 10.5z" />
<glyph unicode="#" horiz-adv-x="1235" d="M117 501q0 137 67.5 252.5t183 182t250.5 66.5t250.5 -66.5t183 -182t67.5 -252.5t-67.5 -252.5t-183 -182t-250.5 -66.5q-137 0 -252.5 67.5t-182 183t-66.5 250.5zM227 501q0 -160 116 -276q115 -115 275 -115q161 0 276 115t115 276t-115 275.5t-276 114.5 t-276 -114.5t-115 -275.5zM445 333l166 390q1 7 7 7t7 -7l166 -390q2 -7 -1.5 -11.5t-10.5 -0.5l-154 58q-7 3 -14 0l-155 -58q-7 -4 -10 0.5t-1 11.5z" />
<glyph unicode="'" horiz-adv-x="1235" d="M117 501q0 137 67.5 252.5t183 182t250.5 66.5t250.5 -66.5t183 -182t67.5 -252.5t-67.5 -252.5t-183 -182t-250.5 -66.5q-137 0 -252.5 67.5t-182 183t-66.5 250.5zM227 501q0 -160 116 -276q115 -115 275 -115q161 0 276 115t115 276t-115 275.5t-276 114.5 t-276 -114.5t-115 -275.5zM389 501q0 5 6 6l391 167q7 2 11.5 -1t0.5 -10l-59 -156q-3 -7 0 -13l59 -155q4 -7 -0.5 -10t-11.5 -1l-391 166q-6 1 -6 7z" />
<glyph unicode="(" horiz-adv-x="931" d="M119 401q0 -24 15 -39l165 -168q36 -36 80 0q16 16 16 39t-16 39l-73 74h455q23 0 38.5 15.5t15.5 38.5t-15.5 39.5t-38.5 16.5h-455l73 73q16 16 16 39t-15.5 39.5t-38.5 16.5q-24 0 -42 -16l-165 -168q-15 -15 -15 -39z" />
<glyph unicode=")" horiz-adv-x="933" d="M117 400q0 -23 17 -38q16 -16 40 -16h453l-73 -74q-17 -15 -17 -39t17 -39q12 -14 35.5 -15t42.5 15l168 168q16 16 16 39t-16 39l-168 168q-16 16 -39 16q-24 0 -40 -16.5t-16 -39.5q0 -24 17 -39l73 -73h-453q-23 0 -40 -16.5t-17 -39.5z" />
<glyph unicode="*" d="M117 321q0 -130 90.5 -222.5t221.5 -98.5q11 0 11 11v87q0 12 -11 12q-85 6 -143.5 67t-58.5 144t55 143t137 67l35 5q12 0 12 11l5 34q10 106 89 177t186 71t186.5 -70.5t90.5 -175.5l4 -38q0 -11 12 -11h105q88 0 151 -63t63 -150q0 -83 -58 -144t-143 -67 q-13 0 -13 -12v-87q0 -11 13 -11q131 6 220.5 98.5t89.5 222.5q0 133 -94.5 227.5t-228.5 94.5h-21q-32 130 -137.5 214t-239.5 84q-137 0 -244 -86.5t-137 -220.5q-108 -25 -178 -112.5t-70 -200.5zM522 239q0 -110 79.5 -190t189.5 -80q112 0 192 79.5t80 190.5 q0 23 -16.5 39.5t-39.5 16.5t-40 -16.5t-17 -39.5q0 -65 -46.5 -112t-112.5 -47q-65 0 -112 47t-47 112q0 59 35 104.5t86 49.5l-27 -25q-15 -15 -15 -38q0 -22 15 -42q13 -15 34.5 -15.5t45.5 15.5l119 121q16 16 16 38q0 24 -16 40l-119 119q-17 17 -40 17t-39 -16.5 t-16 -39.5t15 -38l23 -24q-98 -17 -162.5 -91t-64.5 -175z" />
<glyph unicode="," horiz-adv-x="1708" d="M117 382q0 -24 17 -39q17 -17 40 -17h909q26 0 45 -19t19 -45t-19 -44.5t-45 -18.5t-44 18q-16 16 -38 16q-23 0 -39.5 -16t-16.5 -38q0 -23 17 -38q52 -52 121 -52q72 0 124 50.5t52 122.5t-52 124t-124 52h-909q-23 0 -40 -16.5t-17 -39.5zM117 585q0 -23 17 -38 q16 -16 40 -16h1242q72 0 124 50.5t52 122.5t-52 123t-124 51t-121 -49q-17 -17 -17 -42q0 -24 15.5 -38.5t39.5 -14.5q23 0 38 15q19 19 45 19t44.5 -19t18.5 -45t-18.5 -44.5t-44.5 -18.5h-1242q-23 0 -40 -16.5t-17 -39.5z" />
<glyph unicode="." horiz-adv-x="1235" d="M133 372.5q-35 130.5 0 258.5q18 67 57 130.5t98 118.5t145 88.5t185 33.5q208 0 353 -147q96 -96 131.5 -224.5t0.5 -257.5q-18 -67 -57 -131t-98 -119.5t-145 -89t-185 -33.5q-208 0 -354 147q-96 95 -131 225.5zM227 502q0 -162 115 -277q114 -114 276 -114 q161 0 275.5 114.5t114.5 276.5q0 161 -114.5 275t-275.5 114q-162 0 -276.5 -114t-114.5 -275zM370 496q0 6 7 7l393 162q7 1 10.5 -2.5t1.5 -9.5l-161 -394q-1 -6 -7 -6q-9 0 -11 6l-67 150q-3 8 -9 10l-150 68q-7 3 -7 9z" />
<glyph unicode="/" d="M117 323q0 -130 90.5 -223.5t221.5 -99.5q11 0 11 11v87q0 12 -11 12q-84 5 -143 67t-59 146q0 81 55 141t137 70h35q12 0 12 11l5 38q11 106 89.5 177t185.5 71q106 0 186 -71.5t91 -176.5l4 -38q0 -11 12 -11h105q86 0 150 -63t64 -148t-59 -146.5t-142 -66.5 q-13 0 -13 -12v-87q0 -11 13 -11q130 4 220 98t90 225q0 133 -94.5 226.5t-228.5 93.5h-21q-32 131 -137.5 214.5t-239.5 83.5q-138 0 -244.5 -85.5t-136.5 -218.5q-108 -25 -178 -113t-70 -201z" />
<glyph unicode="0" horiz-adv-x="1494" d="M117 56q0 24 17 39q15 15 40 15h1148q23 0 39.5 -15.5t16.5 -38.5t-16.5 -39.5t-39.5 -16.5h-1148q-23 0 -40 16.5t-17 39.5zM240 575q0 24 15 39q15 17 40 17q23 0 38 -17l93 -94q17 -15 17 -39t-17 -39q-14 -17 -37 -17t-40 17l-94 94q-15 15 -15 39zM424 225 q-3 -15 9 -15h94q6 0 14 11q29 60 83.5 95t121.5 35q68 0 124 -35t85 -95q8 -11 14 -11h94q12 0 9 15q-32 106 -122 172.5t-204 66.5q-113 0 -201.5 -66.5t-120.5 -172.5zM693 630v133q0 24 15 40t38 16q24 0 40 -16t16 -40v-133q0 -24 -16 -40t-40 -16q-23 0 -38 16t-15 40 zM1051 481q0 23 16 39l96 94q15 17 39 17q23 0 38 -16t15 -40t-15 -39l-93 -94q-16 -16 -35 -17q-21 -2 -41 15.5t-20 40.5z" />
<glyph unicode="1" horiz-adv-x="1394" d="M0 672q0 23 17 40q16 16 39 16h134q23 0 38 -16t15 -40t-15 -40t-38 -16h-134q-23 0 -39.5 16.5t-16.5 39.5zM187 217q0 22 16 40l96 94q15 15 39 15q23 0 39 -15t16 -38t-16 -41l-94 -94q-40 -32 -80 0q-16 16 -16 39zM187 1126q0 22 16 40q18 16 42 16q22 0 38 -16 l94 -96q16 -16 16 -39t-16 -39t-39 -16t-39 16l-96 94q-16 16 -16 40zM355 672q0 140 101 241t241 101t241 -101t101 -241q0 -141 -100.5 -241.5t-241.5 -100.5t-241.5 100.5t-100.5 241.5zM466 672q0 -96 67.5 -164t163.5 -68t164 68t68 164q0 95 -68 162t-164 67 q-95 0 -163 -67t-68 -162zM641 31v130q0 24 16 40t40 16t40 -16t16 -40v-130q0 -24 -16.5 -40.5t-39.5 -16.5t-39.5 16.5t-16.5 40.5zM641 1179v134q0 23 16.5 39.5t39.5 16.5t39.5 -16.5t16.5 -39.5v-134q0 -23 -16 -38t-40 -15t-40 15t-16 38zM1003 313q0 23 15 38t38 15 q24 0 39 -15l96 -94q16 -18 16 -40q0 -23 -16 -39q-39 -32 -79 0l-94 94q-15 16 -15 41zM1003 1031q0 24 15 39l94 96q16 16 39 16t39.5 -16.5t16.5 -39.5q0 -24 -16 -40l-96 -94q-18 -16 -39 -16q-22 0 -37.5 16t-15.5 39zM1152 672q0 22 16 40q16 16 38 16h132 q23 0 40 -16.5t17 -39.5t-17 -39.5t-40 -16.5h-132q-23 0 -38.5 16.5t-15.5 39.5z" />
<glyph unicode="2" horiz-adv-x="1628" d="M117 672q0 -23 16 -38.5t41 -15.5h96q23 0 39.5 15.5t16.5 38.5q0 24 -16 40t-40 16h-96q-25 0 -41 -15.5t-16 -40.5zM217 319q0 -83 61 -144t144 -61h391q83 0 142 60t59 145q0 41 -12 70q72 46 113.5 121.5t41.5 161.5q0 141 -100.5 241.5t-241.5 100.5 q-143 0 -242.5 -100t-99.5 -242v-19q-86 -50 -113 -143q-65 -20 -104 -72t-39 -119zM306 1127q0 -24 15 -39l93 -96q40 -29 80 0q16 16 16 40t-16 40l-94 94q-18 16 -40 16q-24 0 -39 -15.5t-15 -39.5zM330 319q0 35 23 60.5t58 29.5l36 5q11 0 11 12l6 32q6 49 42 82.5 t84 33.5q50 0 86.5 -33.5t42.5 -82.5l4 -36q5 -13 14 -13h76q37 0 64 -26.5t27 -63.5q0 -38 -27 -66t-64 -28h-391q-38 0 -65 28t-27 66zM583 683q6 94 72.5 157.5t159.5 63.5q95 0 161.5 -67.5t66.5 -164.5q0 -60 -29 -111.5t-78 -82.5q-51 42 -117 42q-25 74 -87.5 118.5 t-141.5 44.5h-7zM759 1182q0 -23 16.5 -39.5t39.5 -16.5t39.5 16.5t16.5 39.5v133q0 23 -16.5 38.5t-39.5 15.5t-39.5 -15.5t-16.5 -38.5v-133zM1120 313q0 -24 15 -39l94 -93q36 -36 80 0q14 14 14 38t-14 38l-96 96q-15 15 -39 15t-39 -15.5t-15 -39.5zM1120 1033 q0 -25 15 -41q16 -16 39 -16t39 16l96 96q14 14 14 39q0 23 -16 39t-40 16q-22 0 -38 -16l-94 -94q-15 -15 -15 -39zM1269 672q0 -23 15 -38.5t38 -15.5h134q23 0 39.5 15.5t16.5 38.5q0 24 -16 40t-40 16h-134q-23 0 -38 -15.5t-15 -40.5z" />
<glyph unicode="3" horiz-adv-x="1918" d="M117 323q0 113 70.5 201t180.5 113q29 134 134.5 219t243.5 85q134 0 240 -82.5t137 -212.5h21q134 0 228.5 -95t94.5 -228t-94.5 -228t-228.5 -95h-704q-134 0 -228.5 95t-94.5 228zM227 323q0 -87 62.5 -149t150.5 -62h704q88 0 151 62.5t63 148.5t-63 148.5t-151 62.5 h-105q-12 0 -12 11l-4 38q-11 107 -90 177.5t-187 70.5q-107 0 -186 -71t-89 -177l-5 -33q0 -12 -12 -12l-35 -4q-82 -7 -137 -67.5t-55 -143.5zM898 985q-11 -11 6 -16q34 -13 81 -42q12 -3 17 2q70 65 161 65q92 0 160 -61t75 -151l7 -49h107q74 0 127.5 -53t53.5 -126 q0 -68 -47.5 -119t-115.5 -58q-11 0 -11 -12v-86q0 -13 11 -13q114 7 193 90.5t79 197.5q0 120 -85 205.5t-205 85.5h-11q-30 113 -125 186.5t-213 73.5q-160 0 -265 -120z" />
<glyph unicode="4" horiz-adv-x="947" d="M117 121h19l346 513q9 14 -7 14h-142l149 274q8 14 -9 14h-192q-11 0 -15 -9l-139 -373q-3 -13 9 -13h138zM545 440h14l263 386q9 14 -7 14h-105l109 203q9 15 -9 15h-138q-10 0 -15 -9l-105 -276q-3 -14 10 -14h103z" />
<glyph unicode="5" horiz-adv-x="732" d="M117 761q0 25 23.5 65t44.5 64q4 4 12.5 14t12.5 14l23 -27q26 -28 47.5 -66t21.5 -64q0 -38 -27 -66t-65 -28t-65.5 28t-27.5 66zM311 501q0 53 54 129q40 57 83 97q7 6 16 15l16 -15q34 -34 82 -96q54 -71 54 -130q0 -65 -44 -108.5t-108 -43.5t-108.5 44.5 t-44.5 107.5zM407 934q0 41 64 105l15 -17q45 -54 45 -88q0 -26 -17.5 -43.5t-42.5 -17.5q-28 0 -46 17.5t-18 43.5z" />
<glyph unicode="6" horiz-adv-x="916" d="M117 599q0 141 100 241.5t241 100.5h55q12 -3 12 -14l2 -42q2 -91 65.5 -155.5t153.5 -68.5l40 -4q12 0 12 -11v-47q1 -141 -99 -241.5t-241 -100.5q-143 0 -242 100t-99 242zM227 599q0 -95 68 -163t163 -68q83 0 147 53.5t81 135.5q-102 22 -173 95t-91 174 q-83 -13 -139 -77.5t-56 -149.5z" />
<glyph unicode="7" horiz-adv-x="1628" d="M117 370q0 23 17 40q18 16 40 16h132q23 0 38.5 -16.5t15.5 -39.5q0 -24 -15.5 -40.5t-38.5 -16.5h-132q-23 0 -40 17t-17 40zM306 825q0 24 15 39q18 16 40 16q23 0 39 -16l94 -94q16 -18 16 -40q0 -24 -16 -40t-38 -16q-21 0 -39 16l-96 94q-15 16 -15 41zM419 56 q0 23 18 39q15 15 38 15h150l177 167q9 8 20 0l180 -167h157q23 0 39.5 -15.5t16.5 -38.5t-16.5 -39.5t-39.5 -16.5h-192q-7 0 -17 5l-137 129l-136 -129q-10 -5 -16 -5h-186q-23 0 -39.5 16.5t-16.5 39.5zM473 370q0 -82 34 -149q3 -11 15 -11h108q7 0 9 4.5t-2 10.5 q-54 66 -54 145q0 96 68 163.5t164 67.5t163.5 -67.5t67.5 -163.5q0 -79 -54 -145q-4 -6 -2 -10.5t9 -4.5h108q11 0 14 11q36 69 36 149q0 141 -100.5 241.5t-241.5 100.5t-241.5 -100.5t-100.5 -241.5zM759 880v131q0 24 16 40t40 16t40 -16t16 -40v-131q0 -24 -16 -40 t-40 -16t-40 16t-16 40zM1120 730q0 24 15 40l94 94q16 16 38 16q24 0 40 -16t16 -39q0 -26 -14 -41l-96 -94q-18 -16 -40 -16q-23 0 -38 16t-15 40zM1269 370q0 24 15 40t38 16h134q23 0 39.5 -16.5t16.5 -39.5t-16.5 -40t-39.5 -17h-134q-23 0 -38 16.5t-15 40.5z" />
<glyph unicode="8" horiz-adv-x="1628" d="M117 368q0 24 17 39q15 15 40 15h132q23 0 38.5 -15.5t15.5 -38.5q0 -24 -15.5 -40.5t-38.5 -16.5h-132q-23 0 -40 17t-17 40zM306 821q0 23 15 38q18 18 40 18q23 0 39 -18l94 -93q40 -38 0 -78q-16 -16 -38 -16q-21 0 -39 16l-96 94q-15 15 -15 39zM419 56q0 22 18 40 q16 16 38 16h186q6 0 16 -5l136 -128l137 128q10 5 17 5h190q23 0 39.5 -16.5t16.5 -39.5t-16.5 -39.5t-39.5 -16.5h-155l-180 -163q-11 -8 -20 0l-177 163h-150q-23 0 -39.5 16.5t-16.5 39.5zM473 368q0 -84 34 -151q3 -9 15 -9h108q7 0 8.5 4.5t-4.5 10.5q-51 63 -51 145 q0 95 68 162t164 67q95 0 163 -67t68 -162q0 -81 -52 -145q-6 -6 -4 -10.5t9 -4.5h108q11 0 14 9q36 69 36 151q0 140 -101 241t-241 101t-241 -101t-101 -241zM759 875v134q0 23 16.5 39.5t39.5 16.5t39.5 -16.5t16.5 -39.5v-134q0 -23 -16.5 -39.5t-39.5 -16.5t-39.5 16.5 t-16.5 39.5zM1120 727q0 24 15 39l94 93q16 18 38 18q24 0 40 -16.5t16 -39.5q0 -25 -14 -39l-96 -94q-18 -16 -40 -16q-23 0 -38 16t-15 39zM1269 368q0 23 15 38.5t38 15.5h134q23 0 39.5 -15.5t16.5 -38.5t-16.5 -40t-39.5 -17h-134q-23 0 -38 16.5t-15 40.5z" />
<glyph unicode="9" horiz-adv-x="1628" d="M117 382q0 24 17 39q14 14 40 14h132q23 0 38.5 -15t15.5 -38t-15.5 -39.5t-38.5 -16.5h-132q-23 0 -40 16.5t-17 39.5zM176 56q0 24 17 39q15 15 39 15h1166q23 0 39.5 -15.5t16.5 -38.5t-16.5 -39.5t-39.5 -16.5h-1166q-23 0 -39.5 16.5t-16.5 39.5zM306 834 q0 24 15 39q17 17 40 17q24 0 39 -17l94 -94q16 -16 16 -38q0 -23 -16 -39t-39 -16q-22 0 -38 16l-96 93q-15 15 -15 39zM473 382q0 -83 34 -150q3 -9 15 -9h108q7 0 8.5 4t-4.5 10q-51 63 -51 145q0 95 68 162t164 67q95 0 163 -67t68 -162q0 -81 -52 -145q-3 -3 -3 -7 q-1 -4 1 -5.5t7 -1.5h108q11 0 14 9q36 69 36 150q0 140 -101 240.5t-241 100.5t-241 -100.5t-101 -240.5zM759 889v134q0 23 16.5 39.5t39.5 16.5t39.5 -16.5t16.5 -39.5v-134q0 -23 -16.5 -39.5t-39.5 -16.5t-39.5 16.5t-16.5 39.5zM1120 741q0 23 15 38l94 94 q15 17 38 17q24 0 40 -16.5t16 -39.5q0 -25 -14 -39l-96 -93q-16 -14 -39 -14q-23 -1 -38.5 14.5t-15.5 38.5zM1269 382q0 23 16 39q14 14 37 14h134q24 0 40 -15t16 -38t-16.5 -39.5t-39.5 -16.5h-134q-23 0 -38 16t-15 40z" />
<glyph unicode=":" horiz-adv-x="1516" d="M117 614q0 -61 64 -105q121 -83 353 -83q102 0 196 20q95 20 156 64.5t61 103.5q0 19 -6 36q122 29 192 80.5t70 118.5q0 16 -4 36q201 72 201 194q0 77 -88 138q-172 114 -506 114q-153 0 -285 -27q-137 -29 -222.5 -88.5t-85.5 -136.5q0 -45 28 -85q-105 -58 -105 -145 q0 -65 65 -116q-84 -48 -84 -119zM152 349q0 -65 80 -102t201 -37q122 0 203 37t81 102q0 24 -16 40t-40 16q-19 0 -35 -13.5t-20 -33.5q-16 -14 -64 -25.5t-109 -11.5q-94 0 -159 28q13 13 15.5 34.5t-8.5 35.5q-14 20 -36 24.5t-42 -8.5q-51 -36 -51 -86zM227 614 q1 1 11 10q22 22 90 41l7 2q144 -46 335 -46q88 0 152 9l16 -14q-5 -14 -38 -30q-35 -19 -109 -33.5t-157 -14.5t-157.5 14.5t-111.5 33.5q-33 15 -38 28zM234 117q0 -56 63.5 -86.5t158.5 -30.5q96 0 160.5 30.5t64.5 86.5q0 23 -16.5 40t-39.5 17q-19 0 -33.5 -12 t-20.5 -31q-34 -21 -115 -21q-73 0 -114 21q-6 19 -20.5 31t-33.5 12q-23 0 -38.5 -16.5t-15.5 -40.5zM246 849q0 7 9 17q20 25 84 52q170 -92 467 -92q142 0 284 29v-6q0 -10 -16 -26q-42 -34 -136 -61q-114 -32 -268 -32q-156 0 -270 32q-98 27 -137 61q-17 15 -17 26z M323 1079q0 15 21 34q38 36 158 72q123 37 304 37q182 0 306 -37q121 -36 158 -72q19 -19 19 -34q0 -14 -19 -33q-38 -37 -158 -73q-124 -37 -306 -37q-181 0 -304 37q-119 35 -158 73q-21 20 -21 33z" />
<glyph unicode=";" horiz-adv-x="1235" d="M133 372.5q-35 130.5 0 258.5q18 67 57 130.5t98 118.5t145 88.5t185 33.5q208 0 353 -147q96 -96 131.5 -224.5t0.5 -257.5q-18 -67 -57 -131t-98 -119.5t-145 -89t-185 -33.5q-208 0 -354 147q-96 95 -131 225.5zM227 502q0 -162 115 -277q114 -114 276 -114 q161 0 275.5 114.5t114.5 276.5q0 161 -114.5 275t-275.5 114q-162 0 -276.5 -114t-114.5 -275zM454 653q-1 7 2.5 10.5t9.5 1.5l393 -162q7 -1 7 -7t-7 -9l-149 -68q-8 -3 -11 -10l-67 -150q-2 -6 -9 -6q-6 0 -7 6z" />
<glyph unicode="?" horiz-adv-x="1235" d="M133 372.5q-35 130.5 0 258.5q18 67 57 130.5t98 118.5t145 88.5t185 33.5q208 0 353 -147q96 -96 131.5 -224.5t0.5 -257.5q-18 -67 -57 -131t-98 -119.5t-145 -89t-185 -33.5q-208 0 -354 147q-96 95 -131 225.5zM227 502q0 -162 115 -277q114 -114 276 -114 q161 0 275.5 114.5t114.5 276.5q0 161 -114.5 275t-275.5 114q-162 0 -276.5 -114t-114.5 -275zM370 506q0 6 7 9l150 68q5 4 9 9l67 150q3 7 11 7q6 0 7 -7l161 -393q3 -15 -12 -12l-393 161q-7 1 -7 8z" />
<glyph unicode="A" horiz-adv-x="1986" d="M117 323q0 -134 94 -228.5t227 -94.5h706q134 0 228.5 95t94.5 228q0 62 -27 131q74 92 74 216q0 142 -99.5 241.5t-241.5 99.5q-146 0 -253 -113q-76 43 -176 43q-137 0 -243 -85.5t-136 -218.5q-109 -25 -178.5 -113t-69.5 -201zM227 323q0 82 54.5 141.5t137.5 69.5 l32 2q13 0 13 11l5 36q13 106 91.5 177t183.5 71q107 0 187 -71t90 -177l4 -38q3 -11 14 -11h105q86 0 148.5 -62.5t62.5 -148.5q0 -88 -62 -150.5t-149 -62.5h-706q-85 0 -148 63.5t-63 149.5zM665 1123q0 -24 16 -40l42 -42q24 -17 42 -16q20 0 36 17t16 40q0 24 -17 39 l-39 42q-18 16 -40 16q-24 0 -40 -16.5t-16 -39.5zM1014 835q71 66 159 66q97 0 164.5 -67t67.5 -164q0 -61 -34 -120q-93 93 -227 93h-21q-26 109 -109 192zM1119 1179q0 -25 15.5 -40.5t38.5 -15.5q25 0 40.5 15.5t15.5 40.5v134q0 23 -15.5 38.5t-40.5 15.5 q-23 0 -38.5 -15.5t-15.5 -38.5v-134zM1479 1030q0 -25 15 -40q21 -16 40 -16q18 0 39 16l93 93q16 18 16 42q0 23 -16 38.5t-39 15.5q-21 0 -37 -16l-96 -93q-15 -16 -15 -40zM1531 258q0 -23 16 -41l43 -41q16 -16 37 -16q23 0 39 16.5t16 40.5q0 22 -16 38l-42 42 q-16 16 -38 16q-23 0 -39 -16t-16 -39zM1626 670q0 -23 17 -38q16 -16 40 -16h133q23 0 38.5 15.5t15.5 38.5t-15.5 39.5t-38.5 16.5h-133q-23 0 -40 -16.5t-17 -39.5z" />
<glyph unicode="B" horiz-adv-x="2457" d="M117 56q0 -23 16 -39q15 -17 38 -17h856q23 0 39.5 16.5t16.5 39.5t-16.5 38.5t-39.5 15.5h-856q-23 0 -38.5 -15.5t-15.5 -38.5zM288 253q0 -23 16 -39q15 -17 38 -17h857q23 0 39.5 16.5t16.5 39.5t-16.5 39.5t-39.5 16.5h-857q-23 0 -38.5 -16.5t-15.5 -39.5z M402 -150q0 -24 17 -39q15 -17 39 -17h857q23 0 38.5 16.5t15.5 39.5t-15.5 39.5t-38.5 16.5h-857q-23 0 -39.5 -16.5t-16.5 -39.5zM600 407q0 -9 11 -9h91q10 0 15 9q24 52 69.5 86t102.5 41h36q11 0 11 11l5 38q11 106 90 177t186 71q106 0 186 -71.5t91 -176.5l4 -38 q0 -11 12 -11h105q86 0 149 -62.5t63 -148.5q0 -88 -62.5 -150.5t-149.5 -62.5h-449q-12 0 -12 -12v-87q0 -11 12 -11h449q133 0 228 95t95 228q0 69 -28 131q75 94 75 213q0 140 -101 241t-241 101q-72 0 -137.5 -29t-112.5 -82q-80 43 -176 43q-138 0 -245 -85.5 t-137 -218.5q-82 -19 -145.5 -80.5t-88.5 -145.5q-1 -1 -1 -4zM1134 1120q0 -23 16 -39l41 -42q16 -16 40 -16t40 15.5t16 39.5q0 23 -16 39l-42 42q-16 16 -38 16q-24 0 -40.5 -16t-16.5 -39zM1483 835q64 61 160 61q95 0 162 -67t67 -162q0 -63 -30 -117q-93 93 -227 93 h-21q-27 111 -111 192zM1587 1175q0 -23 16.5 -38.5t39.5 -15.5t38.5 15.5t15.5 38.5v134q0 23 -15.5 39.5t-38.5 16.5t-39.5 -16.5t-16.5 -39.5v-134zM1947 1026q0 -23 16 -39q13 -16 40 -16q25 0 38 16l96 94q16 16 16 40q0 23 -16.5 39.5t-39.5 16.5q-24 0 -40 -16 l-94 -96q-16 -16 -16 -39zM2000 254q0 -24 15 -39l42 -41q23 -17 40 -17t40 17q16 16 16 39q0 22 -16 40l-42 40q-17 17 -41 17t-39 -16t-15 -40zM2097 667q0 -22 16 -38q16 -18 38 -18h134q23 0 39.5 16.5t16.5 39.5t-16.5 39.5t-39.5 16.5h-134q-23 0 -38.5 -16.5 t-15.5 -39.5z" />
<glyph unicode="C" horiz-adv-x="2054" d="M117 54q0 24 16.5 40t40.5 16h856q23 0 38 -15.5t15 -40.5q0 -23 -15 -38.5t-38 -15.5h-856q-24 0 -40.5 15.5t-16.5 38.5zM288 253q0 23 17 38q15 15 39 15h857q23 0 38.5 -15t15.5 -38t-15.5 -39.5t-38.5 -16.5h-857q-23 0 -39.5 16.5t-16.5 39.5zM402 -147q0 23 17 38 q15 15 39 15h857q24 0 40 -15t16 -38t-16.5 -39.5t-39.5 -16.5h-857q-23 0 -39.5 16.5t-16.5 39.5zM600 405q0 -10 11 -10h93q10 0 15 10q22 53 67.5 87.5t102.5 38.5l36 5q11 0 11 11l5 34q10 106 89.5 177t186.5 71t185.5 -70t91.5 -176l4 -38q0 -11 12 -11h105 q88 0 150 -62t62 -151q0 -86 -63 -148.5t-149 -62.5h-449q-12 0 -12 -12v-87q0 -11 12 -11h449q134 0 228.5 94t94.5 227t-94.5 227.5t-228.5 94.5h-21q-32 131 -137.5 214.5t-239.5 83.5q-138 0 -244 -86.5t-135 -220.5q-85 -19 -148.5 -79.5t-88.5 -143.5v-2q-1 -1 -1 -4z " />
<glyph unicode="D" horiz-adv-x="2285" d="M117 56q0 -24 17 -39q17 -17 40 -17h523q25 0 44.5 -18.5t19.5 -44.5t-19.5 -45t-44.5 -19q-24 0 -44 20q-18 16 -40 16q-23 0 -39 -16t-16 -39t16 -39q52 -52 123 -52q72 0 123 51t51 123t-51 123.5t-123 51.5h-523q-23 0 -40 -16.5t-17 -39.5zM117 253q0 -23 17 -38 q16 -16 40 -16h856q72 0 122.5 51t50.5 123t-50.5 122t-122.5 50q-75 0 -124 -49q-15 -16 -15 -40t15 -39t39 -15q23 0 40 15q18 18 45 18q25 0 44 -18t19 -44t-19 -45t-44 -19h-856q-23 0 -40 -16.5t-17 -39.5zM430 406q0 -8 10 -8h94q8 0 13 9q22 53 68 88t104 39l34 4 q13 0 13 12l4 33q11 106 90 177t186 71t186 -70.5t90 -177.5l5 -38q0 -11 11 -11h107q88 0 150 -62t62 -149t-62 -149t-150 -62h-451q-11 0 -11 -11v-90q0 -11 11 -11h451q133 0 227.5 94.5t94.5 228.5q0 71 -28 133q75 98 75 216q0 140 -101 241t-241 101q-152 0 -253 -113 q-78 40 -173 40q-138 0 -244 -85.5t-135 -218.5q-83 -19 -147 -79.5t-89 -143.5v-3q-1 -2 -1 -5zM963 1125q0 -23 18 -39l40 -43q16 -16 40 -16t39 15.5t15 39.5q0 25 -14 39l-43 42q-16 18 -39 18t-39.5 -16.5t-16.5 -39.5zM1311 838q69 66 161 66q95 0 163.5 -68.5 t68.5 -163.5q0 -63 -33 -120q-94 94 -226 94h-22q-22 105 -112 192zM1416 1179q0 -23 16 -38t40 -15t40 15t16 38v134q0 23 -16.5 39.5t-39.5 16.5t-39.5 -16.5t-16.5 -39.5v-134zM1778 1031q0 -24 15 -39q17 -17 40 -17t37 17l96 94q16 16 16 40q0 23 -16.5 39.5 t-39.5 16.5t-39 -16l-94 -96q-15 -15 -15 -39zM1829 259q0 -22 16 -38l42 -43q21 -16 40 -16q18 0 39 16q16 16 16 39q0 22 -16 40l-43 42q-16 16 -37 16q-24 0 -40.5 -16.5t-16.5 -39.5zM1927 672q0 -23 16 -39q15 -17 38 -17h132q23 0 39.5 16.5t16.5 39.5t-16.5 39.5 t-39.5 16.5h-132q-23 0 -38.5 -16.5t-15.5 -39.5z" />
<glyph unicode="E" horiz-adv-x="2101" d="M257 56q0 23 17 40q16 16 39 16h525q72 0 122.5 -51.5t50.5 -123.5t-50.5 -123t-122.5 -51t-124 52q-15 15 -15 39t15 39.5t39 15.5q22 0 40 -16q20 -20 45 -20t44 19t19 45t-19 44.5t-44 18.5h-525q-23 0 -39.5 16.5t-16.5 39.5zM257 253q0 23 17 40q16 16 39 16h857 q25 0 44 19t19 45t-19 44t-44 18q-26 0 -44 -18q-16 -15 -41 -15q-24 0 -39 15t-15 39t15 40q49 49 124 49q72 0 123 -50t51 -122t-51 -123t-123 -51h-857q-23 0 -39.5 15.5t-16.5 38.5zM570 406q0 -8 11 -8h93q10 0 14 9q22 53 67.5 88t103.5 39l35 4q12 0 12 12l5 33 q11 106 89.5 177t185.5 71q108 0 187 -70.5t90 -177.5l4 -38q0 -11 12 -11h105q88 0 151 -62.5t63 -148.5t-63 -148.5t-151 -62.5h-449q-12 0 -12 -11v-90q0 -11 12 -11h449q134 0 228.5 95t94.5 228t-94.5 228t-228.5 95h-21q-30 130 -135.5 212.5t-241.5 82.5 q-138 0 -243.5 -85.5t-134.5 -218.5q-83 -20 -147.5 -80.5t-89.5 -142.5v-3q-1 -2 -1 -5z" />
<glyph unicode="F" horiz-adv-x="1988" d="M117 323q0 -130 90.5 -223.5t221.5 -99.5q11 0 11 11v87q0 12 -11 12q-84 5 -143 67t-59 146q0 81 55 141t137 70l35 2q12 0 12 11l5 36q11 106 89.5 177t185.5 71q106 0 186 -71.5t91 -176.5l4 -38q0 -11 12 -11h105q86 0 150 -63t64 -148t-59 -146.5t-142 -66.5 q-13 0 -13 -12v-87q0 -11 13 -11q130 4 220 98t90 225q0 71 -27 131q77 95 77 216q0 141 -100.5 241t-241.5 100q-152 0 -253 -113q-80 43 -176 43q-138 0 -244.5 -85.5t-136.5 -218.5q-108 -25 -178 -113t-70 -201zM503 266q0 -37 28 -63.5t66 -26.5t64.5 26t26.5 64 q0 25 -22.5 66.5t-42.5 64.5q-10 11 -26 27l-23 -26q-26 -27 -48.5 -66.5t-22.5 -65.5zM665 1123q0 -24 16 -40l42 -42q21 -16 41 -15.5t38 15.5q16 18 16 41t-16 39l-41 42q-18 16 -40 17q-24 0 -40 -17t-16 -40zM697 7q0 -64 44.5 -108t107.5 -44q64 0 108.5 44.5 t44.5 107.5q0 53 -52 129q-35 48 -84 97q-8 6 -17 15l-15 -15q-31 -27 -83 -96q-54 -74 -54 -130zM793 440q0 -25 19 -43t45 -18q25 0 43 18t18 43q0 41 -61 105l-16 -17q-18 -19 -33 -45t-15 -43zM1014 835q66 66 161 66q96 0 163 -67.5t67 -163.5q0 -58 -34 -120 q-93 93 -227 93h-21q-27 113 -109 192zM1119 1180q0 -23 16.5 -40t39.5 -17t38.5 16.5t15.5 40.5v133q0 23 -15.5 38.5t-38.5 15.5t-39.5 -15.5t-16.5 -38.5v-133zM1479 1029q0 -24 17 -39q18 -16 37 -16q16 0 40 16l93 93q17 17 17 42q0 24 -16 39t-40 16q-21 0 -37 -17 l-94 -93q-17 -17 -17 -41zM1531 258q0 -23 16 -41l43 -39q14 -17 39 -17q23 0 37 17q17 15 17 39q0 23 -17 38l-40 42q-18 16 -40 16q-23 0 -39 -16t-16 -39zM1626 670q0 -23 17 -38q16 -16 40 -16h133q23 0 39.5 15.5t16.5 38.5t-16.5 39.5t-39.5 16.5h-133 q-23 0 -40 -16.5t-17 -39.5z" />
<glyph unicode="G" d="M117 323q0 113 70 201t178 113q30 133 136.5 218.5t244.5 85.5q134 0 239.5 -83.5t137.5 -214.5h21q134 0 228.5 -93.5t94.5 -226.5q0 -131 -90 -225t-220 -98q-13 0 -13 11v87q0 12 13 12q83 5 142 66.5t59 146.5t-64 148t-150 63h-105q-12 0 -12 11l-4 38 q-10 105 -90 176.5t-187 71.5t-185.5 -71t-89.5 -177l-5 -36q0 -11 -12 -11l-35 -2q-79 -4 -135.5 -66t-56.5 -145q0 -84 59 -146t143 -67q11 0 11 -12v-87q0 -11 -11 -11q-131 6 -221.5 99.5t-90.5 223.5zM503 266q0 25 23.5 66t44.5 65q10 11 26 27l22 -26 q26 -27 47.5 -66.5t21.5 -65.5q0 -38 -26.5 -64t-64.5 -26t-66 26.5t-28 63.5zM697 7q0 53 54 129q35 50 82 97q7 6 16 15l16 -15q34 -29 84 -96q53 -72 53 -130q0 -63 -44.5 -107.5t-108.5 -44.5q-63 0 -107.5 44t-44.5 108zM793 440q0 41 64 105l15 -17q46 -56 46 -88 q0 -25 -18 -43t-43 -18q-26 0 -45 18t-19 43z" />
<glyph unicode="H" horiz-adv-x="1988" d="M117 321q0 -130 91 -223.5t221 -97.5q11 0 11 11v87q0 12 -11 12q-83 5 -142.5 67t-59.5 144q0 81 55 140.5t137 69.5l35 5q12 0 12 11l5 34q10 107 89 178.5t186 71.5t187 -71.5t90 -176.5l4 -38q0 -11 12 -11h105q88 0 151 -63t63 -150q0 -83 -59 -145t-142 -66 q-13 0 -13 -12v-87q0 -11 13 -11q130 4 220 97.5t90 223.5q0 73 -27 133q77 95 77 216q0 140 -101 240.5t-241 100.5q-152 0 -253 -113q-80 43 -176 43q-138 0 -244.5 -85.5t-136.5 -218.5q-109 -28 -178.5 -115.5t-69.5 -200.5zM531 56q0 -23 15.5 -39.5t38.5 -16.5 t38.5 16.5t15.5 39.5q0 22 -15.5 38t-38.5 16t-38.5 -16t-15.5 -38zM531 -181q0 -21 16 -37t38 -16q23 0 38.5 15t15.5 38t-15.5 38.5t-38.5 15.5t-38.5 -15.5t-15.5 -38.5zM665 1122q0 -23 16 -39l42 -42q16 -16 36 -17q20 -2 39.5 15.5t19.5 40.5t-16 41l-41 40 q-15 17 -39 17t-40.5 -16.5t-16.5 -39.5zM739 -70q0 -23 16 -39t38 -16q23 0 39.5 16t16.5 39t-16.5 39.5t-39.5 16.5q-22 0 -38 -16.5t-16 -39.5zM739 166q0 -22 16 -38t38 -16q23 0 39.5 15.5t16.5 38.5t-16.5 39t-39.5 16q-22 0 -38 -16t-16 -39zM739 -309q0 -21 16 -37 t38 -16q24 0 40 15t16 38t-16.5 39.5t-39.5 16.5q-22 0 -38 -16.5t-16 -39.5zM950 56q0 -23 16 -39.5t39 -16.5t38 16t15 40q0 22 -15 38t-38 16t-39 -16t-16 -38zM950 -181q0 -21 16 -37t39 -16t38 15t15 38t-15 38.5t-38 15.5t-39 -15.5t-16 -38.5zM1014 835q71 66 161 66 q95 0 162.5 -68t67.5 -163q0 -61 -34 -120q-93 93 -227 93h-21q-27 113 -109 192zM1119 1177q0 -23 16.5 -38.5t39.5 -15.5t38.5 15.5t15.5 38.5v134q0 23 -15.5 39.5t-38.5 16.5t-39.5 -16.5t-16.5 -39.5v-134zM1479 1029q0 -24 17 -39q14 -15 36 -16.5t41 16.5l93 93 q17 17 17 40t-16.5 39.5t-39.5 16.5q-21 0 -37 -16l-94 -96q-17 -15 -17 -38zM1531 257q0 -24 16 -40l43 -41q24 -16 41 -16q20 0 36 17t16 40t-17 38l-40 42q-18 16 -40 16q-23 0 -39 -16.5t-16 -39.5zM1626 670q0 -24 17 -39q17 -17 40 -17h133q23 0 39.5 16.5t16.5 39.5 t-16.5 39.5t-39.5 16.5h-133q-23 0 -40 -16.5t-17 -39.5z" />
<glyph unicode="I" d="M117 321q0 113 69.5 200.5t178.5 115.5q30 133 136.5 218.5t244.5 85.5q134 0 239.5 -83.5t137.5 -214.5h21q134 0 228.5 -94.5t94.5 -227.5q0 -130 -90 -223.5t-220 -97.5q-13 0 -13 11v87q0 12 13 12q83 4 142 66t59 145q0 87 -63 150t-151 63h-105q-12 0 -12 11l-4 38 q-11 105 -91 176.5t-186 71.5q-107 0 -186 -71.5t-89 -178.5l-5 -34q0 -11 -12 -11l-35 -5q-82 -7 -137 -67t-55 -143q0 -82 59.5 -144t142.5 -67q11 0 11 -12v-87q0 -11 -11 -11q-130 4 -221 97.5t-91 223.5zM531 56q0 22 15.5 38t38.5 16t38.5 -16t15.5 -38 q0 -23 -15.5 -39.5t-38.5 -16.5t-38.5 16.5t-15.5 39.5zM531 -181q0 23 16 39q15 15 38 15t38.5 -15.5t15.5 -38.5t-15.5 -38t-38.5 -15t-38.5 15t-15.5 38zM739 -70q0 22 16 40q16 16 38 16q23 0 39.5 -16.5t16.5 -39.5t-16.5 -39t-39.5 -16q-22 0 -38 16t-16 39zM739 166 q0 23 16 39t38 16q23 0 39.5 -16t16.5 -39t-16.5 -38.5t-39.5 -15.5q-22 0 -38 15.5t-16 38.5zM739 -309q0 22 16 40q16 16 38 16q23 0 39.5 -16.5t16.5 -39.5t-16 -38t-40 -15q-22 0 -38 15t-16 38zM950 56q0 22 16 38t39 16t38 -16t15 -38q0 -24 -15 -40t-38 -16t-39 16.5 t-16 39.5zM950 -181q0 23 16 39q15 15 39 15q23 0 38 -15.5t15 -38.5t-15 -38t-38 -15t-39 15t-16 38z" />
<glyph unicode="J" horiz-adv-x="1988" d="M117 323q0 -130 90.5 -223.5t221.5 -99.5q11 0 11 11v87q0 12 -11 12q-84 5 -143 67t-59 146q0 81 55 141t137 70l35 2q12 0 12 11l5 36q11 106 89.5 177t185.5 71q106 0 186 -71.5t91 -176.5l4 -38q0 -11 12 -11h105q86 0 150 -63t64 -148t-59 -146.5t-142 -66.5 q-13 0 -13 -12v-87q0 -11 13 -11q130 4 220 98t90 225q0 71 -27 131q77 95 77 216q0 141 -100.5 241t-241.5 100q-152 0 -253 -113q-80 43 -176 43q-138 0 -244.5 -85.5t-136.5 -218.5q-108 -25 -178 -113t-70 -201zM442 -210q0 -16 11 -32t32 -22q12 -2 18 -2q38 0 49 41 l129 471q6 24 -5.5 43.5t-34.5 23.5q-22 7 -41 -3.5t-26 -32.5l-129 -474q0 -1 -1.5 -5.5t-1.5 -7.5zM611 -411q0 -45 44 -53q12 -2 17 -2q15 0 29.5 11t17.5 31l182 670q7 23 -4 42t-33 25q-23 7 -43 -3.5t-26 -32.5l-181 -670zM665 1123q0 -24 16 -40l42 -42 q19 -15 40 -15t38 15.5t17 38.5t-16 41l-41 42q-16 16 -39 16q-24 0 -40.5 -16.5t-16.5 -39.5zM882 -211q0 -16 10 -31.5t30 -21.5q12 -2 16 -2q45 0 52 41l129 471q7 23 -4.5 42t-33.5 25q-23 7 -42 -3.5t-25 -32.5l-129 -474q0 -2 -1.5 -6.5t-1.5 -7.5zM1014 835 q71 66 161 66q96 0 163 -67.5t67 -163.5q0 -61 -34 -120q-93 93 -227 93h-21q-27 113 -109 192zM1119 1177q0 -23 16.5 -38.5t39.5 -15.5t38.5 15.5t15.5 38.5v134q0 25 -15.5 40.5t-38.5 15.5q-24 0 -40 -16t-16 -40v-134zM1479 1029q0 -24 17 -39q14 -15 36 -16.5t41 16.5 l93 93q17 17 17 42q0 24 -16 39t-40 15q-21 0 -37 -16l-94 -93q-17 -17 -17 -41zM1531 257q0 -22 16 -40l43 -41q17 -14 39 -14l1 -1q22 0 37.5 16t15.5 40q0 23 -17 38l-40 42q-18 16 -40 16q-23 0 -39 -16.5t-16 -39.5zM1626 670q0 -24 17 -39q17 -17 40 -17h133 q23 0 39.5 16.5t16.5 39.5t-16.5 39.5t-39.5 16.5h-133q-23 0 -40 -16.5t-17 -39.5z" />
<glyph unicode="K" d="M117 323q0 113 70 201t178 113q30 133 136.5 218.5t244.5 85.5q134 0 239.5 -83.5t137.5 -214.5h21q134 0 228.5 -93.5t94.5 -226.5q0 -131 -90 -225t-220 -98q-13 0 -13 11v87q0 12 13 12q83 5 142 66.5t59 146.5t-64 148t-150 63h-105q-12 0 -12 11l-4 38 q-11 105 -91 176.5t-186 71.5q-107 0 -185.5 -71t-89.5 -177l-5 -36q0 -11 -12 -11l-35 -2q-82 -10 -137 -70t-55 -141q0 -84 59 -146t143 -67q11 0 11 -12v-87q0 -11 -11 -11q-131 6 -221.5 99.5t-90.5 223.5zM442 -210q0 2 0.5 4t1.5 4.5t1 4.5l129 474q6 19 21 28.5 t30 9.5q4 0 16 -2q23 -4 34.5 -23.5t5.5 -43.5l-129 -471q-11 -41 -54 -41q-4 0 -7 1t-6 1q-21 6 -32 22t-11 32zM614 -393l181 670q4 19 19.5 28.5t32.5 9.5q5 0 17 -2q22 -6 33 -25t4 -42l-182 -670q-4 -17 -19 -28.5t-33 -11.5q-9 0 -17 3q-19 4 -33 26q-5 9 -5 22 q0 9 2 20zM882 -211q0 3 1.5 7.5t1.5 6.5l129 474q6 19 20.5 28.5t29.5 9.5q5 0 17 -2q20 -6 30 -20t10 -30q0 -5 -2 -17l-129 -471q-4 -19 -18.5 -30t-33.5 -11l-16 2q-20 5 -30 21.5t-10 31.5z" />
<glyph unicode="L" horiz-adv-x="1986" d="M117 323q0 -130 90.5 -223.5t221.5 -99.5q11 0 11 11v87q0 12 -11 12q-83 5 -141 66.5t-58 146.5q0 82 54.5 141.5t137.5 69.5l32 2q12 0 12 11l5 36q11 106 89.5 177t185.5 71t187 -71t90 -177l4 -38q0 -11 12 -11h108q85 0 148 -63t63 -148q0 -83 -58 -145t-141 -68 q-12 0 -12 -12v-87q0 -11 12 -11q130 4 219 98t89 225q0 68 -27 128q74 92 74 214q0 142 -99.5 242t-241.5 100q-147 0 -248 -109q-80 43 -179 43q-138 0 -243.5 -85.5t-134.5 -218.5q-110 -25 -180.5 -113t-70.5 -201zM470 -113q0 -18 10.5 -35t29.5 -23t40 4.5t28 35.5 l16 68q7 20 -4 40.5t-33 27.5q-24 6 -44 -5.5t-24 -34.5l-18 -66q-1 -5 -1 -12zM554 194q0 -36 43 -51q21 -7 41 4t27 34l16 67q7 20 -4.5 40t-33.5 27q-24 6 -43.5 -4.5t-23.5 -33.5l-19 -67q0 -2 -1.5 -7t-1.5 -9zM634 -320q0 -16 11 -32.5t32 -22.5q12 -2 16 -2 q13 0 24 4q18 8 27 38l17 65q7 23 -4.5 43t-33.5 26q-23 7 -42.5 -4.5t-25.5 -33.5l-18 -67q0 -1 -1.5 -6t-1.5 -8zM664 1119q0 -25 17 -40l42 -42q16 -16 35.5 -16.5t41.5 16.5q16 18 16 40t-16 40l-41 42q-16 16 -39 15.5t-39.5 -16.5t-16.5 -39zM722 -8q0 -16 10.5 -32.5 t30.5 -22.5q22 -7 41.5 3t26.5 37l16 65q7 23 -4 43t-33 27q-24 6 -44 -5.5t-24 -34.5l-19 -67q-1 -3 -1 -13zM904 -120q2 -37 41 -54l16 -2q16 0 31.5 10t21.5 32l18 67q6 24 -5.5 43.5t-34.5 23.5q-20 7 -40 -4.5t-27 -33.5l-19 -67q-2 -12 -2 -15zM994 191q0 -16 10 -32 t30 -21l17 -2q19 0 33.5 11.5t18.5 30.5l18 65q7 23 -4.5 42.5t-33.5 25.5q-23 7 -42 -4t-25 -33l-19 -68q0 -2 -1.5 -7t-1.5 -8zM1016 833q68 63 157 63q96 0 164 -67.5t68 -163.5q0 -56 -31 -115q-93 93 -227 93h-21q-25 110 -110 190zM1117 1174q0 -24 16 -39.5t40 -15.5 t40 16t16 39v132q0 24 -16 40t-40 16t-40 -16t-16 -40v-132zM1479 1025q0 -25 15 -40q21 -16 40 -16q18 0 39 16l93 94q16 18 16 41t-16 39t-39 15q-22 0 -40 -15l-93 -94q-15 -17 -15 -40zM1530 254q0 -24 17 -41l40 -42q20 -20 42 -20q18 0 37 20q18 18 18 40t-18 39 l-42 43q-16 16 -38 16q-23 0 -39.5 -16t-16.5 -39zM1626 665q0 -22 16 -38t38 -16h134q25 0 40.5 15.5t15.5 38.5q0 24 -16 40t-40 16h-134q-23 0 -38.5 -16.5t-15.5 -39.5z" />
<glyph unicode="M" d="M117 321q0 113 70.5 200.5t180.5 112.5q29 134 134.5 220.5t243.5 86.5q136 0 242 -83.5t138 -214.5h21q133 0 226.5 -94t93.5 -228q0 -131 -89 -224t-219 -97q-12 0 -12 11v87q0 12 12 12q83 6 141 67t58 144q0 86 -63 149.5t-148 63.5h-106q-11 0 -14 11l-4 38 q-10 105 -89.5 175.5t-187.5 70.5q-107 0 -186 -71t-89 -177l-5 -36q0 -9 -10 -9l-34 -5q-82 -7 -137 -67t-55 -143q0 -85 58 -145.5t141 -65.5q11 0 11 -12v-87q0 -11 -11 -11q-131 6 -221.5 98.5t-90.5 222.5zM469 -118q0 3 2 15l18 68q6 22 25.5 33t42.5 4q22 -6 33 -25 t4 -42l-16 -66q-12 -43 -49 -43q-3 0 -10 1.5t-9 1.5q-21 6 -31 21.5t-10 31.5zM554 194q0 3 1.5 8t1.5 6l19 69q6 19 20.5 28.5t29.5 9.5q5 0 17 -2q22 -6 33.5 -25t4.5 -42l-16 -65q-7 -27 -26 -38.5t-42 -1.5q-21 6 -32 21.5t-11 31.5zM634 -322q0 3 0.5 5.5t1.5 5.5t1 5 l18 65q6 23 25.5 35t42.5 5q22 -6 33.5 -26t4.5 -43l-17 -67q-10 -40 -51 -40q-4 0 -16 2q-21 4 -32 20.5t-11 32.5zM721 -11q0 4 2 16l19 67q6 22 25.5 33.5t42.5 4.5q22 -6 33 -25.5t4 -42.5l-16 -65q-12 -43 -47 -43q-9 0 -21 3q-21 4 -31.5 19.5t-10.5 32.5zM904 -121 q0 4 2 16l19 65q7 23 26 34.5t41 5.5q23 -7 34.5 -26t5.5 -41l-18 -69q-10 -40 -52 -40q-5 0 -17 2q-20 4 -30 20t-11 33zM994 189q0 3 0.5 5.5t1.5 6t1 5.5l19 66q4 21 19 31q14 9 29 9h3h4q5 0 12 -1q21 -4 34 -25q6 -10 6 -24q0 -9 -2 -19l-16 -67q-12 -41 -49 -41 q-10 0 -22 3q-20 6 -30 20.5t-10 30.5z" />
<glyph unicode="N" horiz-adv-x="1988" d="M117 321q0 -109 65 -195t167 -115q8 -1 16 5l75 91q-86 0 -148 63t-62 151q0 82 54.5 141t137.5 69l32 3q12 0 12 11l5 36q11 106 89.5 177t185.5 71t187 -71t90 -177l4 -38q3 -12 14 -12h106q86 0 148.5 -62t62.5 -148q0 -82 -55.5 -143t-134.5 -68q-45 -4 -58 -19 l-308 -381q-13 -17 -9.5 -40.5t20.5 -37.5q14 -16 38 -13t38 23l290 358q121 13 204.5 105.5t83.5 215.5q0 70 -27 130q77 95 77 216q0 140 -101 241t-241 101q-146 0 -253 -113q-74 42 -176 42q-138 0 -243.5 -85.5t-134.5 -218.5q-110 -25 -180.5 -112.5t-70.5 -200.5z M272 -327q7 -20 30 -31q22 -10 43.5 -1t29.5 31q9 20 0 40.5t-29 30.5q-22 10 -43.5 1.5t-28.5 -30.5q-5 -14 -5 -25q0 -9 3 -16zM355 -550q0 -5 4 -19q9 -22 30 -30q11 -4 22 -4t21 3q20 9 29 29q10 22 1 43.5t-29 29.5q-22 9 -43.5 0.5t-29.5 -29.5q-5 -13 -5 -23z M390 -149v-6q2 -23 19 -37t41 -12t37 19l306 382q14 17 12 40.5t-19 36.5q-17 14 -40 11.5t-40 -19.5l-304 -380q-12 -15 -12 -35zM464 -395v-7q2 -23 21 -38q14 -16 38.5 -13.5t38.5 22.5l435 538q13 20 10 41.5t-20 38.5q-17 14 -40 11t-36 -20l-436 -540q-11 -14 -11 -33 zM666 1120q0 -24 17 -39l40 -42q16 -16 36 -17q20 -2 39.5 15.5t19.5 40.5t-16 39l-41 42q-16 16 -39 16t-39.5 -16t-16.5 -39zM693 -470q0 -11 4 -20q8 -20 29 -30q13 -5 23 -5q5 0 19 4q22 9 30 30q10 22 1 43t-29 29q-22 10 -43.5 1t-29.5 -29q-4 -11 -4 -23zM1014 833 q70 63 161 63q96 0 164 -67t68 -162q0 -63 -33 -120q-94 94 -227 94h-21q-25 110 -112 192zM1119 1175q0 -23 16.5 -38.5t39.5 -15.5t39.5 15.5t16.5 38.5v134q0 23 -16.5 39.5t-39.5 16.5t-39.5 -16.5t-16.5 -39.5v-134zM1481 1026q0 -24 15 -39q17 -17 40 -17t37 17l96 94 q16 16 16 40q0 23 -16.5 39.5t-39.5 16.5t-39 -16l-94 -96q-15 -15 -15 -39zM1531 254q0 -23 16 -39l43 -41q16 -16 35 -17h4q17 0 40 17q16 16 16 39q0 22 -16 40l-43 40q-15 17 -37 17q-24 0 -41 -16.5t-17 -39.5zM1629 667q0 -22 16 -38q16 -18 38 -18h133 q23 0 39.5 16.5t16.5 39.5t-16.5 38.5t-39.5 15.5h-133q-23 0 -38.5 -15.5t-15.5 -38.5z" />
<glyph unicode="O" horiz-adv-x="1581" d="M117 321q0 -109 63.5 -194t165.5 -116q8 -1 16 5l76 94q-87 0 -149 61.5t-62 149.5q0 83 55 143t137 67l35 5q10 0 10 9l5 36q13 108 90.5 178t184.5 70q108 0 187.5 -71t89.5 -177l4 -38q3 -12 14 -12h105q88 0 149.5 -61.5t61.5 -148.5q0 -81 -54.5 -141t-134.5 -70 q-4 0 -32 -4q-19 -3 -27 -15l-307 -381q-13 -17 -10 -40.5t20 -37.5q11 -13 37 -13t40 23l290 358q121 13 204.5 105.5t83.5 215.5q0 134 -94 228t-227 94h-21q-32 130 -137.5 212.5t-241.5 82.5q-138 0 -244 -85t-135 -219q-109 -25 -178.5 -112.5t-69.5 -200.5zM267 -307 q0 -6 4 -20q8 -20 28 -28q22 -10 44 -1.5t30 28.5q10 22 1.5 43t-30.5 28q-22 10 -42 1.5t-30 -30.5q-5 -13 -5 -21zM353 -547q0 -9 5 -21q9 -22 28 -31q11 -4 22 -4q12 0 21 4q20 9 29 28q10 22 1 43.5t-28 29.5q-22 9 -43.5 0.5t-29.5 -29.5q-5 -12 -5 -20zM387 -149v-6 q1 -22 20 -37q24 -13 40 -13q24 0 40 22l304 380q14 19 12 42q-2 21 -17 35t-34 14q-6 0 -9 -1q-22 -3 -37 -21l-306 -380q-13 -16 -13 -35zM462 -395v-7q2 -22 19.5 -36.5t36.5 -14.5q22 0 41 22l435 541q12 15 12 33v8q-2 22 -18 35t-35 13h-8q-23 -1 -36 -21l-436 -538 q-11 -15 -11 -35zM690 -470q0 -7 4 -19q9 -22 29 -31q11 -3 21 -3q13 0 22 4q20 9 29 28q6 11 6 23q0 10 -4 20q-9 20 -29 29l-23 5q-12 -2 -20 -4q-21 -8 -30 -29q-5 -13 -5 -23z" />
<glyph unicode="P" horiz-adv-x="2548" d="M-3 512q0 -205 122.5 -366t317.5 -220l-79 -209q-8 -27 16 -27h263l-298 -794h35l659 973q7 8 2 17t-17 9h-268l305 572q6 13 1.5 20t-18.5 7h-365q-16 0 -27 -19l-133 -356q-132 34 -218.5 144.5t-86.5 248.5q0 154 103.5 267.5t259.5 131.5l66 8q24 0 24 23l8 63 q20 199 169.5 334t353.5 135q199 0 351 -135.5t172 -333.5l10 -72q0 -22 21 -22h200q167 0 285.5 -117.5t118.5 -281.5q0 -157 -110 -273t-271 -127q-23 0 -23 -22v-169q0 -22 23 -22q121 4 230.5 54.5t188 132.5t125 193.5t46.5 232.5q0 129 -52 247q146 181 146 410 q0 131 -52 250.5t-139 206.5t-207.5 138.5t-251.5 51.5q-286 0 -478 -214q-151 80 -333 80q-262 0 -465.5 -162t-259.5 -414q-205 -48 -337.5 -214t-132.5 -380zM936 -879v-5q0 -24 16 -50q18 -28 57 -41q4 0 12.5 -2t12.5 -2q32 0 62.5 18.5t41.5 59.5l345 1266q5 17 5 33 q0 25 -12 47q-20 37 -61 49q-16 4 -32 4q-26 0 -49 -12q-37 -20 -49 -63l-344 -1270q-5 -17 -5 -32zM1038 2027q0 -43 31 -74l78 -80q31 -31 76 -31q1 0 1 -1q44 0 69 32q35 28 35 74q0 43 -31 74l-78 80q-34 29 -76 29q-44 0 -74.5 -30t-30.5 -73zM1450 -502q0 -25 12 -45 q23 -34 63 -55q33 -7 36 -7q19 0 40 9q38 16 52 72l244 893q5 16 5 32q0 25 -14 48q-22 37 -62 49q-16 4 -31 4q-26 0 -49 -12q-36 -20 -48 -63l-245 -897q0 -2 -1.5 -12.5t-1.5 -15.5zM1698 1483q126 119 305 119q181 0 309 -126.5t128 -306.5q0 -116 -64 -227 q-180 181 -430 181h-40q-57 218 -208 360zM1897 2130q0 -43 31.5 -74t74.5 -31t73 31t30 74v254q0 44 -30 75.5t-73 31.5t-74.5 -31.5t-31.5 -75.5v-254zM2581 1850q0 -44 32 -75q26 -31 70 -31t75 31l178 178q32 31 32 74t-31 75t-75 32q-45 0 -71 -33l-178 -178 q-32 -31 -32 -73zM2680 385q0 -44 31 -75l80 -78q27 -27 67 -30q6 0 13 -2q36 0 65 32q32 31 32 75q0 43 -32 75l-81 76q-28 32 -71 32t-73.5 -30.5t-30.5 -74.5zM2859 1169q0 -45 34 -74q33 -32 75 -32h253q43 0 74 31t31 75q0 43 -31 72t-74 29h-253q-46 0 -77.5 -29 t-31.5 -72z" />
<glyph unicode="Q" d="M117 323q0 -108 64.5 -193t167.5 -116l-43 -110q-3 -14 9 -14h139l-157 -419h18l348 513q4 4 1.5 9t-9.5 5h-142l161 301q8 14 -9 14h-192q-11 0 -15 -9l-69 -187q-70 17 -116 75.5t-46 130.5q0 81 55 141t137 70l35 4q12 0 12 12l5 33q11 106 89.5 177t185.5 71 q106 0 186 -71.5t91 -176.5l4 -38q0 -11 12 -11h105q88 0 151 -62.5t63 -148.5q0 -83 -58 -144t-143 -67q-13 0 -13 -11v-90q0 -11 13 -11q130 4 220 98t90 225q0 133 -94.5 228t-228.5 95h-21q-31 130 -137 212.5t-240 82.5q-138 0 -244.5 -85.5t-136.5 -218.5 q-108 -25 -178 -113t-70 -201zM611 -410q0 -40 39 -51q12 -2 16 -2q42 0 53 41l182 668q7 23 -4 42t-33 25q-12 2 -17 2q-16 0 -31.5 -9t-20.5 -29l-181 -670q0 -1 -1.5 -7t-1.5 -10zM882 -211q0 -13 7 -24q13 -21 33 -29q9 -3 20 -3q9 0 20 4q19 9 28 38l129 471q2 12 2 17 q0 15 -10 30t-30 20q-12 2 -17 2q-40 0 -50 -38l-129 -474q0 -2 -1.5 -6.5t-1.5 -7.5z" />
<glyph unicode="R" horiz-adv-x="1986" d="M117 323q0 -109 65 -194.5t167 -114.5l-43 -110q-3 -14 9 -14h139l-157 -419h18l348 513q4 4 1.5 9t-9.5 5h-142l161 301q8 14 -9 14h-192q-11 0 -15 -9l-69 -187q-70 17 -116 74.5t-46 131.5q0 82 54.5 141.5t137.5 69.5l32 2q12 0 15 9l5 38q11 106 89.5 177t185.5 71 q106 0 186 -71.5t91 -176.5l4 -38q0 -11 12 -11h105q86 0 148.5 -62.5t62.5 -148.5q0 -85 -57.5 -147t-140.5 -66q-13 0 -13 -12v-87q0 -11 13 -11q130 4 220 98t90 225q0 71 -27 131q74 94 74 213q0 140 -100.5 241t-240.5 101q-71 0 -137 -29.5t-114 -81.5q-80 43 -176 43 q-138 0 -244.5 -85.5t-136.5 -218.5q-108 -25 -178 -113t-70 -201zM648 -320q0 -15 10 -31t30 -22q12 -2 16 -2q12 0 25 5q21 9 28 37l18 67q6 24 -5.5 43.5t-34.5 23.5q-20 7 -40.5 -4.5t-27.5 -33.5l-17 -67q-2 -12 -2 -16zM663 1120q0 -23 16 -39l42 -42q16 -16 36 -17 q20 -2 39.5 15.5t19.5 40.5t-16 39l-41 42q-16 16 -39 16q-24 0 -40.5 -16t-16.5 -39zM735 -12q0 -14 9 -28q10 -15 31 -21t40.5 4t26.5 36l20 68q6 22 -5.5 41t-34.5 26q-22 6 -42 -5t-27 -34l-16 -68q-2 -13 -2 -19zM918 -118q0 -14 7 -25q12 -19 35 -28q12 -4 18 -4 q9 0 21 5q18 8 28 39l16 66q7 23 -3.5 42t-32.5 25q-23 7 -43 -4t-26 -33l-18 -68q-2 -12 -2 -15zM1007 194q0 -41 42 -53q8 -2 16 -2q12 0 24 5q19 9 28 37l18 65q6 24 -5.5 43.5t-34.5 23.5q-22 7 -41.5 -3.5t-26.5 -32.5l-18 -69q-2 -10 -2 -14zM1014 833q68 63 159 63 q95 0 162 -67t67 -162q0 -65 -31 -117q-93 93 -227 93h-21q-27 115 -109 190zM1117 1175q0 -23 16.5 -39.5t39.5 -16.5t38 16t15 40v134q0 24 -15 40t-38 16t-39.5 -16.5t-16.5 -39.5v-134zM1479 1026q0 -24 15 -39q14 -15 35.5 -16.5t40.5 16.5l94 94q17 15 17 39t-17 39 q-15 17 -39 17q-23 0 -38 -17l-93 -94q-15 -15 -15 -39zM1529 254q0 -23 16 -39l42 -41q18 -16 40 -16l2 -1q21 0 35 17q17 15 17 39q0 23 -17 40l-40 40q-17 17 -40 17t-39 -16.5t-16 -39.5zM1624 667q0 -23 17 -38q16 -18 39 -18h134q23 0 39.5 16.5t16.5 39.5t-16.5 38.5 t-39.5 15.5h-134q-23 0 -39.5 -15.5t-16.5 -38.5z" />
<glyph unicode="S" d="M117 323q0 -108 64.5 -193t167.5 -116l-43 -110q-3 -14 9 -14h139l-157 -419h18l348 513q4 4 1.5 9t-9.5 5h-142l161 301q8 14 -9 14h-192q-11 0 -15 -9l-69 -187q-70 17 -116 75.5t-46 130.5q0 81 55 141t137 70l35 4q12 0 12 12l5 33q11 106 89.5 177t185.5 71 q106 0 186 -71.5t91 -176.5l4 -38q0 -11 12 -11h105q88 0 151 -62.5t63 -148.5q0 -83 -58 -144t-143 -67q-13 0 -13 -11v-90q0 -11 13 -11q130 4 220 98t90 225q0 133 -94.5 228t-228.5 95h-21q-31 130 -137 212.5t-240 82.5q-138 0 -244.5 -85.5t-136.5 -218.5 q-108 -25 -178 -113t-70 -201zM648 -319q0 -15 10 -30t30 -21q1 0 7 -1.5t10 -1.5q8 0 24 6q21 10 28 34l18 69q6 22 -5.5 41t-34.5 26q-22 6 -41.5 -5.5t-26.5 -34.5l-17 -65q-2 -12 -2 -17zM735 -8q0 -36 40 -50q22 -7 41 3t26 34l20 68q6 22 -5.5 41t-34.5 26 q-22 6 -42 -5t-27 -34l-16 -66q-2 -12 -2 -17zM919 -115q0 -16 10.5 -33t30.5 -23q2 0 5 -1t5.5 -1.5t5.5 -0.5q11 0 24 5q18 8 27 38l16 66q7 23 -3.5 43t-32.5 27q-24 6 -44.5 -5.5t-24.5 -34.5l-18 -68q-1 -3 -1 -12zM1008 194q0 -35 41 -53q12 -4 17 -4q6 0 22 6 q20 10 29 38l18 67q2 10 2 14q0 41 -42 53q-2 0 -7 1.5t-8 1.5q-41 0 -53 -41l-18 -67q-1 -5 -1 -16z" />
<glyph unicode="T" horiz-adv-x="1988" d="M117 323q0 -130 90.5 -223.5t221.5 -99.5q11 0 11 11v87q0 12 -11 12q-84 5 -143 67t-59 146q0 81 55 141t137 70l35 2q12 0 12 11l5 36q11 106 89.5 177t185.5 71q106 0 186 -71.5t91 -176.5l4 -38q0 -11 12 -11h105q86 0 150 -63t64 -148t-59 -146.5t-142 -66.5 q-13 0 -13 -12v-87q0 -11 13 -11q130 4 220 98t90 225q0 71 -27 131q77 95 77 216q0 140 -101 240.5t-241 100.5q-152 0 -253 -113q-80 43 -176 43q-138 0 -244.5 -85.5t-136.5 -218.5q-108 -25 -178 -113t-70 -201zM448 -230q8 -20 30 -29q20 -10 40.5 -1.5t28.5 28.5 q10 22 1.5 42.5t-28.5 28.5q-20 10 -40.5 1.5t-30.5 -30.5q-5 -9 -5 -20q0 -9 4 -20zM489 -46q0 -14 7 -25q19 -30 57 -30q34 0 46 43l82 304q6 24 -5.5 43.5t-34.5 23.5q-22 7 -41 -3.5t-26 -32.5l-83 -306q-2 -12 -2 -17zM610 -410q0 -7 4 -19q9 -21 29 -29q12 -5 22 -5 q6 0 20 4q22 8 31 29t-1 43q-10 21 -29.5 29.5t-39.5 -0.5q-36 -15 -36 -52zM658 -235q0 -41 41 -53q12 -2 16 -2q15 0 26 4q19 8 27 38l133 494q7 23 -4 42t-33 25q-23 7 -43 -3.5t-26 -32.5l-134 -498q0 -2 -1.5 -6.5t-1.5 -7.5zM665 1122q0 -23 16 -39l42 -42 q16 -16 36 -17q20 -2 39.5 15.5t19.5 40.5t-16 39l-41 42q-18 16 -40 16q-24 0 -40 -16t-16 -39zM882 -210q0 -9 5 -21q8 -19 28 -28q13 -5 23 -5t20 3q20 9 29 29q8 22 0 41.5t-27 29.5q-22 10 -42.5 1.5t-30.5 -30.5q-5 -12 -5 -20zM929 -43q0 -15 10 -30t30 -21 q12 -2 16 -2q42 0 52 40l82 302q7 23 -4.5 42t-33.5 25q-23 7 -42 -3.5t-25 -32.5l-83 -303q-2 -12 -2 -17zM1014 835q68 63 161 63q95 0 162.5 -66.5t67.5 -161.5q0 -61 -34 -120q-93 93 -227 93h-21q-27 113 -109 192zM1119 1177q0 -23 16.5 -39.5t39.5 -16.5t38.5 16.5 t15.5 39.5v134q0 23 -15.5 39.5t-38.5 16.5t-39.5 -16.5t-16.5 -39.5v-134zM1479 1029q0 -24 17 -39q14 -17 37 -17t40 17l93 93q17 15 17 39q0 23 -16.5 39.5t-39.5 16.5q-22 0 -37 -17l-94 -94q-17 -15 -17 -38zM1531 256q0 -23 16 -39l43 -41q14 -17 39 -17q23 0 37 17 q17 15 17 39q0 23 -17 40l-42 40q-15 17 -38 17t-39 -16.5t-16 -39.5zM1626 670q0 -24 17 -39q17 -17 40 -17h133q23 0 39.5 16.5t16.5 39.5t-16 38t-40 15h-133q-24 0 -40.5 -15t-16.5 -38z" />
<glyph unicode="U" d="M117 323q0 -130 90.5 -223.5t221.5 -99.5q11 0 11 11v87q0 12 -11 12q-84 5 -143 67t-59 146q0 81 55 141t137 70l35 2q12 0 12 11l5 36q11 106 89.5 177t185.5 71q106 0 186 -71.5t91 -176.5l4 -38q0 -11 12 -11h105q86 0 150 -63t64 -148t-59 -146.5t-142 -66.5 q-13 0 -13 -12v-87q0 -11 13 -11q130 4 220 98t90 225q0 133 -94.5 226.5t-228.5 93.5h-21q-32 131 -137.5 214.5t-239.5 83.5q-138 0 -244.5 -85.5t-136.5 -218.5q-108 -25 -178 -113t-70 -201zM448 -230q8 -20 30 -29q20 -10 40.5 -1.5t28.5 28.5q10 22 1.5 42.5 t-28.5 28.5q-20 10 -40.5 1.5t-30.5 -30.5q-5 -9 -5 -20q0 -9 4 -20zM489 -46q0 -15 10 -29.5t30 -20.5q19 -11 41 -1t29 39l82 304q6 24 -5.5 43.5t-34.5 23.5q-12 2 -16 2q-38 0 -51 -38l-83 -306q-2 -12 -2 -17zM610 -410q0 -7 4 -19q9 -21 29 -29q12 -5 22 -5q6 0 20 4 q22 8 31 29t-1 43q-10 21 -29.5 29.5t-39.5 -0.5q-36 -15 -36 -52zM658 -240q0 -36 41 -48q12 -2 16 -2q15 0 26 4q19 8 27 38l133 494q7 23 -4 42t-33 25q-12 2 -17 2q-16 0 -32 -10t-20 -28l-134 -498q0 -2 -1.5 -8.5t-1.5 -10.5zM882 -210q0 -9 5 -21q8 -19 28 -28 q13 -5 23 -5t20 3q20 9 29 29q8 22 0 41.5t-27 29.5q-22 10 -42.5 1.5t-30.5 -30.5q-5 -12 -5 -20zM929 -42q0 -14 10.5 -30t29.5 -22q12 -2 17 -2q8 0 24 6q20 11 27 34l82 302q2 12 2 17q0 15 -10 30t-30 20q-12 2 -17 2q-15 0 -29.5 -9.5t-20.5 -28.5l-83 -303 q-2 -12 -2 -16z" />
<glyph unicode="V" horiz-adv-x="1988" d="M117 321q0 -130 89 -222.5t220 -98.5q12 0 12 11v87q0 12 -12 12q-83 5 -141 65.5t-58 145.5q0 83 55 143t137 67l35 5q10 0 10 9l5 36q13 108 90.5 178t184.5 70q108 0 187.5 -70.5t89.5 -175.5l4 -38q3 -11 14 -11h105q87 0 149 -62.5t62 -150.5q0 -85 -57.5 -145.5 t-140.5 -65.5q-13 0 -13 -12v-87q0 -11 13 -11q130 4 219 97t89 224q0 68 -25 130q77 95 77 219q0 140 -100.5 240.5t-241.5 100.5q-152 0 -253 -113q-86 43 -178 43q-137 0 -243 -86t-136 -221q-109 -25 -178.5 -112.5t-69.5 -200.5zM432 -261q0 -16 10.5 -32t30.5 -22 q22 -7 41.5 2t26.5 36l30 111q6 22 -5.5 41.5t-34.5 26.5q-22 6 -41 -5.5t-26 -34.5l-31 -110q-1 -3 -1 -13zM503 0q0 -22 16 -38t38 -16q23 0 38.5 15.5t15.5 38.5t-15.5 38.5t-38.5 15.5t-38.5 -15.5t-15.5 -38.5zM543 146q0 -36 40 -48q20 -6 40 4.5t27 33.5l31 110 q7 23 -4.5 42t-35.5 25q-22 7 -41 -3t-26 -33l-29 -111q-2 -12 -2 -20zM597 -464q0 -17 10.5 -32.5t31.5 -21.5q12 -2 16 -2q40 0 51 40l31 110q6 24 -5.5 44t-34.5 24q-20 7 -40 -4t-27 -33l-31 -110q-2 -12 -2 -15zM667 1122q0 -23 16 -39l43 -42q14 -15 35.5 -16.5 t40.5 16.5q16 16 16 39t-16 39l-41 42q-15 15 -39 17q-23 0 -39 -16.5t-16 -39.5zM670 -203q0 -22 16 -38t37 -16q23 0 38.5 15.5t15.5 38.5t-15.5 38t-38.5 15t-38 -15t-15 -38zM710 -58q0 -14 9 -28q10 -16 30 -19q22 -7 41.5 3t26.5 37l30 110q7 22 -4.5 41t-34.5 26 q-22 6 -42 -5.5t-27 -34.5l-27 -110q-2 -13 -2 -20zM869 -266q0 -16 10 -32t30 -21q14 -2 18 -2q37 0 49 42l31 111q7 20 -4.5 40t-33.5 27q-24 6 -44 -5.5t-27 -34.5l-27 -109q-2 -12 -2 -16zM938 -2q0 -22 16 -38t38 -16q23 0 38.5 15.5t15.5 38.5t-15.5 38t-38.5 15 t-38.5 -15t-15.5 -38zM978 149q0 -16 11 -31.5t32 -21.5q12 -2 17 -2q11 0 24 5q18 10 26 35l29 109q7 23 -4.5 42.5t-33.5 25.5q-23 7 -42.5 -4t-25.5 -33l-30 -111q0 -2 -1.5 -6.5t-1.5 -7.5zM1014 833q65 65 161 65q97 0 164.5 -66.5t67.5 -161.5q0 -64 -36 -123 q-96 96 -227 96h-21q-26 107 -109 190zM1121 1177q0 -23 15.5 -38.5t38.5 -15.5t39.5 15.5t16.5 38.5v134q0 23 -16.5 39.5t-39.5 16.5t-38.5 -16.5t-15.5 -39.5v-134zM1481 1029q0 -24 15 -39q18 -18 37.5 -18t41.5 18l94 93q16 16 16 40q0 23 -16 39.5t-39 16.5 q-22 0 -40 -16l-94 -96q-15 -15 -15 -38zM1533 256q0 -24 17 -39l40 -41q21 -16 40 -16q18 0 39 16q16 16 16 39q0 22 -16 40l-43 40q-14 17 -36.5 17t-39.5 -17q-17 -15 -17 -39zM1629 670q0 -24 17 -39q17 -17 40 -17h132q23 0 38.5 16.5t15.5 39.5t-15.5 39.5t-38.5 16.5 h-132q-23 0 -40 -16.5t-17 -39.5z" />
<glyph unicode="W" d="M117 321q0 -130 91 -223.5t221 -97.5q11 0 11 11v87q0 12 -11 12q-83 5 -142.5 67t-59.5 144q0 83 55 143t137 67l35 5q12 0 12 11l5 34q10 107 89 178.5t186 71.5q106 0 186 -71.5t91 -176.5l4 -38q0 -11 12 -11h105q88 0 151 -63t63 -150q0 -83 -59 -145t-142 -66 q-13 0 -13 -12v-87q0 -11 13 -11q130 4 220 97.5t90 223.5q0 133 -94.5 227.5t-228.5 94.5h-21q-32 131 -137.5 214.5t-239.5 83.5q-138 0 -244.5 -85.5t-136.5 -218.5q-109 -28 -178.5 -115.5t-69.5 -200.5zM433 -263q0 -15 10 -30t30 -20q23 -6 42 3.5t26 32.5l30 111 q7 23 -4 42.5t-33 25.5q-23 7 -43 -4.5t-27 -33.5l-29 -110q-2 -12 -2 -17zM503 0q0 -22 16 -38t38 -16q23 0 38.5 15.5t15.5 38.5t-15.5 38.5t-38.5 15.5t-38.5 -15.5t-15.5 -38.5zM543 151q2 -41 42 -53q22 -7 41.5 3t26.5 37l28 110q7 20 -4.5 40t-33.5 27q-1 0 -7 1.5 t-9 1.5q-43 0 -51 -41l-31 -111q-2 -12 -2 -15zM599 -466q0 -15 10 -31t30 -21q12 -2 18 -2h3q35 0 46 40l31 110q7 23 -4.5 42.5t-33.5 25.5q-23 7 -42.5 -4t-26.5 -33l-29 -110q-2 -12 -2 -17zM670 -203q0 -22 15 -38t38 -16t38.5 16t15.5 38q0 23 -15.5 39.5t-38.5 16.5 t-38 -16t-15 -40zM710 -53q0 -16 10.5 -32t30.5 -20q25 -6 43 4t25 36l28 110q7 22 -4 41t-33 26q-24 6 -44 -5.5t-24 -34.5l-30 -110q-2 -10 -2 -15zM869 -264q0 -17 10.5 -32t31.5 -19q3 0 10 -1.5t10 -1.5q35 0 47 39l31 111q6 24 -5.5 43.5t-34.5 23.5q-23 7 -42.5 -4 t-25.5 -33l-30 -110q-2 -12 -2 -16zM938 -2q0 -23 17 -38q16 -16 39 -16q22 0 38.5 15.5t16.5 38.5t-16.5 38t-38.5 15q-24 0 -40 -15t-16 -38zM978 149q0 -16 10.5 -31.5t32.5 -21.5q10 -2 13 -2q16 0 32 10t22 32l31 110q1 5 1 16q0 15 -10 29q-10 16 -31 22q-12 2 -15 2 q-41 0 -53 -41l-30 -111q0 -2 -1.5 -6.5t-1.5 -7.5z" />
<glyph unicode="X" horiz-adv-x="1986" d="M117 323q0 -130 90.5 -223.5t221.5 -99.5q11 0 11 11v90q0 11 -11 11q-85 6 -143.5 67t-58.5 144t55 143.5t137 67.5l35 4q12 0 12 12l5 33q11 106 89.5 177t185.5 71t186.5 -71t90.5 -177l4 -38q0 -11 12 -11h105q88 0 151 -62.5t63 -148.5q0 -83 -58 -144t-143 -67 q-13 0 -13 -11v-90q0 -11 13 -11q130 4 220 98t90 225q0 68 -30 135q77 94 77 214q0 142 -100 242t-241 100q-152 0 -253 -113q-85 40 -174 40q-138 0 -244.5 -85t-136.5 -219q-108 -25 -178 -113t-70 -201zM606 -411h19l346 512q4 5 2.5 9t-8.5 4h-143l149 275q7 13 -9 13 h-192q-8 0 -13 -9l-141 -372q-3 -14 9 -14h141zM663 1126q0 -24 16 -40l42 -43q21 -16 41 -15.5t38 15.5q16 18 16 42q0 22 -16 38l-41 43q-18 16 -40 16q-23 0 -39.5 -16.5t-16.5 -39.5zM1011 838q66 66 162 66q95 0 162 -67.5t67 -164.5q0 -61 -33 -118q-95 92 -225 92 h-21q-25 110 -112 192zM1117 1182q0 -24 16 -40t40 -16q23 0 38 15.5t15 40.5v133q0 23 -15 38.5t-38 15.5t-39.5 -15.5t-16.5 -38.5v-133zM1477 1031q0 -24 17 -39q18 -16 36 -16q16 0 40 16l94 94q17 17 17 41t-16 39.5t-40 15.5q-22 0 -38 -16l-93 -94q-17 -17 -17 -41z M1529 261q0 -22 16 -40l42 -43q16 -16 38 -16q23 0 39.5 16.5t16.5 40.5q0 23 -17 38l-40 42q-18 16 -40 16q-23 0 -39 -15.5t-16 -38.5zM1624 672q0 -23 17 -38q16 -16 39 -16h134q23 0 39.5 15.5t16.5 38.5t-16.5 39.5t-39.5 16.5h-134q-23 0 -39.5 -16.5t-16.5 -39.5z " />
<glyph unicode="Y" d="M117 323q0 113 70 201t178 113q30 134 136.5 219t244.5 85q134 0 240 -82.5t137 -212.5h21q134 0 228.5 -95t94.5 -228q0 -131 -90 -225t-220 -98q-13 0 -13 11v90q0 11 13 11q85 6 143 67t58 144q0 86 -63 148.5t-151 62.5h-105q-12 0 -12 11l-4 38q-11 106 -90.5 177 t-186.5 71t-185.5 -71t-89.5 -177l-5 -33q0 -12 -12 -12l-35 -4q-82 -7 -137 -67.5t-55 -143.5t58.5 -144t143.5 -67q11 0 11 -11v-90q0 -11 -11 -11q-131 6 -221.5 99.5t-90.5 223.5zM606 -411h19l346 512q0 1 2 3q1 1 1 2v4q-1 4 -9 4h-143l149 275l2 4l1 2q0 7 -12 7 h-192q-8 0 -13 -9l-141 -372q-3 -14 9 -14h141z" />
<glyph unicode="Z" horiz-adv-x="1856" d="M117 54q0 24 16.5 40t40.5 16h1224q24 0 40 -16t16 -40q0 -23 -16.5 -38.5t-39.5 -15.5h-1224q-24 0 -40.5 15.5t-16.5 38.5zM288 259q0 24 17 39q15 15 39 15h1224q23 0 38.5 -15.5t15.5 -38.5t-15.5 -39.5t-38.5 -16.5h-1224q-23 0 -39.5 16.5t-16.5 39.5zM296 416 q0 -9 10 -9h94q7 0 14 10q23 51 69.5 84t101.5 37l36 5q11 0 11 11l5 33q10 106 89.5 177t186.5 71q106 0 185.5 -70t90.5 -175l4 -38q0 -11 13 -11h105q63 0 115 -34t77 -90q7 -10 14 -10h93q12 0 9 15q-29 100 -114 164t-194 64h-22q-32 131 -137 214t-239 83 q-138 0 -245 -86t-137 -220q-83 -20 -146 -79.5t-88 -142.5v3q-1 -2 -1 -6zM402 -147q0 23 17 38q15 15 39 15h1225q24 0 40 -15t16 -38t-16.5 -39.5t-39.5 -16.5h-1225q-23 0 -39.5 16.5t-16.5 39.5z" />
<glyph unicode="[" horiz-adv-x="680" d="M119 528q0 -24 15 -41q16 -16 39 -16q22 0 40 16l73 75v-455q0 -24 16 -40t40 -16q23 0 38 16t15 40v455l74 -75q39 -31 78 0q15 17 15 41t-15 39l-168 166q-15 17 -38 17q-24 0 -39 -17l-168 -166q-15 -15 -15 -39z" />
<glyph unicode="\" d="M117 323q0 -130 90.5 -223.5t221.5 -99.5q11 0 11 11v87q0 12 -11 12q-84 5 -143 67t-59 146q0 81 55 141t137 70h35q12 0 12 11l5 38q11 106 89.5 177t185.5 71q106 0 186 -71.5t91 -176.5l4 -38q0 -11 12 -11h105q86 0 150 -63t64 -148t-59 -146.5t-142 -66.5 q-13 0 -13 -12v-87q0 -11 13 -11q130 4 220 98t90 225q0 133 -94.5 226.5t-228.5 93.5h-21q-32 131 -137.5 214.5t-239.5 83.5q-138 0 -244.5 -85.5t-136.5 -218.5q-108 -25 -178 -113t-70 -201zM569 282q0 -23 16 -41q15 -15 40 -15q23 0 40 15l72 74v-259 q0 -23 15.5 -39.5t38.5 -16.5t39.5 16.5t16.5 39.5v257l73 -72q40 -29 79 0q16 14 16 40q0 24 -16 40l-168 168q-16 16 -39 16t-39 -16l-168 -168q-16 -16 -16 -39z" />
<glyph unicode="]" horiz-adv-x="683" d="M119 274q0 -22 17 -37l166 -170q16 -16 40 -16t40 16l165 170q18 16 18 37q0 23 -16 39t-39 16t-39 -16l-73 -72v454q0 23 -16.5 38.5t-39.5 15.5t-39.5 -15.5t-16.5 -38.5v-454l-73 72q-16 16 -39 16t-39 -16t-16 -39z" />
<glyph unicode="a" horiz-adv-x="1630" d="M117 323q0 -134 94 -228.5t227 -94.5h706q134 0 228.5 95t94.5 228q0 62 -27 131q74 92 74 216q0 142 -99.5 241.5t-241.5 99.5q-146 0 -253 -113q-76 43 -176 43q-137 0 -243 -85.5t-136 -218.5q-109 -25 -178.5 -113t-69.5 -201zM227 323q0 82 54.5 141.5t137.5 69.5 l45 2l5 47q13 106 91.5 177t183.5 71q107 0 187 -71t90 -177l6 -49h117q86 0 148.5 -62.5t62.5 -148.5q0 -88 -62 -150.5t-149 -62.5h-706q-85 0 -148 63.5t-63 149.5zM1014 835q71 66 159 66q97 0 164.5 -67t67.5 -164q0 -61 -34 -120q-93 93 -227 93h-21q-26 109 -109 192 z" />
<glyph unicode="b" horiz-adv-x="2101" d="M117 56q0 -24 17 -39q17 -17 40 -17h856q23 0 38 16t15 40t-15 40t-38 16h-856q-23 0 -40 -16.5t-17 -39.5zM288 253q0 -23 17 -38q16 -16 39 -16h857q23 0 38.5 15.5t15.5 38.5t-15.5 39.5t-38.5 16.5h-857q-23 0 -39.5 -16.5t-16.5 -39.5zM402 -145q0 -23 17 -38 q16 -16 39 -16h857q23 0 39.5 15.5t16.5 38.5t-16.5 39.5t-39.5 16.5h-857q-23 0 -39.5 -16.5t-16.5 -39.5zM599 405q0 -7 12 -7h93q10 0 15 9q22 53 67.5 88t102.5 39l36 4q11 0 11 12l5 33q11 106 90 177t186 71q108 0 187 -70.5t90 -177.5l4 -38q0 -11 12 -11h105 q88 0 150 -62t62 -149t-62 -149t-150 -62h-449q-12 0 -12 -11v-90q0 -11 12 -11h449q133 0 228 95t95 228q0 69 -28 131q75 98 75 213q0 141 -100.5 241.5t-241.5 100.5q-149 0 -250 -108q-85 40 -176 40q-138 0 -244 -85t-135 -219q-85 -20 -148.5 -79t-88.5 -141z M1483 835q67 63 160 63q96 0 163.5 -67.5t67.5 -163.5q0 -61 -32 -115q-97 94 -227 94h-21q-24 105 -111 189z" />
<glyph unicode="c" horiz-adv-x="2124" d="M117 54q0 -23 16.5 -38.5t40.5 -15.5h856q23 0 38 15.5t15 38.5q0 25 -15 40.5t-38 15.5h-856q-24 0 -40.5 -16t-16.5 -40zM288 253q0 -24 17 -39q15 -17 39 -17h857q23 0 38.5 16.5t15.5 39.5t-15.5 38t-38.5 15h-857q-24 0 -40 -15t-16 -38zM402 -147q0 -24 17 -39 q15 -17 39 -17h857q23 0 39.5 16.5t16.5 39.5t-16 38t-40 15h-857q-24 0 -40 -15t-16 -38zM600 405q0 -10 11 -10h93q10 0 15 10q22 53 67.5 87.5t102.5 38.5l36 5q11 0 11 11l5 34q10 106 89.5 177t186.5 71t185.5 -70t91.5 -176l4 -38q0 -11 12 -11h105q88 0 150 -62 t62 -151q0 -86 -63 -148.5t-149 -62.5h-449q-12 0 -12 -12v-87q0 -11 12 -11h449q134 0 228.5 94t94.5 227q0 89 -42 161q70 62 98 168l12 45q1 1 1 4q0 8 -10 11l-40 13q-83 25 -125 87q-41 61 -41 125q0 32 7 59l9 40q3 10 -9 15l-54 16q-39 10 -81 10q-79 0 -159 -39 t-133 -127q-74 32 -154 32q-138 0 -244 -86.5t-135 -220.5q-85 -19 -148.5 -79.5t-88.5 -143.5v-2q-1 -1 -1 -4zM1465 851q33 53 87 83q52 29 107 29h4q11 0 17 -1v-16q0 -95 51.5 -181t140.5 -128q-15 -36 -49 -70q-86 76 -208 76h-21q-26 121 -129 208z" />
<glyph unicode="d" horiz-adv-x="1930" d="M117 56q0 -24 17 -39q17 -17 40 -17h523q25 0 44.5 -18.5t19.5 -44.5q0 -25 -19.5 -44.5t-44.5 -19.5q-24 0 -44 20q-17 17 -40 17t-39 -16.5t-16 -39.5t16 -39q52 -52 123 -52q72 0 123 51t51 123t-51 123.5t-123 51.5h-523q-23 0 -40 -16.5t-17 -39.5zM117 253 q0 -23 17 -38q16 -16 40 -16h856q72 0 122.5 51t50.5 123t-50.5 122t-122.5 50q-75 0 -124 -49q-15 -16 -15 -40t15 -39t39 -15q23 0 40 15q18 18 45 18q25 0 44 -18t19 -44t-19 -45t-44 -19h-856q-23 0 -40 -16.5t-17 -39.5zM430 406q0 -8 10 -8h94q8 0 13 9q22 53 68 88 t104 39l34 4q13 0 13 12l4 33q11 106 90 177t186 71t186 -70.5t90 -177.5l5 -38q0 -11 11 -11h107q88 0 150 -62t62 -149t-62 -149t-150 -62h-451q-11 0 -11 -11v-90q0 -11 11 -11h451q133 0 227.5 94.5t94.5 228.5q0 71 -28 133q75 98 75 216q0 141 -100.5 241.5 t-241.5 100.5q-152 0 -253 -113q-78 40 -173 40q-138 0 -244 -85t-135 -219q-83 -19 -147 -79.5t-89 -143.5v-3q-1 -2 -1 -5zM1311 838q69 66 161 66q95 0 163.5 -68.5t68.5 -163.5q0 -60 -33 -120q-94 94 -226 94h-22q-22 105 -112 192z" />
<glyph unicode="e" horiz-adv-x="1948" d="M117 56q0 -24 17 -39q17 -17 40 -17h523q25 0 44.5 -18.5t19.5 -44.5t-19.5 -45t-44.5 -19q-24 0 -44 20q-18 16 -40 16q-23 0 -39 -16t-16 -39t16 -39q52 -52 123 -52q72 0 123 51t51 123t-51 123.5t-123 51.5h-523q-23 0 -40 -16.5t-17 -39.5zM117 253q0 -23 17 -38 q16 -16 40 -16h856q72 0 122.5 51t50.5 123t-50.5 122t-122.5 50q-75 0 -124 -49q-15 -16 -15 -40t15 -39t39 -15q23 0 40 15q18 18 45 18q25 0 44 -18t19 -44t-19 -45t-44 -19h-856q-23 0 -40 -16.5t-17 -39.5zM430 406q0 -8 10 -8h94q8 0 13 9q22 53 68 88t104 39l34 4 q13 0 13 12l4 33q11 106 90 177t186 71t186 -70.5t90 -177.5l5 -38q0 -11 11 -11h107q88 0 150 -62t62 -149t-62 -149t-150 -62h-451q-11 0 -11 -11v-90q0 -11 11 -11h451q133 0 227.5 94.5t94.5 228.5q0 89 -45 162q74 71 99 168l10 44q1 1 1 5q0 6 -9 10l-39 14 q-82 24 -125 87.5t-43 131.5q0 18 6 52l9 40q3 10 -9 14l-52 16q-42 11 -81 11q-79 0 -158.5 -39.5t-133.5 -127.5q-71 30 -151 30q-138 0 -244 -85.5t-135 -218.5q-83 -19 -147 -79.5t-89 -143.5v-3q-1 -2 -1 -5zM1291 855q30 53 84.5 82t111.5 29q13 0 20 -1q-1 -8 -1 -23 q0 -93 51 -177t142 -126q-17 -40 -49 -68q-87 75 -205 75h-22q-25 122 -132 209z" />
<glyph unicode="f" horiz-adv-x="1633" d="M117 323q0 -130 90.5 -223.5t221.5 -99.5q11 0 11 11v90q0 11 -11 11q-85 6 -143.5 67t-58.5 144t55 143.5t137 67.5l35 4q12 0 12 12l5 33q11 106 89.5 177t185.5 71t186.5 -71t90.5 -177l4 -38q0 -11 12 -11h105q88 0 151 -62.5t63 -148.5q0 -83 -58 -144t-143 -67 q-13 0 -13 -11v-90q0 -11 13 -11q130 4 220 98t90 225q0 71 -27 131q77 95 77 218q0 140 -101 241t-241 101q-148 0 -255 -113q-78 40 -174 40q-138 0 -244.5 -85t-136.5 -219q-108 -25 -178 -113t-70 -201zM503 266q0 -37 28 -63.5t66 -26.5t64.5 26t26.5 64 q0 25 -22.5 67.5t-42.5 64.5q-4 5 -13 14.5t-13 13.5l-23 -26q-27 -29 -49 -68.5t-22 -65.5zM697 7q0 -62 45 -107t107 -45t107.5 45t45.5 107q0 54 -52 130q-35 48 -84 97q-8 7 -17 16l-38 -37q-43 -42 -78.5 -102t-35.5 -104zM793 442q0 -26 18 -43t46 -17q25 0 43 17 t18 43q0 41 -61 105l-16 -17q-18 -19 -33 -45t-15 -43zM1014 835q66 66 161 66t162.5 -67t67.5 -162q0 -61 -34 -120q-97 94 -227 94h-21q-27 114 -109 189z" />
<glyph unicode="g" horiz-adv-x="1651" d="M117 323q0 -130 90.5 -223.5t221.5 -99.5q11 0 11 11v87q0 12 -11 12q-84 5 -143 67t-59 146q0 81 55 141t137 70l35 2q12 0 12 11l5 36q11 106 89.5 177t185.5 71q106 0 186 -71.5t91 -176.5l4 -38q0 -11 12 -11h105q86 0 150 -63t64 -148t-59 -146.5t-142 -66.5 q-13 0 -13 -12v-87q0 -11 13 -11q130 4 220 98t90 225q0 87 -44 159q76 73 100 168l10 47q1 1 1 5q0 7 -11 10l-37 11q-82 23 -125 86t-43 130q0 30 7 55l9 40q3 10 -9 15l-52 16q-39 10 -82 10q-78 0 -159 -39t-134 -125q-81 30 -152 30q-138 0 -244.5 -85.5t-136.5 -218.5 q-108 -25 -178 -113t-70 -201zM503 266q0 -37 28 -63.5t66 -26.5t64.5 26t26.5 64q0 25 -22.5 66.5t-42.5 64.5q-10 11 -26 27l-23 -26q-26 -27 -48.5 -66.5t-22.5 -65.5zM697 7q0 -64 44.5 -108t107.5 -44q64 0 108.5 44.5t44.5 107.5q0 53 -52 129q-35 48 -84 97 q-8 6 -17 15l-15 -15q-31 -27 -83 -96q-54 -74 -54 -130zM793 440q0 -25 19 -43t45 -18q25 0 43 18t18 43q0 41 -61 105l-16 -17q-18 -19 -33 -45t-15 -43zM992 851q34 55 87 83.5t112 28.5q11 0 17 -1v-19q0 -94 51.5 -177.5t142.5 -128.5q-17 -40 -49 -68q-89 74 -209 74 h-21q-32 129 -131 208z" />
<glyph unicode="h" horiz-adv-x="1633" d="M117 323q0 -130 90.5 -223.5t221.5 -99.5q11 0 11 11v87q0 12 -11 12q-84 5 -143 67t-59 146q0 81 55 141t137 70l35 2q12 0 12 11l5 36q11 106 89.5 177t185.5 71q106 0 186 -71.5t91 -176.5l4 -38q0 -11 12 -11h105q88 0 151 -62.5t63 -148.5q0 -85 -59 -146.5 t-142 -66.5q-13 0 -13 -12v-87q0 -11 13 -11q130 4 220 98t90 225q0 71 -27 131q77 95 77 216q0 141 -100.5 241t-241.5 100q-152 0 -253 -113q-80 43 -176 43q-138 0 -244.5 -85.5t-136.5 -218.5q-108 -25 -178 -113t-70 -201zM531 56q0 -22 16 -38t38 -16q23 0 38.5 15.5 t15.5 38.5t-15.5 38.5t-38.5 15.5t-38.5 -15.5t-15.5 -38.5zM531 -181q0 -21 16 -37t38 -16q23 0 38.5 15t15.5 38t-15.5 39.5t-38.5 16.5t-38.5 -16.5t-15.5 -39.5zM739 -67q0 -23 16 -40.5t38 -17.5q23 0 39.5 17.5t16.5 40.5q0 22 -16.5 37.5t-39.5 15.5q-22 0 -38 -15.5 t-16 -37.5zM739 166q0 -22 16 -38t38 -16q23 0 39.5 15.5t16.5 38.5t-16.5 39t-39.5 16q-22 0 -38 -16t-16 -39zM739 -306q0 -23 16 -39.5t38 -16.5q23 0 39.5 16.5t16.5 39.5q0 22 -16.5 37.5t-39.5 15.5q-22 0 -38 -15.5t-16 -37.5zM950 56q0 -22 16 -38t39 -16t38 15.5 t15 38.5t-15 38.5t-38 15.5t-39 -15.5t-16 -38.5zM950 -181q0 -21 16 -37t39 -16t38 15t15 38q0 24 -15 40t-38 16t-39 -16.5t-16 -39.5zM1014 835q66 66 161 66q96 0 163 -67.5t67 -163.5q0 -58 -34 -120q-93 93 -227 93h-21q-27 113 -109 192z" />
<glyph unicode="i" horiz-adv-x="1653" d="M117 321q0 -130 91 -223.5t221 -97.5q11 0 11 11v87q0 12 -11 12q-83 5 -142.5 67t-59.5 144q0 83 55 143t137 67l35 5q12 0 12 11l5 34q10 107 89 178.5t186 71.5q106 0 186 -71.5t91 -176.5l4 -38q0 -11 12 -11h105q88 0 151 -63t63 -150q0 -83 -59 -145t-142 -66 q-13 0 -13 -12v-87q0 -11 13 -11q130 4 220 97.5t90 223.5q0 89 -42 161q72 66 98 168l12 47q1 1 1 5q0 7 -10 10l-40 11q-83 25 -125 87q-41 61 -41 125q0 32 7 59l7 40q3 10 -9 15l-52 16q-39 10 -81 10q-79 0 -158.5 -39t-132.5 -127q-74 32 -155 32q-138 0 -244.5 -85.5 t-136.5 -218.5q-109 -28 -178.5 -115.5t-69.5 -200.5zM531 56q0 -23 15.5 -39.5t38.5 -16.5t38.5 16.5t15.5 39.5q0 22 -15.5 38t-38.5 16t-38.5 -16t-15.5 -38zM531 -181q0 -21 16 -37t38 -16q23 0 38.5 15t15.5 38t-15.5 38.5t-38.5 15.5t-38.5 -15.5t-15.5 -38.5z M739 -70q0 -23 16 -39t38 -16q23 0 39.5 16t16.5 39t-16.5 39.5t-39.5 16.5q-22 0 -38 -16.5t-16 -39.5zM739 166q0 -22 16 -38t38 -16q23 0 39.5 15.5t16.5 38.5t-16.5 39t-39.5 16q-22 0 -38 -16t-16 -39zM739 -309q0 -21 16 -37t38 -16q24 0 40 15t16 38t-16.5 39.5 t-39.5 16.5q-22 0 -38 -16.5t-16 -39.5zM950 56q0 -23 16 -39.5t39 -16.5t38 16t15 40q0 22 -15 38t-38 16t-39 -16t-16 -38zM950 -181q0 -21 16 -37t39 -16t38 15t15 38t-15 38.5t-38 15.5t-39 -15.5t-16 -38.5zM994 851q30 53 84.5 82t111.5 30q13 0 20 -1v-20 q0 -94 51 -178t141 -127q-15 -36 -49 -70q-86 76 -209 76h-21q-26 121 -129 208z" />
<glyph unicode="j" horiz-adv-x="1633" d="M117 321q0 -130 90.5 -222.5t221.5 -98.5q11 0 11 11v87q0 12 -11 12q-85 6 -143.5 67t-58.5 144t55 143t137 67l35 5q12 0 12 11l5 34q10 106 89 177t186 71t186.5 -70.5t90.5 -175.5l4 -38q0 -11 12 -11h105q88 0 151 -63t63 -150q0 -83 -58 -144t-143 -67 q-13 0 -13 -12v-87q0 -11 13 -11q131 6 220.5 98.5t89.5 222.5q0 70 -27 130q77 95 77 219q0 140 -101 240.5t-241 100.5q-152 0 -253 -113q-86 43 -176 43q-137 0 -244 -86.5t-137 -220.5q-108 -25 -178 -112.5t-70 -200.5zM442 -214q0 -38 43 -50q20 -6 40 4t27 33 l129 473q6 22 -5.5 41t-34.5 26q-22 6 -41 -5t-26 -34l-129 -471q0 -1 -1.5 -7t-1.5 -10zM611 -413q0 -8 6 -24q10 -19 33 -27q14 -2 20 -2q42 0 49 42l182 670q7 22 -4 41t-33 26q-24 6 -44.5 -5t-24.5 -34l-181 -669q0 -2 -1 -5.5t-1.5 -6.5t-0.5 -6zM882 -213 q0 -15 10.5 -30t29.5 -21q10 -2 15 -2q42 0 53 39l129 473q7 20 -4.5 40t-33.5 27q-24 6 -43.5 -5t-23.5 -34l-129 -471q0 -1 -1.5 -7t-1.5 -9zM1014 833q65 65 161 65q95 0 162.5 -66.5t67.5 -161.5q0 -61 -34 -120q-93 93 -227 93h-21q-27 115 -109 190z" />
<glyph unicode="k" horiz-adv-x="1653" d="M117 323q0 -130 90.5 -223.5t221.5 -99.5q11 0 11 11v87q0 12 -11 12q-84 5 -143 67t-59 146q0 81 55 141t137 70l35 2q12 0 12 11l5 36q11 106 89.5 177t185.5 71q106 0 186 -71.5t91 -176.5l4 -38q0 -11 12 -11h105q86 0 150 -63t64 -148t-59 -146.5t-142 -66.5 q-13 0 -13 -12v-87q0 -11 13 -11q130 4 220 98t90 225q0 87 -44 159q78 71 103 171l9 46q1 1 1 5q0 7 -10 10l-37 12q-82 23 -125 87t-43 130q-2 27 6 54l9 40q3 10 -9 14l-52 16q-42 11 -82 11q-79 0 -160.5 -39.5t-134.5 -127.5q-81 30 -152 30q-138 0 -244.5 -85.5 t-136.5 -218.5q-108 -25 -178 -113t-70 -201zM442 -210q0 -16 11 -32t32 -22q22 -7 41 2.5t26 36.5l129 471q6 24 -5.5 43.5t-34.5 23.5q-22 7 -41 -3.5t-26 -32.5l-129 -474q0 -1 -1.5 -5.5t-1.5 -7.5zM611 -410q0 -15 10 -30t29 -21q12 -2 16 -2q43 0 53 39l182 670 q7 23 -4 42t-33 25q-23 7 -43 -3.5t-26 -32.5l-181 -670q0 -1 -1.5 -7t-1.5 -10zM882 -216q0 -36 40 -48q10 -3 20 -3q12 0 23 4q20 9 25 38l129 471q7 23 -4.5 42t-33.5 25q-23 7 -42 -3.5t-25 -32.5l-129 -474q0 -2 -1.5 -8.5t-1.5 -10.5zM994 851q30 56 84 86 q53 29 111 29h4q11 0 17 -1v-20q-1 -94 50.5 -177.5t144.5 -128.5q-21 -42 -52 -70q-89 74 -209 74h-21q-27 122 -129 208z" />
<glyph unicode="l" horiz-adv-x="1630" d="M117 321q0 -130 90.5 -222.5t221.5 -98.5q11 0 11 11v87q0 12 -11 12q-83 5 -142.5 67t-59.5 144q0 83 55 143t137 67l35 5q10 0 10 9l5 36q11 107 90 177.5t187 70.5q107 0 186.5 -70.5t90.5 -175.5l4 -38q0 -11 12 -11h105q87 0 149 -62.5t62 -150.5q0 -83 -57.5 -145 t-140.5 -66q-13 0 -13 -12v-87q0 -11 13 -11q131 6 220.5 98.5t89.5 222.5q0 61 -27 130q74 97 74 214q0 140 -100.5 241t-240.5 101q-150 0 -251 -109q-86 43 -176 43q-137 0 -244 -86.5t-137 -220.5q-110 -25 -179 -111.5t-69 -201.5zM466 -118q0 -40 41 -53 q14 -12 38 -0.5t31 40.5l18 66q6 24 -5.5 43.5t-34.5 23.5q-20 7 -40 -4t-27 -33l-18 -68q0 -2 -1.5 -7t-1.5 -8zM552 193q2 -46 42 -52q1 0 8.5 -1.5t11.5 -1.5q37 0 49 43l18 65q6 23 -5.5 42.5t-34.5 26.5q-22 6 -41 -4.5t-26 -33.5l-20 -69q-2 -12 -2 -15zM632 -321 q0 -17 10.5 -32.5t31.5 -21.5q12 -2 19 -2q8 0 24 6q17 9 25 36l19 65q6 24 -5.5 44.5t-34.5 24.5q-22 7 -41.5 -4.5t-26.5 -33.5l-19 -67q-2 -12 -2 -15zM719 -9q0 -17 10.5 -32.5t31.5 -21.5q22 -7 41.5 3t26.5 37l18 65q6 24 -5 44t-34 24q-22 7 -42 -4.5t-27 -33.5 l-18 -67q-2 -10 -2 -14zM904 -125q0 -13 9 -27q10 -16 30 -22l17 -2h2q8 0 22 5q19 8 27 35l19 69q7 23 -4.5 42t-33.5 25q-24 6 -43.5 -5.5t-23.5 -34.5l-19 -65q-2 -13 -2 -20zM992 190q0 -17 10.5 -32.5t31.5 -19.5q12 -2 16 -2q43 0 53 40l18 67q6 24 -5.5 44t-34.5 24 q-23 7 -42 -4.5t-25 -34.5l-20 -66q-2 -12 -2 -16zM1014 833q68 63 159 63q95 0 162 -68t67 -163q0 -63 -31 -115q-93 93 -227 93h-21q-25 109 -109 190z" />
<glyph unicode="m" horiz-adv-x="1656" d="M117 323q0 -130 90.5 -223.5t221.5 -99.5q11 0 11 11v90q0 11 -11 11q-85 6 -143.5 67t-58.5 144q0 81 55 141t137 70l35 4q12 0 12 12l5 33q11 106 89.5 177t185.5 71t186.5 -71t90.5 -177l4 -38q0 -11 12 -11h105q88 0 151 -62.5t63 -148.5q0 -83 -58 -144t-143 -67 q-13 0 -13 -11v-90q0 -11 13 -11q130 4 220 98t90 225q0 87 -42 159q78 70 103 171v8l13 51l-50 14q-80 23 -124 88t-44 132q0 17 6 51l13 52l-55 16l-9 2q-45 10 -81 10q-80 0 -161.5 -40t-134.5 -128q-71 32 -155 32q-138 0 -243.5 -85.5t-134.5 -218.5 q-110 -25 -180.5 -113t-70.5 -201zM469 -118q0 -36 38 -50q21 -7 41.5 3.5t27.5 33.5l18 68q7 20 -4 40.5t-33 28.5q-23 6 -43 -6t-27 -35l-16 -66q-2 -12 -2 -17zM553 191q0 -9 6 -23q8 -17 35 -25q24 -6 43 4t26 34l18 67q7 23 -4.5 42t-33.5 25q-24 6 -43 -4.5t-26 -33.5 l-17 -67q-4 -14 -4 -19zM634 -321q0 -16 10 -32t30 -22q10 -2 15 -2q8 0 24 6q20 8 29 36l19 69q7 20 -4.5 40t-33.5 27q-24 6 -43.5 -5.5t-26.5 -34.5l-16 -65q0 -1 -1.5 -7t-1.5 -10zM721 -10q0 -37 40 -51q22 -7 41.5 3.5t26.5 34.5l18 68q7 22 -4 41t-33 26 q-24 6 -44 -5.5t-27 -34.5l-16 -65q-2 -12 -2 -17zM904 -125q0 -37 41 -49q12 -2 16 -2q11 0 24 5q20 9 29 37l18 67q6 24 -5.5 43.5t-34.5 23.5q-23 7 -42 -4.5t-25 -33.5l-19 -67q-2 -14 -2 -20zM994 190q0 -16 10 -31t30 -21q12 -2 16 -2q8 0 24 6q20 9 29 36l18 68 q6 22 -5.5 41t-34.5 26q-22 6 -41 -5t-26 -34l-17 -68q0 -2 -1.5 -7t-1.5 -9zM997 851q31 54 86.5 85t117.5 31h14q-1 -8 -1 -24q0 -93 51 -176t142 -128q-21 -41 -52 -72q-91 79 -211 79h-21q-25 116 -126 205z" />
<glyph unicode="n" horiz-adv-x="1630" d="M117 311q0 -109 64 -193.5t168 -115.5q8 -1 16 5l73 94q-86 0 -148.5 62t-62.5 148q0 83 55 143.5t137 67.5l35 5q10 0 10 9l5 35q11 106 89.5 177t185.5 71q108 0 187.5 -70t89.5 -175l4 -38q3 -11 14 -11h105q86 0 148.5 -63t62.5 -151q0 -82 -54.5 -142t-134.5 -68 q-46 0 -59 -19l-305 -379q-14 -17 -11.5 -40t19.5 -40q12 -17 37.5 -15t39.5 24l290 359q122 13 206 105t84 215q0 62 -27 134q74 94 74 212q0 143 -99.5 242.5t-241.5 99.5q-152 0 -251 -110q-84 42 -178 42q-138 0 -243.5 -85.5t-135.5 -220.5q-110 -25 -179 -112 t-69 -202zM267 -315q0 -7 4 -21q9 -21 28 -29q22 -10 44 -1t30 29q9 22 0.5 43.5t-29.5 29.5q-22 7 -42 -1t-30 -28q-5 -13 -5 -22zM354 -555q0 -9 5 -21q9 -22 27 -30q11 -4 23 -4q11 0 21 3q19 8 28 29q10 19 1.5 41.5t-28.5 29.5q-22 10 -42 1.5t-31 -30.5q-4 -12 -4 -19 zM386 -159q0 -21 21 -42q19 -17 41 -15t39 24l306 382q14 17 11 40t-20 36q-17 14 -41 11t-37 -20l-306 -378q-14 -20 -14 -38zM462 -402v-8q2 -25 20 -39q14 -17 38.5 -15t38.5 24l435 541q15 17 12.5 40.5t-21.5 36.5q-17 14 -40 12t-36 -19l-436 -541q-11 -12 -11 -32z M695 -456q-4 -10 -4 -20t4 -20q9 -21 28 -31q11 -4 23 -4q10 0 20 3q21 9 29 30q9 22 1.5 41.5t-28.5 27.5q-22 10 -42 2.5t-31 -29.5zM1014 824q65 65 159 65q97 0 164.5 -67.5t67.5 -164.5q0 -57 -34 -116q-93 93 -227 93h-21q-25 111 -109 190z" />
<glyph unicode="o" horiz-adv-x="1653" d="M117 321q0 -109 65 -195t167 -115q8 -1 16 5l73 91q-85 0 -148 64t-63 150q0 82 55 141.5t137 66.5l32 5q13 0 13 11l5 36q13 106 91.5 177t185.5 71q106 0 186 -71.5t91 -176.5l4 -38q0 -12 12 -12h105q86 0 148.5 -62t62.5 -148q0 -82 -54.5 -143t-134.5 -68 q-43 -4 -56 -19l-308 -381q-14 -16 -11 -40q2 -23 20 -38.5t37 -15.5q22 0 41 24l288 360q123 13 206.5 105t83.5 216q0 87 -44 159q79 71 103 170v7l12 49l-49 17q-82 24 -125 88t-43 132q0 17 6 51l11 52l-53 15q-1 1 -2 1q-2 1 -3 1t-2.5 0.5t-2.5 1.5q-39 10 -81 10 q-81 -1 -162 -41t-134 -128q-71 32 -152 32q-138 0 -244.5 -85.5t-136.5 -218.5q-110 -26 -179 -113t-69 -200zM267 -307q0 -9 5 -21q9 -22 27 -30q22 -10 44 -1t30 29q9 22 0.5 43.5t-29.5 29.5q-22 10 -43.5 1.5t-28.5 -30.5q-5 -13 -5 -21zM359 -569q9 -21 30 -30 q11 -4 21 -4t20 3q19 8 28 29q8 21 1 42t-28 31q-21 7 -41 -1t-30 -28q-5 -10 -5 -21q0 -10 4 -21zM387 -149v-6q2 -23 22 -37q12 -15 34.5 -14.5t43.5 21.5l306 382q14 17 11 40.5t-20 36.5q-17 14 -41 11.5t-37 -21.5l-306 -378q-13 -16 -13 -35zM463 -397v-5 q2 -22 20 -37.5t37 -15.5q23 0 39 22l435 540q14 17 12 41t-19 37q-19 14 -42 12t-36 -19l-434 -540q-12 -15 -12 -35zM690 -469q0 -8 5 -21q8 -21 31 -30q11 -5 22 -5q9 0 18 4q20 8 29 30q10 22 2.5 41.5t-29.5 30.5q-22 7 -42 -0.5t-31 -27.5q-5 -13 -5 -22zM994 849 q30 55 84 85q52 29 111 29h4q11 0 17 -1v-19q0 -94 52.5 -178.5t142.5 -127.5q-21 -41 -52 -72q-86 76 -209 76h-21q-28 123 -129 208z" />
<glyph unicode="p" horiz-adv-x="2548" d="M0 466q0 -205 122.5 -367.5t315.5 -215.5l-80 -206q-8 -27 17 -27h260l-294 -789h34l655 966q7 7 2 16.5t-17 9.5h-268l304 569q12 25 -17 25h-362q-18 0 -27 -17l-132 -353q-132 33 -218 141.5t-86 247.5q0 153 103.5 266t258.5 131l64 4q24 0 24 22l8 66 q20 199 169 333.5t351 134.5q198 0 349 -135t173 -333l8 -70q0 -22 21 -22h198q164 0 283.5 -117.5t119.5 -279.5q0 -160 -111 -277t-268 -125q-24 0 -24 -22v-163q0 -22 24 -22q161 5 295.5 88.5t212 221.5t77.5 299q0 134 -51 246q145 170 145 407q0 130 -51.5 249 t-138 205.5t-206 138t-249.5 51.5q-286 0 -475 -213q-151 80 -332 80q-171 0 -322.5 -73t-256 -204t-141.5 -296q-203 -48 -335 -213.5t-132 -377.5zM933 -915q0 -30 18 -57.5t55 -37.5q27 -5 33 -5q76 0 96 73l343 1262q5 17 5 32q0 25 -13 48q-20 36 -61 47q-17 5 -33 5 q-25 0 -48 -12q-37 -21 -48 -62l-343 -1261q-4 -20 -4 -32zM1443 -543q0 -30 18 -57.5t58 -39.5q25 -5 32 -5q20 0 43 10q37 16 52 68l243 887q5 16 5 31q0 26 -14 49q-21 36 -62 47q-17 5 -32 5q-25 0 -48 -12q-36 -21 -48 -62l-242 -891q-5 -25 -5 -30zM1690 1432 q127 118 304 118q118 0 217.5 -57t157.5 -156.5t58 -217.5t-62 -225q-176 176 -429 176h-39q-51 214 -207 362z" />
<glyph unicode="q" horiz-adv-x="1653" d="M117 323q0 -108 64.5 -193t167.5 -116l-43 -110q-3 -14 9 -14h139l-157 -419h18l348 513q4 4 1.5 9t-9.5 5h-142l161 301q8 14 -9 14h-192q-11 0 -15 -9l-69 -187q-70 17 -116 75.5t-46 130.5q0 81 55 141t137 70l35 4q12 0 12 12l5 33q11 106 89.5 177t185.5 71 q106 0 186 -71.5t91 -176.5l4 -38q0 -11 12 -11h105q88 0 151 -62.5t63 -148.5q0 -83 -58 -144t-143 -67q-13 0 -13 -11v-90q0 -11 13 -11q130 4 220 98t90 225q0 87 -42 159q77 74 101 171l9 46q1 1 1 5q0 7 -10 10l-37 12q-82 23 -125 87t-43 132q0 18 6 52l9 40 q3 10 -9 14q-66 27 -134 27q-78 0 -158.5 -39.5t-133.5 -127.5q-85 30 -155 30q-138 0 -244.5 -85.5t-136.5 -218.5q-108 -25 -178 -113t-70 -201zM611 -410q0 -40 39 -51q14 -2 20 -2q38 0 49 41l182 668q7 23 -4 42t-33 25q-23 7 -43 -3.5t-26 -32.5l-181 -670 q0 -1 -1.5 -7t-1.5 -10zM882 -215q0 -39 40 -49q16 -2 21 -2q35 0 47 41l129 471q7 23 -4.5 42t-33.5 25q-23 7 -42 -3.5t-25 -32.5l-129 -474q0 -2 -1.5 -8.5t-1.5 -9.5zM994 851q33 56 87 85.5t114 29.5q12 0 18 -1v-21q0 -94 51 -177t141 -128q-16 -37 -52 -70 q-92 77 -209 77h-21q-27 119 -129 205z" />
<glyph unicode="r" horiz-adv-x="1630" d="M117 323q0 -107 65 -192.5t167 -116.5l-43 -108q-3 -13 9 -13h139l-157 -422h18l348 513q4 4 1.5 9t-9.5 5h-142l161 304q7 13 -9 13h-192q-9 0 -12 -9l-72 -189q-70 17 -116 75.5t-46 130.5q0 83 55 143.5t137 67.5l35 4q12 0 12 12l5 33q11 106 89.5 177t185.5 71 t186.5 -71t90.5 -177l4 -38q0 -11 12 -11h105q88 0 151 -62.5t63 -148.5q0 -83 -58 -144t-143 -67q-13 0 -13 -11v-90q0 -11 13 -11q130 4 220 98t90 225q0 71 -27 131q74 97 74 213q0 141 -100 241.5t-241 100.5q-72 0 -138 -29t-113 -82q-80 43 -176 43q-138 0 -244.5 -85 t-136.5 -219q-108 -25 -178 -113t-70 -201zM648 -318q0 -16 10.5 -32t29.5 -20q2 0 7 -1.5t9 -1.5q42 2 53 40l18 69q6 22 -5.5 41t-34.5 26q-22 6 -41.5 -5.5t-26.5 -34.5l-17 -65q-2 -12 -2 -16zM735 -8q0 -36 40 -50q21 -7 40.5 3.5t26.5 33.5l20 68q6 24 -5.5 43.5 t-34.5 23.5q-22 6 -42 -5t-27 -34l-16 -66q-2 -12 -2 -17zM919 -113q0 -18 10.5 -33.5t30.5 -21.5q12 -2 17 -2q38 0 50 39l16 68q7 22 -3.5 41.5t-32.5 26.5q-24 6 -44.5 -5.5t-24.5 -34.5l-18 -66q-1 -5 -1 -12zM1007 195q0 -38 42 -52q12 -2 17 -2q11 0 24 5q19 10 27 35 l18 67q6 22 -5.5 41t-34.5 26q-22 6 -41.5 -4.5t-26.5 -33.5l-18 -67q-2 -12 -2 -15zM1014 835q68 63 159 63q96 0 162.5 -67.5t66.5 -163.5q0 -63 -31 -115q-97 94 -227 94h-21q-29 114 -109 189z" />
<glyph unicode="s" horiz-adv-x="1653" d="M117 323q0 -108 64.5 -193t167.5 -116l-43 -110q-3 -14 9 -14h139l-157 -419h18l348 513q4 4 1.5 9t-9.5 5h-142l161 301q8 14 -9 14h-192q-11 0 -15 -9l-69 -187q-70 17 -116 75.5t-46 130.5q0 81 55 141t137 70l35 4q12 0 12 12l5 33q11 106 89.5 177t185.5 71 q106 0 186 -71.5t91 -176.5l4 -38q0 -11 12 -11h105q88 0 151 -62.5t63 -148.5q0 -83 -58 -144t-143 -67q-13 0 -13 -11v-90q0 -11 13 -11q130 4 220 98t90 225q0 87 -42 159q74 71 98 171l12 44q1 1 1 5q0 7 -10 10l-40 11q-56 17 -96 55q-39 36 -55 78q-15 39 -15 78 q0 35 7 60l7 40q3 10 -9 15l-52 16q-40 9 -81 9h-4q-76 0 -154 -38q-80 -39 -133 -125q-85 30 -155 30q-138 0 -244.5 -85.5t-136.5 -218.5q-108 -25 -178 -113t-70 -201zM648 -319q0 -15 10 -30t30 -21q1 0 7 -1.5t10 -1.5q8 0 24 6q21 10 28 34l18 69q6 22 -5.5 41 t-34.5 26q-22 6 -41.5 -5.5t-26.5 -34.5l-17 -65q-2 -12 -2 -17zM735 -9q0 -41 40 -49q1 0 7 -1.5t10 -1.5q38 0 50 40l20 68q6 22 -5.5 41t-34.5 26q-22 6 -42 -5t-27 -34l-16 -66q-2 -12 -2 -18zM918 -118q2 -40 42 -53q16 -4 22 -4q33 0 45 44l16 66q7 23 -3.5 43 t-32.5 27q-24 6 -44.5 -5.5t-24.5 -34.5l-18 -68q-2 -12 -2 -15zM994 851q33 54 88 84t115 30h13v-21q0 -95 51 -178.5t141 -128.5q-17 -40 -49 -68q-92 77 -209 77h-21q-27 119 -129 205zM1007 194q0 -42 42 -53q1 0 8.5 -1.5t11.5 -1.5q36 0 48 43l18 67q1 5 1 18 q0 37 -41 49q-2 0 -7 1.5t-8 1.5q-41 0 -53 -41l-18 -67q-2 -12 -2 -16z" />
<glyph unicode="t" horiz-adv-x="1633" d="M117 323q0 -130 90.5 -223.5t221.5 -99.5q11 0 11 11v87q0 12 -11 12q-84 5 -143 67t-59 146q0 81 55 141t137 70l35 4q12 0 12 12l5 33q11 106 89.5 177t185.5 71q106 0 186 -71.5t91 -176.5l4 -38q0 -11 12 -11h105q88 0 151 -62.5t63 -148.5q0 -85 -59 -146.5 t-142 -66.5q-13 0 -13 -12v-87q0 -11 13 -11q130 4 220 98t90 225q0 71 -27 131q77 95 77 216q0 140 -101 240.5t-241 100.5q-152 0 -253 -113q-80 43 -176 43q-138 0 -244.5 -85.5t-136.5 -218.5q-108 -25 -178 -113t-70 -201zM448 -230q8 -20 30 -29q20 -10 40.5 -1.5 t28.5 28.5q8 21 1 42t-28 31q-20 8 -40.5 -0.5t-30.5 -27.5q-5 -10 -5 -21t4 -22zM489 -46q0 -15 10 -30t30 -20q22 -6 42.5 4t27.5 36l82 302q6 24 -5.5 43.5t-34.5 23.5q-22 7 -41 -3.5t-26 -32.5l-83 -306q-2 -12 -2 -17zM610 -410q0 -7 4 -19q9 -21 29 -29q12 -5 22 -5 q6 0 20 4q22 8 31 29t-1 43t-29.5 30t-39.5 0q-36 -14 -36 -53zM658 -237q0 -41 41 -49q12 -2 16 -2q42 2 53 40l133 494q7 23 -4 42t-33 25q-23 7 -43 -3.5t-26 -32.5l-134 -494q0 -1 -1.5 -8.5t-1.5 -11.5zM882 -210q0 -7 4 -21q8 -20 29 -28q13 -5 23 -5t20 3q20 9 29 29 q8 22 0 42.5t-27 30.5q-22 7 -42.5 0t-30.5 -28q-5 -13 -5 -23zM929 -45q0 -35 40 -49q11 -3 20 -3q7 0 21 6q18 10 27 35l82 302q7 23 -4.5 42t-33.5 25q-23 7 -42 -3.5t-25 -32.5l-83 -303q-2 -14 -2 -19zM1014 835q71 66 161 66q95 0 162.5 -68t67.5 -163q0 -61 -34 -120 q-96 96 -227 96h-21q-29 114 -109 189z" />
<glyph unicode="u" horiz-adv-x="1653" d="M117 323q0 -130 90.5 -223.5t221.5 -99.5q11 0 11 11v87q0 12 -11 12q-84 5 -143 67t-59 146q0 81 55 141t137 70l35 2q12 0 12 11l5 36q11 106 89.5 177t185.5 71q106 0 186 -71.5t91 -176.5l4 -38q0 -11 12 -11h105q86 0 150 -63t64 -148t-59 -146.5t-142 -66.5 q-13 0 -13 -12v-87q0 -11 13 -11q130 4 220 98t90 225q0 85 -42 157q77 74 101 170l9 45q1 1 1 4q0 8 -10 11l-37 11q-82 24 -124.5 88.5t-42.5 133.5q-1 17 5 51l9 38q3 9 -9 14l-52 17q-40 11 -85 11q-77 0 -156.5 -39t-132.5 -126q-71 32 -155 32q-138 0 -244.5 -85.5 t-136.5 -218.5q-108 -25 -178 -113t-70 -201zM448 -230q8 -20 30 -29q20 -10 40.5 -1.5t28.5 28.5q10 22 1.5 42.5t-28.5 28.5q-20 10 -40.5 1.5t-30.5 -30.5q-5 -9 -5 -20q0 -9 4 -20zM489 -46q0 -15 10 -30t30 -20q25 -10 44 1t26 37l82 304q6 24 -5.5 43.5t-34.5 23.5 q-22 7 -41 -3.5t-26 -32.5l-83 -306q-2 -12 -2 -17zM610 -410q0 -7 4 -19q9 -21 29 -29q12 -5 22 -5q6 0 20 4q22 8 31 29t-1 43q-10 21 -29.5 29.5t-39.5 -0.5q-36 -15 -36 -52zM658 -238q0 -36 41 -50q9 -3 16 -3q10 0 23 5q21 8 30 38l133 494q7 23 -4 42t-33 25 q-23 7 -43 -3.5t-26 -32.5l-134 -498q0 -1 -1.5 -7t-1.5 -10zM882 -210q0 -9 5 -21q8 -19 28 -28q13 -5 23 -5t20 3q20 9 29 29q8 22 0 41.5t-27 29.5q-22 10 -42.5 1.5t-30.5 -30.5q-5 -12 -5 -20zM929 -43q0 -16 10.5 -30.5t29.5 -20.5q12 -2 18 -2q38 0 50 40l82 302 q7 23 -4.5 42t-33.5 25q-23 7 -42 -3.5t-25 -32.5l-83 -303q-2 -12 -2 -17zM997 849q30 55 84 85q52 29 110 29h4q12 0 18 -1v-20q0 -95 51 -179t141 -126q-20 -44 -50 -70q-86 76 -211 76h-21q-26 122 -126 206z" />
<glyph unicode="v" horiz-adv-x="1635" d="M117 321q0 -130 91 -223.5t221 -97.5q11 0 11 11v87q0 12 -11 12q-83 5 -142.5 67t-59.5 144q0 83 55 143t137 67l35 5q12 0 12 11l5 34q10 107 89 178.5t186 71.5q106 0 186 -71.5t91 -176.5l4 -38q0 -11 12 -11h105q88 0 151 -63t63 -150q0 -83 -59 -145t-142 -66 q-13 0 -13 -12v-87q0 -11 13 -11q130 4 220 97.5t90 223.5q0 70 -27 130q79 97 79 219q0 141 -100.5 241t-241.5 100q-72 0 -139.5 -30t-115.5 -83q-86 43 -176 43q-138 0 -244.5 -85.5t-136.5 -218.5q-109 -28 -178.5 -115.5t-69.5 -200.5zM433 -263q0 -15 10 -30t30 -20 q23 -6 42 3.5t26 32.5l30 111q7 23 -4 42.5t-33 25.5q-23 7 -43 -4.5t-27 -33.5l-29 -110q-2 -12 -2 -17zM503 0q0 -22 16 -38t38 -16q23 0 38.5 15.5t15.5 38.5t-15.5 38.5t-38.5 15.5t-38.5 -15.5t-15.5 -38.5zM543 152q0 -17 10.5 -32.5t31.5 -21.5q10 -3 20 -3 q33 0 48 43l28 110q7 20 -4.5 40t-33.5 27q-24 6 -43.5 -4.5t-23.5 -33.5l-31 -111q-2 -10 -2 -14zM599 -466q0 -15 10 -31t30 -21q12 -2 16 -2q40 0 51 40l31 110q7 23 -4.5 42.5t-33.5 25.5q-23 7 -42.5 -4t-26.5 -33l-29 -110q-2 -12 -2 -17zM670 -203q0 -22 16 -38 t37 -16q23 0 38.5 15.5t15.5 38.5t-15.5 39.5t-38.5 16.5t-38 -16t-15 -40zM710 -53q2 -40 41 -52q23 -8 42 1.5t26 38.5l28 110q7 22 -4 41t-33 26q-24 6 -44 -5.5t-24 -34.5l-30 -110q-2 -12 -2 -15zM869 -264q0 -17 10.5 -32t31.5 -19q16 -4 22 -4q34 0 45 40l31 111 q6 24 -5.5 43.5t-34.5 23.5q-23 7 -42.5 -4t-25.5 -33l-30 -110q-2 -12 -2 -16zM938 -2q0 -23 17 -38q16 -16 39 -16q22 0 38.5 15.5t16.5 38.5t-16.5 38t-38.5 15q-24 0 -40 -15t-16 -38zM978 146q0 -38 43 -50q12 -3 21 -3q34 0 46 43l31 110q6 22 -5.5 41t-34.5 26 q-22 6 -41.5 -5t-26.5 -34l-30 -111q0 -1 -1.5 -7t-1.5 -10zM1014 833q68 68 163 68t162.5 -68t67.5 -163q0 -63 -33 -120q-93 93 -230 93h-21q-27 115 -109 190z" />
<glyph unicode="w" horiz-adv-x="1653" d="M117 321q0 -130 91 -223.5t221 -97.5q11 0 11 11v87q0 12 -11 12q-83 5 -142.5 67t-59.5 144q0 83 55 143t137 67l35 5q12 0 12 11l5 34q10 107 89 178.5t186 71.5q106 0 186 -71.5t91 -176.5l4 -38q0 -11 12 -11h105q88 0 151 -63t63 -150q0 -83 -59 -145t-142 -66 q-13 0 -13 -12v-87q0 -11 13 -11q130 4 220 97.5t90 223.5q0 89 -44 164q80 71 103 170l9 44q1 1 1 5q0 7 -10 10l-37 12q-82 24 -125 88.5t-43 130.5q-2 27 6 54l9 38q3 10 -9 14l-52 16q-44 12 -84 12q-78 0 -159 -40t-134 -128q-81 30 -152 30q-138 0 -244.5 -85.5 t-136.5 -218.5q-109 -28 -178.5 -115.5t-69.5 -200.5zM433 -262q0 -14 10.5 -29.5t29.5 -21.5q19 -7 40.5 3t27.5 33l30 111q7 23 -4 42.5t-33 25.5q-23 7 -43 -4.5t-27 -33.5l-29 -110q-2 -12 -2 -16zM503 0q0 -22 16 -38t38 -16q23 0 38.5 15.5t15.5 38.5t-15.5 38.5 t-38.5 15.5t-38.5 -15.5t-15.5 -38.5zM543 147q0 -37 42 -49q22 -7 41.5 3t26.5 37l28 110q7 20 -4.5 40t-33.5 27q-24 6 -43.5 -4.5t-23.5 -33.5l-31 -111q-2 -14 -2 -19zM599 -468q-1 -14 9 -28q10 -16 31 -22q10 -2 14 -2q41 0 53 40l31 110q7 23 -4.5 42.5t-33.5 25.5 q-23 7 -42.5 -4t-26.5 -33l-29 -110q-2 -13 -2 -19zM670 -203q0 -22 15 -38t38 -16t38.5 16t15.5 38q0 23 -15.5 39.5t-38.5 16.5t-38 -16t-15 -40zM710 -55q0 -36 41 -50q22 -7 41.5 3.5t26.5 36.5l28 110q7 22 -4 41t-33 26q-24 6 -44 -5.5t-24 -34.5l-30 -110 q-2 -12 -2 -17zM870 -261q0 -41 41 -54q2 0 7 -1.5t8 -1.5q41 2 52 39l31 111q6 24 -5.5 43.5t-34.5 23.5q-23 7 -42.5 -4t-25.5 -33l-30 -110q-1 -5 -1 -13zM938 -2q0 -23 17 -38q16 -16 39 -16q22 0 38.5 15.5t16.5 38.5t-16.5 38t-38.5 15q-24 0 -40 -15t-16 -38z M978 149q0 -16 10.5 -31.5t32.5 -21.5q14 -2 19 -2q36 0 48 42l31 110q6 22 -5.5 41t-34.5 26q-22 6 -41.5 -5t-26.5 -34l-30 -111q0 -2 -1.5 -6.5t-1.5 -7.5zM994 851q30 56 85 87q53 30 108 30h4q12 0 19 -1v-21q-1 -95 50.5 -179t144.5 -126q-20 -40 -52 -72 q-89 74 -209 74h-21q-31 126 -129 208z" />
<glyph unicode="x" horiz-adv-x="1630" d="M117 321q0 -130 90.5 -222.5t221.5 -98.5q11 0 11 11v87q0 12 -11 12q-85 6 -143.5 67t-58.5 144t55 143t137 67l35 5q12 0 12 11l5 34q10 106 89 177t186 71t186.5 -70.5t90.5 -175.5l4 -38q0 -11 12 -11h105q88 0 151 -63t63 -150q0 -83 -58 -144t-143 -67 q-13 0 -13 -12v-87q0 -11 13 -11q131 6 220.5 98.5t89.5 222.5q0 68 -30 135q77 97 77 214q0 141 -100 241t-241 100q-155 0 -253 -113q-80 43 -174 43q-137 0 -244 -86.5t-137 -220.5q-109 -25 -178.5 -112t-69.5 -201zM606 -414h19l346 512q4 4 2.5 9t-8.5 5h-143l149 277 q7 13 -9 13h-192q-8 0 -13 -9l-141 -372q-3 -14 9 -14h141zM1011 835q66 66 162 66t162.5 -67.5t66.5 -163.5q0 -61 -33 -118q-94 91 -225 91h-21q-27 114 -112 192z" />
<glyph unicode="y" horiz-adv-x="1651" d="M117 323q0 -130 90.5 -223.5t221.5 -99.5q11 0 11 11v90q0 11 -11 11q-85 6 -143.5 67t-58.5 144t55 143.5t137 67.5l35 4q12 0 12 12l5 33q11 106 89.5 177t185.5 71t186.5 -71t90.5 -177l4 -38q0 -11 12 -11h105q88 0 151 -62.5t63 -148.5q0 -83 -58 -144t-143 -67 q-13 0 -13 -11v-90q0 -11 13 -11q130 4 220 98t90 225q0 90 -44 162q76 70 100 168l10 46q1 1 1 5q0 7 -11 10l-37 12q-82 23 -124.5 86.5t-42.5 132.5q0 18 6 52l9 40q3 10 -9 14l-52 16q-42 11 -81 11q-49 0 -98.5 -14t-104 -53.5t-91.5 -99.5q-71 30 -152 30 q-138 0 -244.5 -85t-136.5 -219q-108 -25 -178 -113t-70 -201zM606 -411h19l346 512q4 5 2.5 9t-8.5 4h-143l149 275q7 13 -9 13h-192q-8 0 -13 -9l-141 -372q-3 -14 9 -14h141zM994 851q32 56 86.5 85.5t112.5 29.5q11 0 17 -1v-21q0 -94 51 -177t141 -128q-15 -36 -49 -70 q-92 77 -209 77h-21q-27 119 -129 205z" />
<glyph unicode="z" horiz-adv-x="2153" d="M117 54q0 -23 16.5 -38.5t40.5 -15.5h1224q23 0 39.5 15.5t16.5 38.5q0 24 -16 40t-40 16h-1224q-24 0 -40.5 -16t-16.5 -40zM288 259q0 -23 17 -38q16 -18 39 -18h1224q23 0 38.5 16.5t15.5 39.5t-15.5 38.5t-38.5 15.5h-1224q-23 0 -39.5 -15.5t-16.5 -38.5zM296 416 q0 -9 10 -9h94q7 0 14 10q23 51 69.5 84t101.5 37l36 5q11 0 11 11l5 33q10 106 89.5 177t186.5 71q106 0 185.5 -70t90.5 -175l4 -38q0 -11 13 -11h105q63 0 115 -34t77 -90q7 -10 14 -10h93q12 0 9 15l-13 36q74 92 74 216q0 142 -99.5 242t-242.5 100q-151 0 -250 -110 q-85 41 -175 41q-138 0 -245 -86t-137 -220q-174 -46 -234 -219q-1 -2 -1 -6zM402 -147q0 -24 17 -39q15 -17 39 -17h1225q23 0 39.5 16.5t16.5 39.5t-16 38t-40 15h-1225q-24 0 -40 -15t-16 -38zM832 1127q0 -24 15 -39l42 -42q17 -17 39 -17t38.5 16t16.5 40q0 23 -16 41 l-42 40q-15 17 -39 17t-39 -16t-15 -40zM1179 840q66 66 159 66q96 0 164 -68t68 -164q0 -63 -32 -117q-93 93 -227 93h-22q-27 114 -110 190zM1285 1182q0 -23 15 -38.5t38 -15.5q24 0 40.5 15.5t16.5 38.5v133q0 23 -17 39.5t-40 16.5t-38 -16t-15 -40v-133zM1643 1033 q0 -23 16 -39q18 -18 38 -18t42 18l94 94q16 18 16 41t-16 39t-39 16t-39 -16l-96 -96q-16 -16 -16 -39zM1696 262q0 -24 17 -39l42 -42q16 -16 38 -16q19 0 40 16q16 18 16 41q0 21 -16 37l-42 43q-16 16 -39 16q-24 0 -40 -16.5t-16 -39.5zM1793 674q0 -24 17 -39 q15 -17 39 -17h134q23 0 38.5 16.5t15.5 39.5t-15.5 39.5t-38.5 16.5h-134q-23 0 -39.5 -16.5t-16.5 -39.5z" />
<glyph unicode="{" horiz-adv-x="916" d="M117 344q0 -142 100.5 -242t240.5 -100q143 0 242.5 99.5t99.5 242.5q0 23 -15.5 39.5t-38.5 16.5t-39.5 -16.5t-16.5 -39.5q0 -96 -68 -164t-164 -68q-95 0 -161.5 68t-66.5 164q0 83 51.5 151t120.5 72l-25 -24q-16 -16 -16 -38q0 -23 16 -39q35 -35 79 0l120 119 q16 13 16 40q0 25 -16 38l-120 121q-16 16 -38 16q-24 0 -40.5 -16.5t-16.5 -39.5q0 -24 16 -40l25 -23q-123 -22 -204 -117.5t-81 -219.5z" />
<glyph unicode="}" horiz-adv-x="744" d="M117 342q0 -143 99 -242.5t242 -99.5q23 0 39 16.5t16 39.5t-16 38.5t-39 15.5q-96 0 -163.5 68t-67.5 164q0 92 64 160.5t149 68.5l-26 -26q-17 -16 -16 -38q0 -22 15 -38t38 -16q24 0 40 16l120 118q16 13 16 40q0 25 -16 38l-120 121q-16 16 -38 16q-23 0 -39.5 -16.5 t-16.5 -39.5q0 -25 17 -40l24 -23q-137 -10 -229 -107t-92 -234z" />
<glyph unicode="&#xa1;" horiz-adv-x="619" d="M117 800q0 80 57 137t137 57q79 0 135.5 -57t56.5 -137t-56.5 -137t-135.5 -57t-136.5 57t-57.5 137zM210 800q0 -41 30 -71t71 -30t70.5 30t29.5 71t-29.5 71t-70.5 30q-42 0 -71.5 -29.5t-29.5 -71.5z" />
<glyph unicode="&#xb7;" horiz-adv-x="1235" d="M117 501q0 137 67.5 252.5t183 182t250.5 66.5t250.5 -66.5t183 -182t67.5 -252.5t-67.5 -252.5t-183 -182t-250.5 -66.5q-137 0 -252.5 67.5t-182 183t-66.5 250.5zM227 501q0 -160 116 -276q115 -115 275 -115q161 0 276 115t115 276t-115 275.5t-276 114.5 t-276 -114.5t-115 -275.5zM438 329q-4 3 0 10l58 155q3 6 0 13l-58 156q-4 7 0 10t11 1l391 -167q7 -1 7 -6q0 -6 -7 -7l-391 -166q-7 -2 -11 1z" />
<glyph unicode="&#xbf;" horiz-adv-x="1235" d="M117 501q0 137 67.5 252.5t183 182t250.5 66.5t250.5 -66.5t183 -182t67.5 -252.5t-67.5 -252.5t-183 -182t-250.5 -66.5q-137 0 -252.5 67.5t-182 183t-66.5 250.5zM227 501q0 -160 116 -276q115 -115 275 -115q161 0 276 115t115 276t-115 275.5t-276 114.5 t-276 -114.5t-115 -275.5zM445 670q-2 7 1 11t10 0l155 -58q7 -3 14 0l154 58q7 4 10.5 0t1.5 -11l-166 -391q-1 -7 -7 -7t-7 7z" />
<glyph unicode="&#x2000;" horiz-adv-x="1245" />
<glyph unicode="&#x2001;" horiz-adv-x="2491" />
<glyph unicode="&#x2002;" horiz-adv-x="1245" />
<glyph unicode="&#x2003;" horiz-adv-x="2491" />
<glyph unicode="&#x2004;" horiz-adv-x="830" />
<glyph unicode="&#x2005;" horiz-adv-x="622" />
<glyph unicode="&#x2006;" horiz-adv-x="415" />
<glyph unicode="&#x2007;" horiz-adv-x="415" />
<glyph unicode="&#x2008;" horiz-adv-x="311" />
<glyph unicode="&#x2009;" horiz-adv-x="498" />
<glyph unicode="&#x200a;" horiz-adv-x="138" />
<glyph unicode="&#x2013;" horiz-adv-x="760" d="M117 194q0 -25 15.5 -40.5t38.5 -15.5h238q23 0 39 16t16 40q0 23 -16 38.5t-39 15.5h-103l321 321q15 17 15 40t-15 39q-17 15 -41 15t-39 -15l-320 -320v103q0 24 -16 40t-40 16q-23 0 -38.5 -16.5t-15.5 -39.5v-237z" />
<glyph unicode="&#x2014;" horiz-adv-x="760" d="M119 193q0 -24 15 -39q35 -35 79 0l321 321v-102q0 -24 15 -41t38 -17t39.5 17.5t16.5 40.5v235q0 23 -16.5 40t-39.5 17h-236q-23 0 -39.5 -17t-16.5 -40t16.5 -39.5t39.5 -16.5h103l-320 -320q-15 -15 -15 -39z" />
<glyph unicode="&#x2018;" horiz-adv-x="724" d="M117 246q0 129 108 203v480q0 58 39.5 98t97.5 40t98.5 -40t40.5 -98v-480q51 -35 79 -88.5t28 -114.5q0 -102 -72 -174t-174 -72t-173.5 72t-71.5 174zM201 246q0 -67 47.5 -115.5t113.5 -48.5q67 0 116 49t49 115q0 46 -23 83.5t-64 59.5l-14 6q-7 3 -7 14v520 q0 23 -16.5 38.5t-40.5 15.5q-23 0 -39.5 -15.5t-16.5 -38.5v-520q0 -11 -7 -14l-13 -6q-85 -46 -85 -143zM243 248q0 -50 35 -85.5t84 -35.5t84.5 35.5t35.5 85.5q0 45 -30.5 79.5t-74.5 40.5v349q0 5 -4.5 9t-10.5 4q-13 0 -13 -13v-349q-44 -6 -75 -40.5t-31 -79.5z" />
<glyph unicode="&#x201c;" horiz-adv-x="724" d="M117 246q0 129 108 203v480q0 58 39.5 98t97.5 40t98.5 -40t40.5 -98v-480q51 -35 79 -88.5t28 -114.5q0 -102 -72 -174t-174 -72t-173.5 72t-71.5 174zM201 246q0 -67 47.5 -115.5t113.5 -48.5q67 0 116 49t49 115q0 46 -23 83.5t-64 59.5l-14 6q-7 3 -7 14v520 q0 23 -16.5 38.5t-40.5 15.5q-23 0 -39.5 -15.5t-16.5 -38.5v-520q0 -11 -7 -14l-13 -6q-85 -46 -85 -143z" />
<glyph unicode="&#x201d;" horiz-adv-x="724" d="M243 248q0 -50 35 -85.5t84 -35.5t84.5 35.5t35.5 85.5q0 45 -30.5 79.5t-74.5 40.5v349q0 5 -4.5 9t-10.5 4q-13 0 -13 -13v-349q-44 -6 -75 -40.5t-31 -79.5z" />
<glyph unicode="&#x2022;" d="M117 323q0 -130 90.5 -223.5t221.5 -99.5q11 0 11 11v87q0 12 -11 12q-84 5 -143 67t-59 146q0 81 55 141t137 70l35 2q12 0 12 11l5 36q11 106 89.5 177t185.5 71q106 0 186 -71.5t91 -176.5l4 -38q0 -11 12 -11h105q86 0 150 -63t64 -148t-59 -146.5t-142 -66.5 q-13 0 -13 -12v-87q0 -11 13 -11q130 4 220 98t90 225q0 133 -94.5 226.5t-228.5 93.5h-21q-32 131 -137.5 214.5t-239.5 83.5q-138 0 -244.5 -85.5t-136.5 -218.5q-108 -25 -178 -113t-70 -201zM569 224q0 -23 16 -39l168 -169q13 -16 38 -16q27 0 40 16l168 169 q16 16 16 39t-16 38t-39 15q-24 0 -40 -15l-73 -72v259q0 23 -16.5 38.5t-39.5 15.5t-38.5 -15.5t-15.5 -38.5v-259l-72 72q-17 15 -40 15q-24 0 -40 -15t-16 -38z" />
<glyph unicode="&#x2026;" horiz-adv-x="1700" d="M117 451q0 24 16.5 40t40.5 16h856q23 0 38 -15.5t15 -40.5q0 -23 -15 -38t-38 -15h-856q-24 0 -40.5 15t-16.5 38zM288 657q0 24 17 39q16 16 39 16h857q23 0 38.5 -16t15.5 -39t-15.5 -39.5t-38.5 -16.5h-857q-23 0 -39.5 16.5t-16.5 39.5zM402 250q0 24 17 39 q15 15 39 15h857q23 0 39.5 -15.5t16.5 -38.5t-16.5 -39.5t-39.5 -16.5h-857q-23 0 -39.5 16.5t-16.5 39.5zM1152 451q0 25 15.5 40.5t40.5 15.5h320q24 0 40 -16t16 -40q0 -23 -16 -38t-40 -15h-320q-25 0 -40.5 15t-15.5 38z" />
<glyph unicode="&#x202f;" horiz-adv-x="498" />
<glyph unicode="&#x2039;" horiz-adv-x="1371" d="M117 791q0 80 57 137t137 57q79 0 135.5 -57t56.5 -137t-56.5 -137t-135.5 -57t-136.5 57.5t-57.5 136.5zM210 791q0 -41 30 -71t71 -30t70.5 30t29.5 71t-29.5 70.5t-70.5 29.5q-42 0 -71.5 -29t-29.5 -71zM681 56q0 -23 16.5 -39.5t39.5 -16.5t39.5 16.5t16.5 39.5v405 h305q23 0 39.5 17t16.5 40q0 24 -16 40t-40 16h-305v290h408q23 0 38.5 16.5t15.5 39.5t-15.5 39.5t-38.5 16.5h-508q-12 0 -12 -11v-909z" />
<glyph unicode="&#x203a;" horiz-adv-x="1347" d="M117 800q0 80 57 137t137 57q79 0 135.5 -57t56.5 -137t-56.5 -137t-135.5 -57t-136.5 57t-57.5 137zM210 800q0 -41 30 -71t71 -30t70.5 30t29.5 71t-29.5 71t-70.5 30q-42 0 -71.5 -29.5t-29.5 -71.5zM625 328q0 -122 69 -219q36 -50 99 -79.5t143 -29.5q234 0 293 178 q6 23 -7 43t-36 25q-23 6 -42.5 -7t-24.5 -36q0 -1 -2 -5.5t-3 -7.5q-18 -30 -48 -48q-50 -30 -130 -30q-50 0 -89 17q-65 28 -92 95q-18 44 -18 104v344q0 16 4 48q6 61 48 111q47 56 147 56q82 0 130 -29q32 -19 48 -48l5 -15q6 -22 25 -32.5t42 -5.5t36 24.5t7 42.5v1 l-10 25q-8 18 -29 46t-48 47q-33 24 -87.5 40t-118.5 16q-81 0 -143.5 -28.5t-97.5 -77.5q-70 -97 -70 -221v-344z" />
<glyph unicode="&#x205f;" horiz-adv-x="622" />
<glyph unicode="&#xe000;" horiz-adv-x="1011" d="M0 0v1011h1011v-1011h-1011z" />
</font>
</defs>
</svg>
